SplineFontDB: 3.2
FontName: Spritulo
FullName: Spritulo
FamilyName: Spritulo
Weight: Regular
Copyright: (C) 2022-2024 UkiyoMoji Fonts
Version: 1.0
ItalicAngle: 0
UnderlinePosition: -192
UnderlineWidth: 80
Ascent: 800
Descent: 200
InvalidEm: 0
UFOAscent: 800
UFODescent: -200
LayerCount: 2
Layer: 0 0 "Back" 1
Layer: 1 0 "Front" 1 "glyphs"
PreferredKerning: 1
StyleMap: 0x0040
FSType: 0
OS2Version: 0
OS2_WeightWidthSlopeOnly: 0
OS2_UseTypoMetrics: 0
CreationTime: 1729398510
ModificationTime: 1730598728
PfmFamily: 65
TTFWeight: 400
TTFWidth: 5
LineGap: 0
VLineGap: 0
Panose: 2 0 5 3 0 0 0 0 0 0
OS2TypoAscent: 800
OS2TypoAOffset: 0
OS2TypoDescent: -200
OS2TypoDOffset: 0
OS2TypoLinegap: 100
OS2WinAscent: 750
OS2WinAOffset: 0
OS2WinDescent: 250
OS2WinDOffset: 0
HheadAscent: 1200
HheadAOffset: 0
HheadDescent: -320
HheadDOffset: 0
OS2SubXSize: 650
OS2SubYSize: 699
OS2SubXOff: 0
OS2SubYOff: 140
OS2SupXSize: 650
OS2SupYSize: 699
OS2SupXOff: 0
OS2SupYOff: 479
OS2StrikeYSize: 49
OS2StrikeYPos: 258
OS2CapHeight: 900
OS2XHeight: 544
OS2FamilyClass: 2568
OS2Vendor: 'UKYO'
OS2CodePages: 0000009f.00000000
Lookup: 1 0 0 "loclBulgarian" { "loclBulgarian subtable"  } ['locl' ('cyrl' <'dflt' 'BGR ' > ) ]
Lookup: 1 0 0 "cv01cursiveacyrlaandgrkalpha" { "cv01cursiveacyrlaandgrkalpha subtable"  } ['cv01' ('shaw' <'dflt' > 'latn' <'dflt' 'FLE ' 'MOL ' 'NLD ' 'ROM ' > 'grek' <'dflt' > 'cyrl' <'dflt' 'BGR ' > 'DFLT' <'dflt' > ) ]
Lookup: 1 0 0 "cv02cursivegandcyrlde" { "cv02cursivegandcyrlde subtable"  } ['cv02' ('shaw' <'dflt' > 'latn' <'dflt' 'FLE ' 'MOL ' 'NLD ' 'ROM ' > 'grek' <'dflt' > 'cyrl' <'dflt' 'BGR ' > 'DFLT' <'dflt' > ) ]
Lookup: 1 0 0 "cv03nonshorthandOmega" { "cv03nonshorthandOmega subtable"  } ['cv03' ('shaw' <'dflt' > 'latn' <'dflt' 'FLE ' 'MOL ' 'NLD ' 'ROM ' > 'grek' <'dflt' > 'cyrl' <'dflt' 'BGR ' > 'DFLT' <'dflt' > ) ]

StartChar: .notdef
Encoding: 1114112 -1 0
GlifName: _notdef
Width: 1270
VWidth: 0
Flags: W
HStem: 68 90<644.532 719.276> 514 84<636.028 709.64> 909 20G<652.5 670.5>
VStem: 582.287 109.313<273.581 362.534> 640.002 88.104<72.8957 149.799>
LayerCount: 2
Fore
SplineSet
686 928 m 256xe0
 728 924 766.002 894 786.002 856 c 256
 806.002 818 874.002 742 884.002 736 c 256
 896.002 728 946.002 682 986.002 636 c 256
 992.002 630 998.002 620 1004 614 c 257
 1016 596 1032 586 1034 584 c 256
 1056.95063962 568.699573584 1137.92222967 475.558327747 1156 462 c 257
 1198.34 423.514 1246.23 399.839 1246.23 360.691 c 256
 1246.23 336.627 1234.36 320.181 1222 314 c 256
 1200 302 1158 270 1122 242 c 257
 1098 222 1038 154 1000 108 c 256
 978.002 80 948.002 50 922.002 24 c 256
 884.002 -12 852.002 -64 824.002 -102 c 256
 796.002 -140 760.002 -184 732.002 -230 c 256
 716.511 -255.173 680.397 -284.095 663.594 -284.095 c 256
 663.041 -284.095 662.51 -284.063 662.001 -284 c 256
 658.001 -284 650.001 -278 646.001 -274 c 256
 642.001 -270 642.001 -258 638.001 -254 c 257
 626.001 -234 492.001 -138 468.001 -118 c 256
 462.001 -114 422.001 -86 406.001 -70 c 257
 244.001 66 208.001 114 202.001 122 c 256
 194.001 134 160.001 176 146.001 194 c 256
 136.121 207.831 55.9648 299.748 55.9648 323.174 c 256
 55.9648 339.528 148.611 438.513 198 480 c 257
 212 490 238 518 256 536 c 258
 308 588 l 257
 344 618 376 650 388 668 c 257
 400 688 480 760 488 768 c 256
 488.602992537 768.602992537 499.908075709 788.670235379 542 834 c 256
 568 862 590 892 594 898 c 257
 614 920 637 929 668 929 c 256
 673 929 680 929 686 928 c 256xe0
718.002 -108 m 256
 742.002 -80 762.002 -56 762.002 -52 c 256
 762.002 -46.0711029277 802.525885095 -7.0570068297 822.002 28 c 256
 852.202722154 82.3612998778 847.267534502 55.7146853788 868.002 92 c 256
 886.92635961 125.117629318 926.765723412 141.527446825 944.002 176 c 257
 956.002 190 986.002 224 998.002 240 c 256
 1002 246 1018 256 1028 272 c 256
 1038 288 1060 304 1074 318 c 257
 1086 332 1104 348 1120 364 c 257
 1116 368 1102 394 1094 402 c 257
 1086 408 1028 470 1004 494 c 256
 980.002 518 938.002 558 908.002 590 c 256
 876.002 624 848.002 660 844.002 662 c 256
 834.002 670 802.002 708 694.002 828 c 256
 686.002 836 676.002 844 672.002 842 c 256
 658.002 838 570.002 740 566.002 734 c 256
 562.002 728 554.002 722 544.002 712 c 257
 524.002 696 460.002 632 454.002 624 c 256
 380.002 534 302.002 476 262.002 428 c 256
 220.002 376 194.002 370 152.002 318 c 257
 166.002 290 190.002 264 198.002 252 c 256
 264.002 151 356.002 68 448.002 -8 c 256
 508.002 -60 612.002 -138 662.002 -172 c 257
 682.002 -172 680.002 -150 718.002 -108 c 256
684.002 68 m 257
 651.882793697 70.9199278457 636.668 72.693787724 636.668 102.007 c 256
 636.668 102.721633165 637.766001034 161 677.002 161 c 256
 702.089 161 728.106 135.863 728.106 108.945 c 256
 728.106 81.8955 708.325 68 684.002 68 c 257
714.1 269.082 m 256
 714.1 247.342599917 664.322331352 234.001 651.003 234.001 c 256
 636.003 234.001 627.003 244.001 606.003 268.001 c 256
 587.819 290.082 582.287 299.509 582.287 311.074 c 256
 582.287 317.317 583.898 324.184 586.002 334 c 256
 592.002 356 604.002 376 632.002 404 c 257
 654.002 424 682.002 450 694.002 466 c 256
 705.494 479.791 709.723 486.979 709.723 492.874 c 256
 709.723 493.184250176 707.343689742 514 687.002 514 c 256
 673.002 514 656.002 505 648.002 498 c 256
 644.002 494 626.002 490 612.002 482 c 256
 593.002 471 571.002 463 549.002 463 c 256
 536.002 463 533.002 468 528.002 484 c 256
 525.712 492.703 524.471 500.252 524.471 507.079 c 256
 524.471 530.063 538.537 544.871 574.002 568 c 257
 610.002 590 622.002 598 662.002 598 c 256
 724.002 598 732.002 590 754.002 582 c 256
 758.002 580 770.002 576 782.002 568 c 257
 802.414 556.866 814.218 533.681 814.218 511.223 c 256
 814.218 454.213540508 691.6 367.291491673 691.6 313.871 c 256xf0
 691.6 296.489142399 714.1 285.567471431 714.1 269.082 c 256
EndSplineSet
Validated: 1
EndChar

StartChar: A
Encoding: 65 65 1
GlifName: A_
Width: 648
VWidth: 0
Flags: W
HStem: -8 21G<571 588> 264 88<181.656 459.161> 884 20G<349 369>
VStem: 549 72<2.5419 81.3109>
AnchorPoint: "bottom" 320 41 basemark 0
AnchorPoint: "top" 364 937 basemark 0
LayerCount: 2
Fore
SplineSet
409 706 m 256
 399.656356932 771.405501477 369.603161602 804 367 804 c 256
 365 804 355 782 347 766 c 257
 309 676 289 636 277 612 c 256
 263 586 261 576 249 544 c 256
 239 520 237 506 199 412 c 257
 189 390 181 372 181 368 c 257
 195 364 209 364 223 360 c 256
 231 358 265 352 335 352 c 256
 399 352 433 360 461 364 c 257
 455 420 455 440 431 566 c 257
 417 654 409 700 409 706 c 256
77 42 m 256
 56.1025792649 42 31 75.185700419 31 98 c 256
 31 112 33 134 39 160 c 257
 51 255 87 358 133 442 c 257
 149 474 157 516 193 588 c 256
 193.983449243 590.458623108 233.192557453 703.93325427 291 834 c 257
 303 864 319 900 321 900 c 256
 325 902 339 904 359 904 c 256
 379 904 385 902 395 898 c 256
 420 888 465 833 471 808 c 256
 475 792 481 774 493 728 c 257
 504.77478764 696.600566292 507.179447008 553.467455176 553 304 c 256
 571 206 597 150 603 132 c 257
 609 110 621 70 621 48 c 256
 621 24 599 -8 577 -8 c 256
 565 -8 549 -2 549 16 c 256
 549 48 525 78 513 118 c 257
 497 166 481 242 471 282 c 257
 429 269 386 264 342 264 c 258
 297 264 l 258
 283 264 273 264 265 266 c 256
 228.521959696 276.943412091 196.950448951 267.456886314 161 288 c 257
 93.8666797086 153.733359417 132.887429671 42 77 42 c 256
EndSplineSet
Validated: 1
PickledDataWithLists: "(dp0
Vpublic.postscript.hints\\u000d
p1
(dp2
VformatVersion\\u000d
p3
V1\\u000d
p4
sVid\\u000d
p5
V9f7ffe578af9dbc079bafe40d612bc0e82e89a161002cb4dafef120b618b349c41ded014e065a2a269faf071d4e1b62884ea39186cb38fd6195ce230c4f1e7fc\\u000d
p6
sVhintSetList\\u000d
p7
(lp8
(dp9
Vstems\\u000d
p10
(lp11
Vhstem 13 -21\\u000d
p12
aVhstem 264 88\\u000d
p13
aVhstem 884 20\\u000d
p14
aVvstem 549 72\\u000d
p15
asass."
EndChar

StartChar: AE
Encoding: 198 198 2
GlifName: A_E_
Width: 1174
VWidth: 0
Flags: W
HStem: -12 90<651.974 859.299> 26 92<910.507 1057.89> 346 84<233.006 520.212> 356 87<358.861 534> 384 78<616.678 918.301> 396 67<670.906 931.801> 754 80<594.932 888.394> 762 76<731.503 1057> 774 96<408.28 491.711>
VStem: 532 84.577<454 715.555>
AnchorPoint: "bottom" 602 33 basemark 0
AnchorPoint: "top" 564 909 basemark 0
LayerCount: 2
Fore
SplineSet
536 356 m 1x9040
 460.047499266 356 424.2191674 346 358 346 c 0x2040
 306 346 261 349 210 356 c 1
 208 350 200 332 198 322 c 0
 155.768899727 153.075598909 148.553931966 214.09909655 128 62 c 0
 122 26 116 4 90 4 c 0x1040
 52 4 44 32 44 74 c 0
 44 112 58 148 70 186 c 0
 88 240 96 292 118 374 c 0
 136 442 154 452 168 506 c 1
 172 540 184 558 200 594 c 0
 208 612 220 630 230 652 c 0
 262 712 274 742 324 796 c 0
 346 818 356 852 392 862 c 0
 402 866 420 870 442 870 c 0x10c0
 470 870 486 866 492 860 c 0
 514 838 691 834 730 834 c 0x0240
 762 836 798 838 894 838 c 0
 1030 838 1066 830 1066 812 c 0
 1066 767.369350116 1038.47501452 765.210555878 894 762 c 0x0140
 774 762 680 756 642 754 c 1
 592 750 l 1
 604 684 l 1
 604 650 616 608 616 568 c 0
 616.423 558.279 616.577 548.022 616.577 537.796 c 0
 616.577 509.856 615.423 482.144 615.423 466.204 c 0
 615.423 460.37 615.577 456.113 616 454 c 0
 630 454 674 462 684 462 c 2
 814 462 l 2x0a40
 847 462 873 463 892 463 c 0
 916 463 930 462 932 456 c 0
 934 446 938 440 938 438 c 0
 938 413.342506329 931.240028698 390.449601148 770 384 c 0
 720 382 698 378 656 372 c 0
 646 370 612 366 612 366 c 1
 612 366 612 334 614 314 c 0
 624 246 628 194 638 130 c 0
 642 86 688 78 740 78 c 0x8840
 895.630969197 78 954.83569747 118 1026 118 c 0
 1064 118 1074 116 1074 88 c 0
 1074 42 1040 32 988 26 c 0x4040
 817.874986089 13.8482132921 805.783256339 -12 700 -12 c 0
 613 -12 569 27 558 114 c 0
 554 146 546 182 538 282 c 0
 536 310 538 338 536 356 c 1x9040
478 770 m 0
 470 770 430 774 424 774 c 0
 418 774 414 772 408 770 c 0
 390 756 320 642 310 616 c 0
 298 566 232 498 232 434 c 1
 242 432 290 430 356 430 c 0x20c0
 402 430 426 432 434 436 c 0
 443.73548625 439.8941945 506.266651515 443 507 443 c 0
 516 443 525 442 534 442 c 1
 533.470085108 451.008553156 532.586454289 623.894819976 526 670 c 0
 522 692 490 770 478 770 c 0
EndSplineSet
Validated: 33
EndChar

StartChar: Aogonek
Encoding: 260 260 12
GlifName: A_ogonek
Width: 838
VWidth: 0
Flags: W
HStem: -294.001 75<683.91 784.587> 260.999 83<243.47 593.03> 284 79<711.824 752.765> 902 20G<417 483>
VStem: 554 91<-178.719 -50.7845>
AnchorPoint: "bottom" 428 -266 basemark 0
AnchorPoint: "top" 440 955 basemark 0
LayerCount: 2
Fore
SplineSet
217.424 287.254 m 256
 217.424 288.144085707 218.621670227 338.945700267 285.999 343.999 c 257
 295.999 343.999 l 258
 310.999 343.999 327.999 340.999 344.999 340.999 c 256
 430.999 340.999 515.999 345.999 600.999 354.999 c 257
 597 367 593 379 590 392 c 256
 570.136031396 466.489882264 524.517587668 568.998744705 487 705 c 256
 480 730 453 823 443 823 c 256
 430 823 375 738 362 715 c 257
 354 704 346 693 339 681 c 256
 265 537 230 385 183 200 c 256
 177.282492482 173.55652773 161.145136752 67.7619679491 153 25 c 257
 150 -6 125 -33 94 -39 c 257
 88 -39 82 -36 77 -34 c 256
 71 -32 63 -32 60 -28 c 256
 54 -22 50 -11 50 -3 c 256
 50 2 54 6 56 12 c 256
 58 20 60 27 62 35 c 256
 71 84 79 133 88 179 c 257
 121 377 222 665 331 825 c 256
 360 867 383 922 451 922 c 256
 515 922 521 855 544 802 c 257
 571.657616513 732.855958717 671.753380159 392.242112961 686 359 c 257
 695 361 727 363 735 363 c 256
 767.302308632 363 769.13 323.269481062 769.13 314.277 c 256
 769.13 301.908682436 769.13 289.626 711 278 c 257
 728 215 757 125 766 101 c 256
 769 94 778 88 780 80 c 257
 784.614 69.3281 786.65 60.2158 786.65 52.331 c 256
 786.65 5.53904 714.952 1.95212 685 -28.001 c 256
 662 -51.001 645 -83.001 645 -115.001 c 256
 645 -129.001 645 -142.001 651 -153.001 c 256
 663 -179.001 695 -219.001 727 -219.001 c 256
 754.879183619 -219.001 763.065260826 -201.001 782 -201.001 c 256
 793 -201.001 814 -211.001 814 -231.001 c 256
 814 -266.001 762 -294.001 721 -294.001 c 256
 702 -294.001 670 -294.001 652 -285.001 c 257
 632 -272.001 609 -258.001 595 -241.001 c 257
 572 -209.001 554 -171.001 554 -114.001 c 256
 554 -63.001 575 -17.001 603 11.999 c 256
 624 33.999 658 64.999 687 76.999 c 257
 665 140.999 645 203.999 626 268.999 c 257
 593 265.999 560 264.999 535 264.999 c 256
 449 264.999 362 260.999 276 260.999 c 256
 265 260.999 253 256.999 243 256.999 c 256
 225.973425956 256.999 217.424 272.056936929 217.424 287.254 c 256
EndSplineSet
Validated: 1
EndChar

StartChar: Aring
Encoding: 197 197 13
GlifName: A_ring
Width: 611
VWidth: 0
Flags: W
HStem: 0 21G<59 90> 260 80<184 389.653> 984 86<244.043 319.289>
VStem: 42 86<6.92368 128.078> 126 90<857.926 955.024> 364 84<845.557 933.843>
AnchorPoint: "bottom" 304 43 basemark 0
AnchorPoint: "top" 296 1113 basemark 0
LayerCount: 2
Fore
SplineSet
254 344 m 256
 316.821182595 344 252.661327014 346.541332938 372 354 c 257
 412 354 l 257
 386.428320789 430.715676973 400.531397005 428.671507488 392 450 c 256
 388 460 388 494 382 508 c 256
 376 522 374 538 368 556 c 256
 352 610 336 652 324 680 c 256xe4
 318 692 314 708 302 708 c 256
 280.296296296 708 260.417646315 654.327645051 224 556 c 257
 222 546 222 534 218 518 c 257
 208 464 198 384 184 340 c 257
 196 342 228 344 254 344 c 256
216 884 m 256xec
 216 860.855263629 279.405803283 832 306 832 c 256
 334 832 364 856 364 886 c 256
 364 910 314 984 288 984 c 256
 239 984 216 925 216 884 c 256xec
414 298 m 257
 396.817644334 280.817644334 366.923911464 262 240 262 c 256
 214 262 178 262 172 260 c 257
 166 208 128 120 128 60 c 256xf4
 128 12 108 0 72 0 c 256
 46 0 42 14 42 46 c 256xf4
 42 60 42 70 48 76 c 256
 54 82 68 142 88 254 c 257
 92 270 110 344 110 368 c 256
 110 380 134 498 144 542 c 257
 158 616 182 654 204 712 c 256
 210 726 226 746 242 760 c 257
 232 766 208 768 194 782 c 256
 174 804 146 828 140 840 c 256
 130 862 126 904 126 940 c 256xec
 126 946.658897091 142.047600341 1070 274 1070 c 256
 418.72504269 1070 448 884.5616401 448 882 c 256
 448 860 430 826 410 794 c 256
 398 774 388 772 382 768 c 257
 388 758 406 714 408 712 c 256
 421 701 446 616 450 594 c 257
 462 546 472 524 474 500 c 256
 474.306818684 496.624994475 507.195146593 237.609706813 542 168 c 256
 550 152 574 94 574 68 c 256
 574 48 530 4 510 4 c 256
 498 4 490 42 484 58 c 256
 478 76 472 112 454 162 c 256
 438 208 420 264 414 298 c 257
EndSplineSet
Validated: 1
EndChar

StartChar: B
Encoding: 66 66 16
GlifName: B_
Width: 610
VWidth: 0
Flags: W
HStem: -10 80<185.017 349.208> 382 90<164 286.172> 818 110<161 227.987>
VStem: 72 84<474.54 816.474> 432 76<575.119 689.498> 488 82<169.611 250.144>
AnchorPoint: "bottom" 320 41 basemark 0
AnchorPoint: "top" 292 947 basemark 0
LayerCount: 2
Fore
SplineSet
164 382 m 257
 164 208.778396675 184 120.288269991 184 76 c 257
 190 72 228 70 252 70 c 256
 324 70 348 92 380 108 c 257
 408 124 488 172 488 206 c 256
 488 240 438 282 414 302 c 256
 370 338 356 344 290 370 c 257xf4
 256 380 236 382 216 382 c 258
 164 382 l 257
232 814 m 256
 207 815 192 818 173 818 c 258
 161 818 l 257
 160 786 156 718 156 642 c 256
 156 592 162 526 162 472 c 257
 204 472 242 476 252 480 c 256
 270 488 328 506 370 538 c 256
 412 570 432 596 432 624 c 256xf8
 432 672 387 728 348 764 c 256
 312 798 272 812 232 814 c 256
128 928 m 256
 142 928 148 918 164 914 c 256
 166.173508208 913.130596717 314.0362716 905.17098272 388 846 c 256
 399 837 414 817 436 788 c 256
 484 724 508 688 508 625 c 256xf8
 508 556 472 530 426 488 c 256
 400 464 372 446 356 436 c 257
 392 422 426 398 444 386 c 256
 506 347 570 290 570 210 c 256xf4
 570 142 504 81 424 46 c 256
 406 38 380 22 352 12 c 256
 324 2 274 -10 200 -10 c 256
 160 -10 84 -3 84 52 c 256
 84 58 89 68 101 76 c 257
 74 255 72 436 72 616 c 256
 72 630 74 688 74 700 c 256
 74 834 64 828 64 864 c 256
 64 910 98 928 128 928 c 256
EndSplineSet
Validated: 1
EndChar

StartChar: C
Encoding: 67 67 18
GlifName: C_
Width: 686
VWidth: 0
Flags: W
HStem: -8 97<269.587 472.36> 791 93<304.663 468.396>
VStem: 66 87<229.817 543.968> 524 86<682.577 735.017>
AnchorPoint: "bottom" 368 41 basemark 0
AnchorPoint: "top" 392 929 basemark 0
LayerCount: 2
Fore
SplineSet
468 650 m 256
 468 659.986200056 524 696.573323753 524 702 c 256
 524 708 512 724 488 752 c 256
 472 770 459 775 449 779 c 257
 439 785 404 791 381 791 c 256
 308 791 257 742 230 679 c 257
 198 614 194 628 179 562 c 256
 164 499 153 468 153 405 c 256
 153 309 155 223 226 148 c 256
 259 113 288 89 367 89 c 256
 406 89 439 95 467 107 c 256
 530 136 553 160 569 171 c 256
 582 181 598 182 614 182 c 256
 630 182 640 168 640 158 c 256
 640 148 636 140 616 118 c 256
 570 68 530 44 466 10 c 256
 444 -2 404 -8 350 -8 c 256
 264 -8 234 11 170 68 c 256
 73 154 66 287 66 408 c 256
 66 519 105 632 162 726 c 257
 221 821 280 884 396 884 c 256
 467 884 517 851 566 802 c 256
 586 782 600 770 604 760 c 256
 608 750 610 734 610 714 c 256
 610 682.742424242 610 642 500 642 c 256
 478 642 468 644 468 650 c 256
EndSplineSet
Validated: 1
EndChar

StartChar: Ccedilla
Encoding: 199 199 21
GlifName: C_cedilla
Width: 686
VWidth: 0
Flags: W
HStem: -324.001 80<263.119 421.169> -8 86.999<316.182 389.54> 817.999 94<284.985 467.645>
VStem: 41 89<305.562 549.713> 464 86<-204.204 -112.798> 512 72<733.466 785.342>
AnchorPoint: "top" 364 980 basemark 0
AnchorPoint: "bottom" 353 -286 basemark 0
LayerCount: 2
Fore
SplineSet
335 -244.001 m 256
 450.061039641 -244.001 464 -167.508481343 464 -166.001 c 256
 464 -149.001 444 -109.001 425 -90.001 c 256
 409 -75.001 400 -59.001 394 -42.001 c 256
 392.382 -37.9561 389.455 -28.0205 389.455 -15.3711 c 256
 389.455 -12.3848 389.618 -9.2471 390 -6 c 257
 387 -6 371 -8 358 -8 c 256
 305 -8 235 34 185 81 c 257
 157 110 69 260 56 315 c 256xf8
 50 340 41 341.999 41 382.999 c 256
 41 459.999 79 668.999 117 732.999 c 257
 168 810.999 221 874.999 278 901.999 c 256
 295 909.999 316 911.999 341 911.999 c 256
 419 911.999 537 880.999 565 835.999 c 257
 578 817.999 584 798.999 584 779.999 c 256
 584 757.999 573 726.999 540 726.999 c 256
 525 726.999 512 741.999 512 755.999 c 256
 512 795.999 406 817.999 356 817.999 c 256
 324 817.999 305 810.999 293 802.999 c 256
 252 772.999 219 730.999 202 698.999 c 256
 168 635.999 130 470.999 130 418.999 c 256
 130 350.999 153 291.999 187 227.999 c 256
 229 151.999 246 149.999 269 126.999 c 256
 282 113.999 354 78.999 388 78.999 c 256
 421 78.999 445 97.999 483 111.999 c 257
 495 114.999 502 114.999 512 120.999 c 256xf4
 531 130.999 544 139.999 559 151.999 c 257
 584 175.999 609 190.999 643 190.999 c 256
 668 190.999 675 187.999 675 171.999 c 256
 675 154.999 615 109.999 588 88.999 c 257
 558 63.999 548 57.999 518 40.999 c 256
 508 35.999 483 10.999 474 8.999 c 257
 480 -29.001 497 -42.001 510 -63.001 c 256
 540 -115.001 550 -116.001 550 -181.001 c 256
 550 -248.001 451 -324.001 350 -324.001 c 256
 293 -324.001 231 -293.001 231 -268.001 c 256
 231 -251.001 248 -229.001 263 -229.001 c 256
 282.634089099 -229.001 284.165910901 -244.001 335 -244.001 c 256
EndSplineSet
Validated: 1
EndChar

StartChar: D
Encoding: 68 68 25
GlifName: D_
Width: 694
VWidth: 0
Flags: W
HStem: -26 21G<181.997 201.997> 775 94<164.605 382.596> 888 20G<115.997 122.997>
VStem: 71.999 83.682<202.218 769.041> 558.381 81.753<435.232 650.514>
AnchorPoint: "bottom" 330 91 basemark 0
AnchorPoint: "top" 326 925 basemark 0
LayerCount: 2
Fore
SplineSet
156.324 422.254 m 256
 156.324 400.493501745 155.681 350.702768602 155.681 349.98 c 256
 155.681 278.889 162.218 205.562 163.999 202 c 256
 175.999 166 191.999 160 191.999 144 c 257
 189.999 117 170.999 90 141.999 90 c 256
 133.999 90 127.999 102 117.999 118 c 256
 95.999 152 89.999 164 79.999 206 c 257
 73.999 236 71.999 308 71.999 426 c 257
 73.6895 470.801 74.3086 498.811 74.3086 520.599 c 256
 74.3086 550.361 73.1543 568.515 72 602 c 256
 68 716 74 810 64 842 c 256
 62.9688 843.805 62.5029 845.941 62.5029 848.312 c 256
 62.5029 864.332 83.8047 891.031 96 898 c 256
 108 904 113.997 908 117.997 908 c 256
 127.997 908 153.997 886 163.997 868 c 257
 175.997 869 186.997 869 197.997 869 c 256
 246.997 869 289.997 863 335.997 856 c 257
 343.997 856 359.997 850 391.997 846 c 257
 475.997 832 524.997 807 583.997 744 c 256
 620.263 705.826 640.134 627.577 640.134 559.668 c 256
 640.134 435.749284356 599.920562893 369.3757897 555.997 298 c 256
 517.997 236 475.997 190 449.997 164 c 256
 371.997 90 317.997 40 293.997 24 c 256
 245.997 -8 211.997 -26 191.997 -26 c 256
 171.997 -26 155.997 -19 155.997 4 c 256
 155.997 12 159.997 24 167.997 32 c 256
 205.997 66 193.997 62 247.997 100 c 256
 329.997 160 357.997 182 407.997 240 c 257
 455.997 290 465.997 308 507.997 374 c 256
 534.371370695 416.198993112 558.381 477.783394024 558.381 562.329 c 256
 558.381 593.649 552.706 619.1 543.998 640 c 257
 515.998 690 505.998 704 455.998 726 c 257
 385.998 763 279.998 775 201.998 775 c 256
 188.998 775 177.998 774 163.998 770 c 257
 163.810622938 768.126229377 152.861 640.202248944 152.861 582.018 c 256
 152.861 541.068 156.324 505.445 156.324 422.254 c 256
EndSplineSet
Validated: 1
EndChar

StartChar: Dcroat
Encoding: 272 272 27
GlifName: D_croat
Width: 772
VWidth: 0
Flags: W
HStem: 13 97<292.582 391.976> 421 90<60.6334 156> 435 85<248 478.24> 463 59<356.434 525.984> 796 93<230.192 358.284>
VStem: 142 85<518.05 768.746> 627 87<356.436 578.997>
AnchorPoint: "bottom" 372 53 basechar 0
AnchorPoint: "top" 396 943 basechar 0
LayerCount: 2
Fore
SplineSet
363 773 m 256xae
 334 785 310 790 289 796 c 257
 274 796 244 796 231 788 c 257
 229 782 227 758 227 748 c 256
 227 737 229 705 229 660 c 256
 229 586 233 539 237 517 c 257
 260 518 290 520 318 520 c 256xae
 351 520 376 522 406 522 c 256x9e
 477 522 515 518 520 511 c 256xce
 526 503 528 496 528 488 c 256
 528 475 517 470 498 463 c 256x9e
 488 460 473 455 467 454 c 256
 453 450 417 446 343 440 c 256
 312 438 281 437 248 435 c 257
 251 414 263 325 267 296 c 256
 274 233 283 172 297 110 c 257
 357 110 380 118 433 152 c 257
 543 215 627 328 627 458 c 256
 627 547 609 590 568 632 c 256
 521 681 427 746 363 773 c 256xae
103 812 m 256
 103 842 141 878 169 885 c 256
 177 887 197 889 232 889 c 256
 266 889 305 888 344 874 c 256
 476 826 573 758 650 674 c 256
 687 633 714 551 714 498 c 256
 714 382 667 264 617 199 c 256
 553 114 401 13 294 13 c 256
 225.217391304 13 223.70164807 22.9605983987 196 205 c 257
 190 253 183 294 178 330 c 256
 173 371 169 405 166 427 c 257
 142 426 120 421 103 421 c 256
 60 421 40 426 40 459 c 256
 40 472 50 482 66 494 c 256
 88 509 120 508 156 511 c 257xce
 143.80513502 614.656352332 142.525849453 750.633677462 142 753 c 257
 137 755 127 763 121 768 c 256
 106 784 103 795 103 812 c 256
EndSplineSet
Validated: 1
EndChar

StartChar: E
Encoding: 69 69 28
GlifName: E_
Width: 672
VWidth: 0
Flags: W
HStem: -3 82<202.63 419.593> 43 80<437.913 597.943> 407 79<181.342 482.784> 437 68<417.983 565.557> 792 89<46.6918 85.0704 171 333.999> 796 93<82.0156 84.6628 171 429.759> 889 20G<513 525>
VStem: 83 94<536.373 792> 96.4062 80.5938<107.036 412 493.399 687.507>
AnchorPoint: "bottom" 360 41 basemark 0
AnchorPoint: "top" 320 933 basemark 0
LayerCount: 2
Fore
SplineSet
321 486 m 256x25
 373 486 373 486 544 505 c 257
 554 505 569 486 569 468 c 256
 569 456 558 443 531 437 c 257x11
 484 432 410 407 330 407 c 256
 278 407 222 408 179 412 c 257
 179 368 177 306 177 250 c 256x2080
 177 186 179 137 200 103 c 256
 214 80 231 79 269 79 c 258
 288 79 l 258xa080
 330 79 360 83 373 87 c 256
 448 111 531 123 610 123 c 256
 622 123 629 122 629 110 c 256
 629 75 577 49 549 43 c 256x4080
 533 40 513 39 499 35 c 256
 411 14 309 -3 220 -3 c 256
 167 -3 113 49 101 113 c 256
 97.4785 131.782 96.4062 163.886 96.4062 204.758 c 256x8080
 96.4062 268.336 99 353.13 99 442 c 256
 99 519 92 718 83 792 c 257
 78 792 l 258
 67.0434782609 792 31 792 31 838 c 256
 31 848 44 860 58 865 c 257
 70 871 75 877 82 881 c 257
 83 881 l 257x89
 111 887 129 889 224 889 c 256x05
 360 889 456 891 491 901 c 256
 500 903 508 909 518 909 c 256x03
 532 909 551 907 575 901 c 256
 585 899 589 896 589 882 c 256
 589 821.4 528.98129813 817.398753209 298 802 c 256
 260 800 232 798 171 796 c 257
 173 767 177 741 177 710 c 258
 177 604 l 258
 177 568 179 529 179 495 c 257
 236 490 275 486 321 486 c 256x25
EndSplineSet
Validated: 1
PickledDataWithLists: "(dp0
Vpublic.postscript.hints\\u000d
p1
(dp2
VformatVersion\\u000d
p3
V1\\u000d
p4
sVid\\u000d
p5
Vff78b1b1d0de8f60d02e0a05ef1974b2a0d3a9e2e33174af96475fa85203c90897cafe25efccfbdd4267f4199e9ebd62fb510d50df29605b25b3eebef5de0681\\u000d
p6
sVhintSetList\\u000d
p7
(lp8
(dp9
Vstems\\u000d
p10
(lp11
Vhstem -3. 82\\u000d
p12
aVhstem 43. 80\\u000d
p13
aVhstem 407 79\\u000d
p14
aVhstem 437 68\\u000d
p15
aVhstem 792 89\\u000d
p16
aVhstem 796 93\\u000d
p17
aVhstem 889 20\\u000d
p18
aVvstem 83 94\\u000d
p19
aVvstem 96.41 80.59\\u000d
p20
asass."
EndChar

StartChar: Eng
Encoding: 330 330 37
GlifName: E_ng
Width: 782
VWidth: 0
Flags: W
HStem: -335.001 97.999<416.077 556.018> -7 21G<153.999 168.999> 819.998 86.001<410.199 517.255> 917 20G<96.5 104>
VStem: 49.5957 96.4043<553.505 923.188> 633.678 84.896<-6.548 554>
AnchorPoint: "bottom" 400 -269 basemark 0
AnchorPoint: "top" 396 933 basemark 0
LayerCount: 2
Fore
SplineSet
49.5957 852.552 m 256
 49.5957 853.530378739 54.6532637058 937 99 937 c 256
 109 937 120 934 126 928 c 256
 149.953184929 901.385350079 141.930274011 722.1756356 158 550 c 257
 170 596 179.997 611.999 193.997 641.999 c 256
 221.997 700.999 249.997 738.999 289.997 797.999 c 256
 333.997 861.999 405.997 905.999 461.997 905.999 c 256
 546.997 905.999 605.997 862.999 635.997 779.999 c 256
 692.999896133 623.241035633 718.574 552.91225 718.574 327.425 c 256
 718.574 273.616 716.688 219.808 713.998 165.999 c 256
 706.998 26.999 690.998 -55.001 659.998 -174.001 c 256
 642.998 -235.001 616.998 -319.001 545.998 -334.001 c 256
 542.998 -335.001 539.998 -335.001 536.998 -335.001 c 256
 516.998 -335.001 496.998 -325.001 477.998 -322.001 c 256
 437.998 -315.001 389.998 -320.001 355.998 -296.001 c 256
 339.152 -283.872 321.399 -258.123 321.399 -234.661 c 256
 321.399 -216.166073975 333.962856113 -200.002 347.998 -200.002 c 256
 357.998 -200.002 368.998 -205.002 377.998 -206.002 c 256
 411.998 -211.002 438.998 -226.002 471.998 -230.002 c 256
 487.998 -232.002 502.998 -237.002 516.998 -237.002 c 256
 550.998 -237.002 560.998 -212.002 569.998 -183.002 c 256
 620.260906837 -24.0625378385 633.678 138.282180651 633.678 339.144 c 256
 633.678 404.874724648 633.678 514.958 573.998 693.998 c 256
 556.998 743.998 531.998 819.998 459.998 819.998 c 256
 383.998 819.998 281.998 637.998 259.998 579.998 c 256
 258.78458801 576.807175879 201.724 404.557637711 201.724 243.633 c 256
 201.724 210.641 204.328 185.803 204.328 146.551 c 256
 204.328 144.611598682 203.861 108.152888113 203.861 107.765 c 256
 203.861 104.348 203.871 100.759 203.871 97.0469 c 256
 203.871 46.0788391858 200.978217886 -7 167.999 -7 c 256
 139.999 -7 123.999 43 113.999 122 c 256
 108.412972856 164.656934551 105.23739999 200.662400138 89.999 414 c 256
 86.999 450 77.999 484 73.999 520 c 256
 73.732628955 522.557162032 55.6967032684 763.255121558 53.999 804 c 256
 53.293 820.946 49.5957 836.896 49.5957 852.552 c 256
EndSplineSet
Validated: 1
EndChar

StartChar: Eogonek
Encoding: 280 280 38
GlifName: E_ogonek
Width: 758
VWidth: 0
Flags: W
HStem: -303 86.999<690.848 825.369> 389 92<26.5244 122> 519.998 10<534.783 553.924> 785.998 99.999<219.135 570.475>
VStem: 125.001 94.999<64.0114 392 496.998 793.998> 588.68 83.898<-195.103 23.97>
AnchorPoint: "top" 383 945 basemark 0
AnchorPoint: "bottom" 393 41 basemark 0
LayerCount: 2
Fore
SplineSet
81 389 m 256
 29.6159146695 389 16.9062 407.709081378 16.9062 429.529 c 256
 16.9062 460.089 41.4492 476.532 62 481 c 257
 82 484 102 485 122 487 c 257
 125 495 125.001 627.997 125.001 645.997 c 256
 125.001 696.997 123.001 752.997 123.001 801.997 c 256
 123.001 882.847690138 137.121214144 896.997 164.001 896.997 c 258
 176.001 896.997 l 258
 197.87561619 896.997 192.793050477 885.997 306.001 885.997 c 256
 365.001 885.997 425.001 888.997 484.001 888.997 c 258
 512.001 888.997 l 258
 531.001 888.997 549.001 891.997 567.001 891.997 c 256
 591.139 891.997 636.193 881.685 636.193 848.842 c 256
 636.193 813.834691053 532.539239125 785.998 315.001 785.998 c 256
 279.001 785.998 242.001 789.998 218.001 793.998 c 257
 217.601 788.398 217.44 782.238 217.44 775.662 c 256
 217.44 749.358 220 716.398 220 685.998 c 256
 220 632.998 216 589.998 216 538.998 c 258
 216 496.998 l 257
 253 502.998 291 509.998 330 512.998 c 256
 347 514.998 366 514.998 383 516.998 c 256
 424 519.998 465 529.998 510 529.998 c 256
 527 529.998 556 521.998 569 519.998 c 257
 581.101 519.998 600.148 508.771 600.148 497.842 c 256
 600.148 469.815 525.328 446.898 499 442.998 c 257
 476 436.998 451 432.998 429 428.998 c 256
 426.849598177 428.69079974 288.698687802 403.895264827 214 397.998 c 257
 214 352.998 l 258
 214 287.998 218 222.998 218 155.998 c 256
 218 124.998 218 79.998 220 63.998 c 257
 347 75.998 552 147.998 636 147.998 c 258
 641 147.998 l 257
 659 146.998 679 147.998 693 136.998 c 257
 704 126.998 712 109.998 712 94.998 c 256
 712 77.998 700 62.998 697 46.998 c 257
 684.438 2.61328 672.578 -43.1738 672.578 -93.8877 c 256
 672.578 -122.451690835 674.872150144 -175.571123515 691.001 -196.001 c 257
 701.001 -211.001 721.001 -216.001 743.001 -216.001 c 256
 788.318701329 -216.001 807.704132004 -200.001 828.001 -200.001 c 256
 835.001 -200.001 843.001 -200.001 849.001 -205.001 c 257
 856.364 -213.183 863.059 -231.405 863.059 -243.786 c 256
 863.059 -279.666080739 771.583332357 -303 731 -303 c 256
 700 -303 670 -295 649 -281 c 256
 609.676 -253.036 588.68 -194.527 588.68 -128.161 c 256
 588.68 -118.582 589.117 -108.839 590 -99 c 256
 590 -64 599 -33 602 0 c 256
 603 19 619 34 619 51 c 257
 548.143973554 43.9143973554 321.529169279 -24.8800651546 218 -33 c 257
 176.167925524 -33 121 -17.2232934555 121 66 c 256
 121 127 127 175 127 245 c 256
 127 300 124 346 123 392 c 257
 121 391 119 391 117 391 c 256
 105 390 93 389 81 389 c 256
EndSplineSet
Validated: 1
EndChar

StartChar: Eth
Encoding: 208 208 45
GlifName: E_th
Width: 772
VWidth: 0
Flags: W
HStem: 13 97<282.582 381.976> 421 90<50.6334 146> 435 85<238 468.24> 463 59<346.434 515.984> 796 93<220.192 348.284>
VStem: 132 85<518.05 768.746> 617 87<356.436 578.997>
AnchorPoint: "bottom" 358 67 basechar 0
AnchorPoint: "top" 364 937 basechar 0
LayerCount: 2
Fore
SplineSet
353 773 m 256xae
 324 785 300 790 279 796 c 257
 264 796 234 796 221 788 c 257
 219 782 217 758 217 748 c 256
 217 737 219 705 219 660 c 256
 219 586 223 539 227 517 c 257
 250 518 280 520 308 520 c 256xae
 341 520 366 522 396 522 c 256x9e
 467 522 505 518 510 511 c 256xce
 516 503 518 496 518 488 c 256
 518 475 507 470 488 463 c 256x9e
 478 460 463 455 457 454 c 256
 443 450 407 446 333 440 c 256
 302 438 271 437 238 435 c 257
 241 414 253 325 257 296 c 256
 264 233 273 172 287 110 c 257
 347 110 370 118 423 152 c 257
 533 215 617 328 617 458 c 256
 617 547 599 590 558 632 c 256
 511 681 417 746 353 773 c 256xae
93 812 m 256
 93 842 131 878 159 885 c 256
 167 887 187 889 222 889 c 256
 256 889 295 888 334 874 c 256
 466 826 563 758 640 674 c 256
 677 633 704 551 704 498 c 256
 704 382 657 264 607 199 c 256
 543 114 391 13 284 13 c 256
 215.217391304 13 213.70164807 22.9605983987 186 205 c 257
 180 253 173 294 168 330 c 256
 163 371 159 405 156 427 c 257
 132 426 110 421 93 421 c 256
 50 421 30 426 30 459 c 256
 30 472 40 482 56 494 c 256
 78 509 110 508 146 511 c 257xce
 133.80513502 614.656352332 132.525849453 750.633677462 132 753 c 257
 127 755 117 763 111 768 c 256
 96 784 93 795 93 812 c 256
EndSplineSet
Validated: 1
EndChar

StartChar: Euro
Encoding: 8364 8364 46
GlifName: E_uro
Width: 840
VWidth: 0
Flags: W
HStem: -14 101<399.2 664.373> 294 84<424.842 607.442> 484 100<66.4877 199> 492 92<42.5919 140.589 302.652 503.064> 503 95<302.652 575.942> 884 86<430.408 539.513>
VStem: 198 90<354 484.109> 210 92<586 676.974> 218 88<197.577 250>
LayerCount: 2
Fore
SplineSet
218 250 m 257
 144.385231308 242.041646628 108.120089282 235 107 235 c 258
 103 235 l 258
 89 235 84 238 70 250 c 256
 56 262 56 266 56 280 c 256
 56 329.97735356 133.731297374 337.976634554 203 344 c 257
 200 376 198 410 198 444 c 256
 198 458 198 472 199 485 c 257
 180 485 160 484 142 484 c 256xe6
 112 484 76 486 66 492 c 256xd6
 50 501 22 532 22 550 c 256
 22 574 117 584 134 584 c 258xe6
 210 584 l 257
 227 673 250 768 296 846 c 256
 324 894 414 970 480 970 c 256
 504 970 552 952 612 924 c 256
 653 905 685 875 685 843 c 256
 685 830 656 790 638 790 c 256
 632 790 622 792 608 800 c 256
 594 808 575 848 530 867 c 256
 505 877 486 884 476 884 c 256
 445 884 383 826 367 795 c 256
 339 742 312 647 302 586 c 257xd5
 344.783723403 586 429.893609092 596.581977005 454 598 c 256
 466 598 484 600 504 600 c 256
 553 600 586 592 586 536 c 256
 586 505 583 503 547 503 c 258
 466 503 l 258
 427 503 369 494 342 494 c 256
 336 494 317 493 291 491 c 257
 289 470 288 449 288 428 c 256xce
 288 402 289 377 291 354 c 257
 496.714285714 378 496.714285714 378 530 378 c 256
 566 378 617 375 617 328 c 256
 617 307.33967742 612.119442629 303.137653918 571 294 c 256
 539.181818182 284.909090909 494.716363636 279.968484848 306 259 c 257
 320 202 344 157 378 122 c 256
 399 101 463 87 509 87 c 256
 617 87 688 100 766 178 c 256
 786 198 802 208 812 208 c 256
 826 208 828 184 828 152 c 256
 828 142 816 126 798 100 c 257
 752 40 642 -14 566 -14 c 256
 492 -14 400 -14 346 16 c 256
 292 45 244 132 218 250 c 257
EndSplineSet
Validated: 1
EndChar

StartChar: F
Encoding: 70 70 47
GlifName: F_
Width: 668
VWidth: 0
Flags: W
HStem: -12 21G<149 160> 398.001 94<236.947 492.253> 416.001 66<339.599 581.894> 796 86<253.564 574.788> 915 20G<102.5 117>
VStem: 96.3369 85.9671<52.016 753.228>
AnchorPoint: "bottom" 160 31 basemark 0
AnchorPoint: "top" 346 937 basemark 0
LayerCount: 2
Fore
SplineSet
198.79 39.1992 m 256
 198.79 10.4177343936 174.265465766 -12 154 -12 c 256
 144 -12 136 -4 128 16 c 257
 112 70 110 92 100 172 c 257
 95.9405 191.486 94.8477 227.617 94.8477 277.048 c 256
 94.8477 334.739 96.3369 410.548 96.3369 499.155 c 256
 96.3369 618.796775 96.3369 618.796775 77 817 c 256
 73 851 75 875 69 889 c 256
 69 891 67 895 67 897 c 256x9c
 67 915 94 935 111 935 c 256
 133.688414474 935 152.462311524 909.984113297 156 864 c 257
 159.256009332 864.227163442 441.627513933 880 482 880 c 257
 500 882 520 882 542 882 c 256
 568 882 584 878 594 868 c 257
 608 848 616 834 616 824 c 256
 616 814 596 788 576 788 c 256
 550 788 534 796 504 796 c 256
 500.615727552 796 388.829959751 794.637190158 166 779 c 257
 172 755 172 652 178 596 c 256
 181.465 565.684 182.304 534.617 182.304 502.963 c 256
 182.304 473.248 181.564 443.015 181.564 412.398 c 256
 181.564 400.322 181.68 388.187 182 376 c 258
 182 220 l 258
 182 172 198 138 198 64 c 256
 198 53.333 198.79 45.8271 198.79 39.1992 c 256
337.999 398.001 m 256xdc
 254.996652274 398.001 211.999 409.07896605 211.999 462.001 c 256
 211.999 476.001 221.999 492.001 235.999 492.001 c 256xdc
 361.999 492.001 529.999 486.001 559.999 482.001 c 256
 577.999 480.001 585.999 468.001 585.999 454.001 c 256
 585.999 448.001 583.999 442.001 581.999 436.001 c 256
 579.999 430.001 561.999 426.001 529.999 416.001 c 256xbc
 497.999 406.001 475.999 400.001 445.999 400.001 c 256
 413.999 400.001 371.999 398.001 337.999 398.001 c 256xdc
EndSplineSet
Validated: 1
EndChar

StartChar: G
Encoding: 71 71 48
GlifName: G_
Width: 700
VWidth: 0
Flags: W
HStem: -214 78<420.044 503.949> 16 100<194.771 347.243> 806 88<367.525 460.998>
VStem: 58 80<188.485 459.019> 480 76<674.175 787.635>
AnchorPoint: "bottom" 443 -181 basemark 0
AnchorPoint: "top" 382 935 basemark 0
LayerCount: 2
Fore
SplineSet
430 632 m 256
 430 655.766156167 480 675.913843833 480 730 c 256
 480 764 456 806 424 806 c 256
 370 806 274 710 254 672 c 256
 232 630 200 586 184 536 c 257
 170 484 138 430 138 280 c 256
 138 226 166 160 196 136 c 256
 212 124 234 116 266 116 c 256
 358 116 408 164 464 214 c 256
 521 264 564 323 580 398 c 256
 584 416 598 440 616 440 c 256
 644 440 656 418 656 376 c 256
 656 362 654 344 648 322 c 256
 642 300 626 180 622 156 c 256
 612 104 608 -44 606 -68 c 257
 596 -146 558 -186 494 -206 c 257
 482 -212 466 -214 454 -214 c 256
 422 -214 386 -196 350 -162 c 256
 340 -152 334 -132 334 -112 c 256
 334 -86 340 -76 358 -76 c 256
 396.96165232 -76 427.005014346 -136 460 -136 c 256
 484 -136 512 -110 518 -100 c 256
 520 -96 524 -24 530 62 c 256
 530 74 534 140 538 172 c 257
 478 104 348 16 260 16 c 256
 164 16 78 106 64 194 c 256
 60 216 58 244 58 278 c 256
 58 444 78 492 104 558 c 257
 122 610 184 726 244 784 c 256
 292 832 312 846 332 866 c 256
 350 884 376 894 408 894 c 256
 470 894 514 870 542 816 c 257
 552 800 556 772 556 730 c 256
 556 676 502 624 448 624 c 256
 436 624 430 626 430 632 c 256
EndSplineSet
Validated: 1
EndChar

StartChar: Gamma
Encoding: 915 915 49
GlifName: G_amma
Width: 606
VWidth: 0
Flags: W
HStem: 820 91<163.64 448.366 452.134 553.96> 822 78<202.312 537.682>
VStem: 81.1602 81.8398<574.042 820> 97 80<115.77 457.625>
AnchorPoint: "top" 332 947 basemark 0
AnchorPoint: "bottom" 165 41 basemark 0
LayerCount: 2
Fore
SplineSet
80.5918 734 m 256
 80.5918 751.345902324 81.1602 770.780436522 81.1602 771.152 c 256
 81.1602 792.352 77.1319 810.843 77.1319 828.821 c 256
 77.1319 845.091 80.4307 860.94 93.001 878 c 256
 114 904 168 911 201 911 c 256xa0
 289.126333874 911 201.540332793 900 451 900 c 256
 475 900 511 908 539 908 c 256
 568.777894621 908 584.094 898.894460524 584.094 876.867 c 256
 584.094 855.375 567.25 833.5 555 830 c 256
 533 823 499 822 464 822 c 256x60
 211 822 211 822 163 820 c 257xa0
 167 708 171 596 171 486 c 256
 171 482.697031638 177.931245274 201.94690572 185 156 c 257
 188.504 126.213 210.43 101.031 210.43 72.3848 c 256
 210.43 48.9378440766 189.001135897 14.4002271794 167 10 c 256
 165 10 164 9 162 9 c 256
 149 9 138 25 129 36 c 256
 117 50 117 72 113 90 c 256
 99 158 103 232 97 306 c 256x90
 92.148748727 356.938138367 82.4394 401.080802922 82.4394 458 c 256
 82.4394 490 85 522 85 554 c 256
 85 614 80.5918 674 80.5918 734 c 256
EndSplineSet
Validated: 1
EndChar

StartChar: H
Encoding: 72 72 54
GlifName: H_
Width: 740
VWidth: 0
Flags: W
HStem: -21.999 21G<162 180> 340.001 84.001<164.25 565.47> 901.999 20G<582.997 609.497>
VStem: 76 82.577<84.1964 350.001 441.132 694.918 698.033 863.812> 76 74<779.825 863.812> 555.997 93.533<790.816 854.002 854.746 891.868> 564 83.453<452.465 852.443> 577.091 80.909<31.2939 357.001>
AnchorPoint: "bottom" 390 31 basemark 0
AnchorPoint: "top" 360 921 basemark 0
LayerCount: 2
Fore
SplineSet
564.32 789.922 m 256
 564.32 822.697724447 555.997 888.994775012 555.997 889.999 c 256
 555.997 901.370592934 559.771276495 921.999 589.997 921.999 c 256
 628.997 921.999 634.997 884.999 637.997 853.999 c 256
 645.414 793.184 649.53 719.166 649.53 631.947 c 256xe4
 649.53 581.222714144 647.453 515.220242925 647.453 514.041 c 256xe2
 647.453 484.507 650.38 461.708 651.998 452 c 257
 667.998 450 695.998 444 695.998 420 c 256
 695.998 396 687.998 388 657.998 374 c 257
 658.665 371.333 658.888 368.444 658.888 364.814 c 256
 658.888 357.556 658 347.333 658 330 c 256
 658 304 660 278 660 250 c 258
 660 200 l 258
 660 144 668 40 682 28 c 256
 696 16 704 -2 704 -12 c 256
 704 -32.1144362349 679.326418595 -42 668 -42 c 256
 660 -42 656 -38 648 -34 c 257
 618 -14 604 12 594 34 c 257
 579.487 71.0889 575.376 158.886 575.376 224.007 c 256
 575.376 236.259134815 577.091 311.816864214 577.091 312.704 c 256
 577.091 332.842 576.236 345.876 575 357.001 c 257
 509 347.001 444 340.001 376 340.001 c 256
 258 340.001 210 346.001 162 350.001 c 257
 162 302.001 162 176.001 166 120.001 c 256
 168 98.001 174 88.001 182 80.001 c 256
 192 70.001 194 68.001 194 32.001 c 256
 194 0.00100231 190 -21.999 170 -21.999 c 256
 154 -21.999 131 -10.999 124 -3.999 c 257
 100 28.001 86 96.001 82 154.001 c 256
 78 200.001 80 276.001 78 330.001 c 257
 76 356.001 76 442.001 76 596.001 c 258
 76 818.001 l 258xf1
 76 846.001 76 868.001 116 868.001 c 256
 140.4 868.001 140.4 868.001 150 844.001 c 256xe8
 155.856 829.36 159.569 808.288 159.569 778.432 c 256
 159.569 777.619426572 157.423 731.283687438 157.423 697.203 c 256
 157.423 648.75 158.577 581.585 158.577 513.799 c 256
 158.577 488.987 158.423 464.093 158 440.002 c 257
 159.004310709 437.993378582 189.535504522 424.002 382 424.002 c 256
 462 424.002 493 432.002 569 440.002 c 257
 567 478.002 564 508.002 564 540.002 c 258
 564 732.002 l 258
 564 760.802 564.32 777.122 564.32 789.922 c 256
EndSplineSet
Validated: 1
EndChar

StartChar: Hbar
Encoding: 294 294 55
GlifName: H_bar
Width: 772
VWidth: 0
Flags: W
HStem: -24.0362 21G<164.457 173.86> 545.002 88.997<187.999 405.72> 577.001 93.001<628 721.766> 577.001 84.001<628.438 721.766> 887.999 20G<95.9595 112.5>
VStem: 91.1113 98.8887<634.073 888.144> 103.862 86.139<36.34 307 633.999 883.258> 512.862 91.138<674.724 829.999 830 869.18> 591.001 91.284<63.9777 264.656>
AnchorPoint: "top" 360 921 basemark 0
AnchorPoint: "bottom" 390 31 basemark 0
LayerCount: 2
Fore
SplineSet
19.5166 606.022 m 256
 19.5166 608.599694464 20.3266759518 632.999 51 632.999 c 256
 57 632.999 64 631.999 70 631.999 c 258
 106 631.999 l 257
 105 642.999 103 654.999 103 665.999 c 258
 103 703.999 l 258
 103 749.999 95 795.999 95 842.999 c 256
 95 855.485 91.1113 870.446 91.1113 883.889 c 256
 91.1113 893.054 92.9189 901.513 99 907.999 c 257
 126 907.999 158 904.999 175 880.999 c 257
 194 851.999 188 812.999 190 777.999 c 256
 190.792 766.378 191.096 754.199 191.096 741.684 c 256
 191.096 706.811 188.735 669.321 187.999 633.999 c 257
 263.891524657 633.999 352.656786408 654.93188932 533.999 663.999 c 257
 521.999 780.999 512.999 813.999 512.999 829.999 c 256
 513 833.857 512.862 839.277 512.862 845.411 c 256
 512.862 867.9 514.714 900.002 532 900.002 c 256
 591.47826087 900.002 607.210144928 809.543666667 616 759.002 c 257
 619 724.002 619 700.002 623 670.002 c 257
 652 670.002 l 258xad
 714.595174273 670.002 749.307 668.324873505 749.307 629.442 c 256
 749.307 604.740721588 730.737938365 577.001 707 577.001 c 256
 699 577.001 690 579.001 682 579.001 c 256
 666 580.001 646 581.001 628 581.001 c 257
 628.261908492 576.7231613 644.898113677 350.663261098 675 155.001 c 256
 677.236 140.467 682.285 117.183 682.285 95.6299 c 256
 682.285 79.8731872543 680.516553115 46 646.001 46 c 256
 618.001 46 601.001 78 591.001 102 c 256
 583.001 121 585.001 142 583.001 163 c 256
 575.001 234 570.001 309 562.001 380 c 257
 544.001 374 521.001 372 504.001 366 c 256
 490.001 362 479.001 357 466.001 353 c 256
 361.151211679 322.559738874 294.594583245 326.675954661 203.001 309 c 256
 200.001 308 196.001 307 192.001 307 c 257
 192.001 290 l 258
 192.001 259 190.001 228 190.001 199 c 256
 190.001 90.6326627917 205.332 59.0967190099 205.332 35.2011 c 256
 205.332 8.30589496013 190.715893189 -24.0362 173.633 -24.0362 c 256
 155.28 -24.0362 140.76 -4.56545 131 13 c 256
 105 60 112 121 108 174 c 256
 104.733 219.267 103.862 264.533 103.862 309.8 c 256xaa80
 103.862 361.533 105 413.267 105 465 c 258
 105 544 l 257
 33.3356736365 555.315419952 19.5166 596.014448796 19.5166 606.022 c 256
554 465.002 m 257
 553.874389297 466.13249633 541 576.108046676 541 578.002 c 257
 416.075023777 567.591585315 352.962710106 561.664523345 302 556.002 c 256
 257 551.002 225 546.002 187 545.002 c 257xc8
 186 500.002 184 458.002 184 412.002 c 256
 184 407.002 184 403.002 185 399.002 c 257
 192 400.002 199 401.002 205 402.002 c 256
 249 407.002 291 410.002 340 417.002 c 256
 397 426.002 444 438.002 496 452.002 c 256
 513 456.002 535 463.002 554 465.002 c 257
EndSplineSet
Validated: 1
EndChar

StartChar: I
Encoding: 73 73 57
GlifName: I_
Width: 572
VWidth: 0
Flags: W
HStem: 1 100<382.641 505.579> 4 83<166.717 473.867> 17 108<92.0534 182.816> 778 57<52.6875 151.353> 796 81<333.423 467.85> 869 20G<271 285.5>
VStem: 251 84<177.671 784>
AnchorPoint: "bottom" 300 42 basemark 0
AnchorPoint: "top" 286 921 basemark 0
LayerCount: 2
Fore
SplineSet
278 115 m 257
 256.26446811 125.867765945 255 160.861239367 255 198 c 256
 255 255 251 329 251 408 c 256x0a
 251 476 255 597 255 666 c 256
 255 737 253 769 252 784 c 257
 210 776 165 773 152 773 c 256
 139 773 74 774 65 778 c 256
 60 781 51 789 51 820 c 256
 51 828 55 834 63 835 c 256
 116 844 211 856 248 866 c 257
 250.849315068 874.547945205 255.666666667 889 280 889 c 256x16
 291 889 310 885 318 876 c 257
 320 875 l 257
 346 876 374 877 396 877 c 256
 447.41051552 877 479 872.629374107 479 849 c 256
 479 832.420373024 471.847559603 796 409 796 c 256
 396 796 380 797 364 797 c 256
 353 797 342 796 333 795 c 257
 336 769 337 736 337 678 c 256
 337 558 335 449 335 324 c 256
 335 288 341 211 341 176 c 256
 341 171 340 159 337 156 c 257
 331.443992464 153.221996232 294.932858345 115 278 115 c 257
500 101 m 256x82
 517 101 531 88 531 62 c 256
 531 47 491 1 475 1 c 257x82
 451 3 416 4 381 4 c 256x42
 304 4 210 9 155 17 c 256
 105 24 83 32 83 68 c 256
 83 103 98 125 126 125 c 256x22
 139 125 150 121 156 114 c 257
 179 96 297 87 327 87 c 256x42
 395 87 438 101 500 101 c 256x82
EndSplineSet
Validated: 1
EndChar

StartChar: IJ
Encoding: 306 306 58
GlifName: I_J_
Width: 590
VWidth: 0
Flags: W
HStem: -7 90.999<242.721 350.341> 356.999 89<154.286 225.976> 885.999 20G<115.5 122.5 444 483.5>
VStem: 62 78<452.74 850.908> 76 85.014<830.126 895.399> 439 82<302.662 653.862> 446 80<551.28 655.999>
AnchorPoint: "bottom" 300 32 basemark 0
AnchorPoint: "top" 295 954 basemark 0
LayerCount: 2
Fore
SplineSet
161 829.999 m 256
 161 760.642831978 140 747.394850561 140 617.999 c 256
 140 590.999 141 460.999 166 448.999 c 256
 170 446.999 175 445.999 180 445.999 c 256
 205 445.999 235 472.999 251 491.999 c 257
 298 541.999 364 678.999 387 745.999 c 256
 400 785.999 423 918.999 465 918.999 c 256
 502 918.999 513 897.999 520 838.999 c 257
 524 813.999 526 783.999 526 756.999 c 256xf2
 526 752.413228527 524.016909655 435.608912756 503 298.999 c 256
 496 252 494 197 479 154 c 256
 460 99 411 29 359 4 c 256
 340 -5 324 -7 299 -7 c 256
 272 -7 204 11 184 28 c 256
 164 44 143 63 137 89 c 256
 136.311 95.209 135.145 103.798 135.145 111.482 c 256
 135.145 145.241564534 160.575920307 151.999 172 151.999 c 256
 209.402036324 151.999 247.571002892 83.999 284 83.999 c 256
 324 83.999 362 107.999 385 138.999 c 256
 410 172.999 414 228.999 419 270.999 c 256
 419.506394267 274.825090021 446 482.214641766 446 655.999 c 257
 438 642.999 415 606.999 404 587.999 c 256
 379 543.999 331 481.999 305 441.999 c 256
 287 413.999 232 366.999 197 358.999 c 256
 191 357.999 186 356.999 180 356.999 c 256
 137 356.999 96 392.999 82 419.999 c 256
 65 450.999 62 583.999 62 619.999 c 256xf2
 62 692.401115895 74.0979472551 823.532020667 76 829.999 c 256
 83 856.999 82 892.999 107 903.999 c 256
 111 905.999 114 905.999 117 905.999 c 256
 128 905.999 136 897.999 147 889.999 c 256
 160.235 880.293 161.014 858.909 161.014 838.212 c 256xe8
 161.014 835.452 161 832.705 161 829.999 c 256
EndSplineSet
Validated: 1
Ligature2: "ligaDutch subtable" I J
EndChar

StartChar: Iogonek
Encoding: 302 302 66
GlifName: I_ogonek
Width: 626
VWidth: 0
Flags: W
HStem: -271 82<471.083 558.058> -5 85<179.705 414.387> 11 99<104.693 224.47> 802 58<64.9558 173.439> 820 83<355 478.523> 897 20G<296.5 314>
VStem: 268.556 78.444<195.652 633.035> 279 78<123.34 322.601 450.635 809.59> 377 84<-173.11 -46.3252>
AnchorPoint: "bottom" 320 -218 basemark 0
AnchorPoint: "top" 306 951 basemark 0
LayerCount: 2
Fore
SplineSet
174 796 m 256
 65.9377412548 796 64 800.725934733 64 839 c 256
 64 848 70 858 79 860 c 256x9180
 117 865 231 880 269 892 c 257
 273 907 286 917 307 917 c 256x9580
 321 917 334 913 344 901 c 257
 371 902 397 903 419 903 c 256
 497.132454516 903 512.217 892.064108639 512.217 876.649 c 256
 512.217 870.14 509.344 862.058 504 852 c 256
 498 838 490 831 479 827 c 256
 470 824 385 823 355 820 c 257
 357 806 357 738 357 692 c 256x8980
 357 592 349 512 349 392 c 256
 349 369 347 348 347 324 c 256x8a80
 347 295 361 212 361 170 c 256
 361 157 359 147 355 145 c 256
 342 138 326 101 305 101 c 256
 302 101 300 103 296 105 c 257
 280.305 119.044 278.939 141.276 278.939 172.262 c 256
 278.939 178.785 279 185.696 279 193 c 256x8980
 279 267.332380697 268.556 374.423436375 268.556 376.259 c 256x8a80
 268.556 386.555 269 398.332 269 411 c 256
 269 476 279 603 279 679 c 256
 279 746 277 802 275 810 c 257
 262 806 186 796 174 796 c 256
502 -271 m 256
 462.461937194 -271 377 -228.114853748 377 -139 c 256
 377 -94 398 -35 417 -5 c 257xc080
 337 -5 255 0 176 11 c 257
 125 16 96 28 96 52 c 256
 96 90 112 110 146 110 c 256xa080
 161 110 174 107 182 99 c 256
 195 86 314 80 345 80 c 256xc080
 421 80 465 92 535 92 c 256
 556 92 573 81 573 52 c 256
 573 35 537 18 514 -3 c 256
 480 -35 461 -88 461 -128 c 256
 461 -185.407008736 500.989123478 -189 511 -189 c 256
 524 -189 550 -179 569 -179 c 256
 583 -179 596 -185 596 -200 c 256
 596 -229.306525769 538.84957374 -271 502 -271 c 256
EndSplineSet
Validated: 1
EndChar

StartChar: J
Encoding: 74 74 71
GlifName: J_
Width: 686
VWidth: 0
Flags: W
HStem: 6 78<234.091 436.725> 886 20G<586.999 609.999>
VStem: 531.68 82.319<268.422 514 514.014 796.578>
AnchorPoint: "bottom" 332 41 basemark 0
AnchorPoint: "top" 364 899 basemark 0
LayerCount: 2
Fore
SplineSet
651.999 874 m 256
 651.999 841.280167094 632.678415601 843.473571607 617.999 682 c 256
 617.999 674 613.999 606 613.999 478 c 256
 613.999 248 613.999 198 595.999 154 c 256
 556.999 54 433.999 6 333.999 6 c 256
 243.999 6 215.999 14 175.999 42 c 257
 114 83 52 130 52 212 c 256
 52 273.713379002 93.2344936316 276 94 276 c 256
 100 276 102 270 108 256 c 256
 150 154 217 84 334 84 c 256
 392 84 440 98 478 134 c 256
 508 162 522 186 526 206 c 256
 532 244 532 348 532 514 c 257
 532 514 531.68 532.56 531.68 559.567 c 256
 531.68 600.079 532.399 659.599 535.999 704 c 257
 537.999 742 541.999 780 543.999 798 c 257
 485.999 780 449.999 782 377.999 772 c 256
 367.999 770 323.999 766 297.999 764 c 256
 253.999 760 219.999 754 195.999 752 c 257
 185.999 750 177.999 750 165.999 750 c 256
 143.999 750 127.999 766 127.999 788 c 256
 127.999 812 151.999 832 161.999 838 c 256
 188.883950096 854.130970058 293.147621462 841.029724292 397.999 862 c 256
 471.999 876 513.999 884 525.999 888 c 257
 537.999 894 579.999 906 593.999 906 c 256
 625.999 906 651.999 892 651.999 874 c 256
EndSplineSet
Validated: 1
EndChar

StartChar: K
Encoding: 75 75 73
GlifName: K_
Width: 682
VWidth: 0
Flags: W
HStem: 10.001 102<533.223 622.484> 892.002 20G<120 137>
VStem: 64 82<455.957 886.878> 70 90<147.471 320.001> 81 65<638.899 905.252>
AnchorPoint: "bottom" 340 41 basemark 0
AnchorPoint: "top" 330 927 basemark 0
LayerCount: 2
Fore
SplineSet
160 320.001 m 257
 160 170.532543715 198 115.548403654 198 56.001 c 256
 198 30.001 192 20.001 162 20.001 c 256
 142 20.001 122 32.001 112 54.001 c 256
 80 126.001 74 248.001 70 344.001 c 256xd0
 64.667 453.334 63.7783 481.334 63.7783 539.111 c 256
 63.7783 568 64 604.333 64 662 c 256xe0
 64 712 76 829 81 870 c 256xc8
 85 902 108 912.002 132 912.002 c 256
 142 912.002 146 896.002 146 864.002 c 258
 146 786.002 l 257xe0
 143.676 702.346 141.352 665.489 141.352 622.45 c 256
 141.352 565.805 141.352 565.805 152 454.001 c 257
 176 478.001 190 498.001 208 518.001 c 256
 260 572.001 274 588.001 284 602.001 c 256
 345.810909901 681.472169872 389.514090099 714.804830128 434 772.001 c 256
 474 822.001 486 844.001 500 864.001 c 256
 507 874.001 514 880.001 534 880.001 c 256
 548 880.001 580 876.001 580 856.001 c 256
 580 827.001 519 750.001 506 730.001 c 257
 490 708.001 454 660.001 372 578.001 c 256
 252 458.001 248 438.001 216 398.001 c 257
 220.279064357 393.470225975 274.07079646 336.514274336 450 192.001 c 257
 562.167895677 94.7888237462 664 92.0849575004 664 52.001 c 256
 664 22.001 646 10.001 608 10.001 c 256
 554 10.001 512 32.001 468 60.001 c 256
 392 109.001 322 164.001 258 228.001 c 256
 220 266.001 200 286.001 160 320.001 c 257
EndSplineSet
Validated: 1
EndChar

StartChar: L
Encoding: 76 76 75
GlifName: L_
Width: 622
VWidth: 0
Flags: W
HStem: -20 21G<132 171> 50 72<392.5 578.279>
VStem: 76 86<183.975 879.962> 80 96<85.7607 428.573>
AnchorPoint: "bottom" 320 51 basemark 0
AnchorPoint: "top" 304 911 basemark 0
LayerCount: 2
Fore
SplineSet
76 828 m 256
 76 869.510090519 109.676946074 894 118 894 c 256
 150 894 162 880 162 852 c 256xe0
 162 822 160 814 160 670 c 256
 160 588 158 506 158 430 c 256
 158 377.996992395 176 209.373377976 176 84 c 257
 311.404090814 94.4156992933 378.515567752 122 466 122 c 256
 544 122 584 114 584 94 c 256
 584 66 562 48 548 48 c 256
 542 48 538 50 534 50 c 256
 432.810349314 50 232.5039364 -20 142 -20 c 256
 122 -20 98 6 88 48 c 256
 80.8574 78 79.8369 135.551 79.8369 201.702 c 256
 79.8369 228.163 80 256 80 284 c 258
 80 660 l 258xd0
 80 690.013809456 76 826.319523877 76 828 c 256
EndSplineSet
Validated: 1
EndChar

StartChar: Lambda
Encoding: 923 923 77
GlifName: L_ambda
Width: 695
VWidth: 0
Flags: W
HStem: -1 21G<72 96> 897.001 20G<316.501 326>
LayerCount: 2
Fore
SplineSet
84 -1 m 257
 54.1179556321 -1 35.6807 39.063387659 35.6807 68.6387 c 256
 35.6807 107.112 61.1524 147.449 72.001 185.001 c 256
 93.001 258.001 119.001 325.001 142.001 399.001 c 256
 180.001 526.001 210.001 658.001 247.001 786.001 c 256
 255.001 812.001 260.001 835.001 272.001 861.001 c 256
 285.001 891.001 307.001 917.001 326.001 917.001 c 256
 339 917 362 913.998 373 905.998 c 256
 396 890.998 409 863.998 424 840.998 c 256
 450 803.998 461 761.998 473 716.998 c 256
 497 620.998 518 522.998 544 415.998 c 256
 569 315.998 591 187.998 618 144.998 c 256
 627 129.998 636 107.998 647 100.998 c 256
 660.328 92.1133 673.656 76.123 673.656 60.042 c 256
 673.656 53.5580141381 671.984303296 8 625 8 c 256
 578 8 544 79 529 117 c 257
 437.540157317 386.153251325 439.18737702 657.536653052 341 813 c 257
 324 747 307 694 302 668 c 256
 277.72498151 554.71658038 213.008249657 354.032364039 200 303 c 256
 189 258 176 213 161 168 c 256
 148 128 133 87 121 49 c 256
 114 25 108 0 84 -1 c 257
EndSplineSet
Validated: 1
EndChar

StartChar: Lslash
Encoding: 321 321 80
GlifName: L_slash
Width: 672
VWidth: 0
Flags: W
HStem: 0 78<249.732 617.858> 2 86<365.583 634.625>
VStem: 164 81<78.483 294 445 842.926>
AnchorPoint: "top" 332 906 basemark 0
AnchorPoint: "bottom" 390 31 basemark 0
LayerCount: 2
Fore
SplineSet
193.001 902 m 256
 241.608340136 902 252.501 850.381734478 252.501 842.996 c 256
 252.501 841.501 252.334 840.168 252.001 839 c 256
 246.189055988 816.582501668 244.111 711.695348235 244.111 710.407 c 256
 244.111 686.333 245 651 245 589 c 256
 245 518 246 503 247 445 c 257
 288 473 310 487 407 549 c 256
 427 562 451 583 486 583 c 256
 510 583 522 578 522 565 c 256
 522 526 451 475 421 457 c 256
 384 435 327 395 277 367 c 256
 268 362 258 356 249 350 c 257
 249 321 l 257
 247 304 245 279 245 243 c 256
 245 137 249 151 249 78 c 257
 258 77 269 77 281 77 c 256
 307 77 341 78 393 78 c 256xa0
 506 78 576 81 603 87 c 256
 610 88 615 88 618 88 c 256
 622 88 625 88 627 87 c 256
 634 83 637 54 637 36 c 256
 637 5 626 2 603 2 c 258
 587 2 l 258x60
 573 2 560 4 544 4 c 256
 432 4 393 2 297 0 c 257
 263 0 l 258
 215 0 175 4 169 54 c 256
 164.429 96.2861 163.449 127.47 163.449 158.187 c 256
 163.449 181.225 164 204 164 231 c 258
 164 294 l 257
 77.2 232 77.2 232 76 229 c 256
 72 222 65 218 56 218 c 256xa0
 25 218 15.001 248 15.001 268 c 256
 15.001 292 75.001 329 94.001 340 c 257
 115.001 354 138.001 370 164.001 389 c 257
 163.001 552 159.001 634 159.001 834 c 256
 159.001 879 162.001 902 193.001 902 c 256
EndSplineSet
Validated: 1
EndChar

StartChar: M
Encoding: 77 77 81
GlifName: M_
Width: 882
VWidth: 0
Flags: W
HStem: -10.001 21G<132.001 156.001> 275.999 94.001<388.953 476.404> 886 20G<84 106>
VStem: 56 104<788.974 879.806> 78.001 76<320.898 509.999 510 640.237> 700 88.32<668.102 853.968> 716.001 72<269.414 555.999> 732.001 72<40.2447 361.519>
AnchorPoint: "bottom" 470 41 basemark 0
AnchorPoint: "top" 436 909 basemark 0
LayerCount: 2
Fore
SplineSet
732.001 125.999 m 256xe1
 732.001 214.699164369 716.001 259.715502297 716.001 451.999 c 258
 716.001 555.999 l 257
 708.001 541.999 690.001 501.999 672.001 475.999 c 257
 658.001 453.999 636.001 433.999 596.001 387.999 c 256
 566.001 353.999 508.001 313.999 462.001 287.999 c 257
 450.001 279.999 436.001 275.999 420.001 275.999 c 256
 392.001 275.999 370.001 285.999 352.001 303.999 c 257
 322.001 337.999 320.001 327.999 292.001 365.999 c 256
 262.001 405.999 250.001 443.999 218.001 497.999 c 256
 208.001 513.999 180.001 577.999 170.001 603.999 c 256
 164.001 617.999 160.001 629.999 154.001 643.999 c 257
 154.001 559.999 l 258
 154.001 425.999 156.001 277.999 166.001 153.999 c 256
 170.001 111.999 170.001 83.999 182.001 73.999 c 257
 194.001 65.999 200.001 57.999 200.001 45.999 c 256
 200.001 21.999 168.001 -10.001 144.001 -10.001 c 256
 120.001 -10.001 116.001 11.999 108.001 33.999 c 256
 84.4514537259 92.8728656852 77.501 206.670606393 77.501 377.499 c 256
 77.501 424.999 78.001 468.999 78.001 509.999 c 256
 78 520 76 604 76 612 c 256
 72 718 56 762 56 816 c 256
 56 874 68 906 100 906 c 256
 122.0375 906 125.866666667 906 160 842 c 257
 174 808 196 756 204 732 c 256
 226 660 268 594 296 536 c 256
 312 503 381 370 426 370 c 256
 428 370 436 372 438 372 c 256
 487 379 589 491 614 528 c 256
 654 588 696 700 700 760 c 257
 702 812 698 864 732 864 c 256
 783.2 864 788.32 825.6 788.32 771.327 c 256xf4
 788.32 757.759 788 743.199 788 727.999 c 258
 788 645.999 l 258
 788 609.999 787.111 582.888 787.111 552.813 c 256
 787.111 465.283564438 813.475815472 82.7256607537 814.001 77.999 c 256
 816.001 51.999 848.001 -4.001 848.001 -18.001 c 256
 848.001 -34.001 814.001 -52.001 796.001 -52.001 c 256
 750.001 -52.001 734.001 7.999 732.001 125.999 c 256xe1
EndSplineSet
Validated: 1
EndChar

StartChar: N
Encoding: 78 78 83
GlifName: N_
Width: 772
VWidth: 0
Flags: W
HStem: -12 106<579.179 642>
VStem: 63.9971 81.9999<368.323 654.696> 67.9971 99.9999<793.783 880.188> 581.998 88<587.773 832.782> 614.272 80.472<148.841 534.562> 625.997 78.003<94.2196 276.844>
AnchorPoint: "bottom" 400 41 basemark 0
AnchorPoint: "top" 396 913 basemark 0
LayerCount: 2
Fore
SplineSet
691.024 274.709 m 256
 691.024 217.069471533 704 215.346977603 704 132 c 256
 704 76 698 46 688 14 c 257
 678 -12 648 -12 636 -12 c 256
 550 -12 422 146 364 262 c 256
 360 270 292 398 242 468 c 257x84
 232 478 167.997 612 149.997 656 c 257
 147.997 628 145.997 612 145.997 548 c 256
 145.997 400 147.997 478 147.997 340 c 257
 152.236757901 89.8542838173 197.997 93.0975572869 197.997 48 c 256
 197.997 20 169.997 -6 141.997 -6 c 256
 121.997 -6 107.997 2 101.997 22 c 257
 95.9971 60 93.9971 94 89.9971 122 c 256
 87.9971 132 71.9971 312 69.9971 322 c 256
 65.9971 354 63.9971 454 63.9971 616 c 256xc4
 63.9971 875.433722812 72.1138048469 884.116704847 79.9971 892 c 257
 87.9971 898 95.9971 900 105.997 900 c 256
 131.997 900 153.997 880 167.997 842 c 256
 167.997 840 185.997 798 225.997 716 c 256
 255.997 658 261.997 614 313.997 520 c 256
 353.997 448 399.997 392 429.997 318 c 256
 451.997 266 583.997 94 607.997 94 c 256
 619.997 94 625.997 96 625.997 148 c 256xa4
 625.997 172.808361885 611.979 193.82201582 611.979 280.892 c 256
 611.979 315.583 614.272 346.231 614.272 369.6 c 256x88
 614.272 373.773608087 600.028826228 738.297190823 585.998 786.002 c 256
 583.998 794.002 581.998 798.002 581.998 804.002 c 256
 581.998 830.002 593.998 854.002 613.998 878.002 c 257
 625.998 890.002 645.998 898.002 673.998 898.002 c 256
 706.331333333 898.002 713.998 898.002 713.998 878.002 c 256
 713.998 841.08292006 669.998 821.360473879 669.998 806.002 c 256x90
 669.998 752.843778008 682.888 566.939247826 682.888 564.521 c 256
 682.888 553.113 682 544.669 682 538.002 c 256
 683.920819251 514.31189591 694.744 347.313449385 694.744 341.798 c 256x88
 694.744 316.253 691.024 299.864 691.024 274.709 c 256
EndSplineSet
Validated: 1
EndChar

StartChar: O
Encoding: 79 79 88
GlifName: O_
Width: 764
VWidth: 0
Flags: W
HStem: -12 88.001<273.974 435.594> 790 102<172 217.818> 822 82<363.572 531.124>
VStem: 56 83.803<269.003 570> 626 76<300.182 654.173>
AnchorPoint: "bottom" 350 41 basemark 0
AnchorPoint: "top" 388 931 basemark 0
LayerCount: 2
Fore
SplineSet
218 780 m 257xd8
 214 782 200 790 196 790 c 256
 186 790 176 738 176 724 c 257
 176 724 208 770 218 780 c 257xd8
626 420 m 256
 626 524 624 562 616 598 c 256
 596 694 578 822 460 822 c 256xb8
 422 822 392 814 370 804 c 257
 309 773 215 658 186 596 c 257
 176 578 166 572 156 572 c 257
 151 559 140 463 140 450 c 256
 140 428.667 139.803 411.087 139.803 395.745 c 256
 139.803 358.072858319 139.803 280.7556 198 176.001 c 257
 246 104.001 290 76.001 366 76.001 c 256
 396 76.001 440 96.001 456 106.001 c 257
 514 148.001 542 178.001 564 214.001 c 256
 596 268 626 340 626 420 c 256
182 892 m 256xd8
 206 892 266 856 276 842 c 257
 328 880 376 904 452 904 c 256xb8
 506 904 546 892 578 858 c 256
 624 808 624 790 656 724 c 256
 686 664 702 570 702 444 c 256
 702 366 694 310 682 280 c 256
 559.396433689 -5.05329167325 354.421402492 -12 350 -12 c 256
 240 -12 165 51 118 144 c 257
 88 198 90 206 80 258 c 256
 74 290 56 322 56 398 c 256
 56 536 74 626 84 676 c 257
 100 746 92 804 128 856 c 256
 144 880 162 892 182 892 c 256xd8
EndSplineSet
Validated: 1
EndChar

StartChar: OE
Encoding: 338 338 89
GlifName: O_E_
Width: 1087
VWidth: 0
Flags: W
HStem: -4 105<275.474 409.897> 27 94<599.001 798.929> 70 93<854.368 1013.93> 420 90<631.662 710.326> 788 82<648.061 980.095> 825 81<290.459 438.328>
VStem: 68.001 84.998<322.495 628.542> 517.999 113.891<511.447 725.465> 533.999 97.891<257.64 420 510 680.875>
AnchorPoint: "bottom" 610 59 basemark 0
AnchorPoint: "top" 560 949 basemark 0
LayerCount: 2
Fore
SplineSet
612.001 27 m 256
 563.895884384 27 557.356304433 73.0391297278 551.001 126 c 257
 538.001 112 523.001 96 514.001 88 c 256
 468.001 43 450.001 38 430.001 27 c 256x53
 412.001 16 351.001 -4 338.001 -4 c 256
 253.001 -4 178.001 63 158.001 126 c 256
 145.001 166 126.001 186 117.001 213 c 256
 109.001 238 91.001 290 86.001 321 c 257
 77.001 353 75.001 378 73.001 400 c 256
 73.001 407 68.001 436 68.001 484 c 256
 68.001 508 77.001 558 84.001 605 c 256
 99.001 692 131.001 742 183.001 814 c 256
 190.001 825 210.001 850 255.001 880 c 256
 280.001 897 316.001 906 367.001 906 c 256
 423.001 906 462.001 897 484.001 880 c 256
 523.001 848 540.001 823 545.001 805 c 256
 546.001 803 547.001 799 549.001 795 c 257
 552.001 825 l 257x97
 556.001 852 568.001 871 585.001 879 c 257
 595.001 882 610.001 888 631.001 888 c 256
 640.001 888 644.001 886 653.001 880 c 256
 658.001 877 691.001 871 711.001 871 c 256
 730.001 871 928.001 870 948.001 870 c 256
 980.008 870 995.177 852.276 995.177 839.354 c 256
 995.177 794.816 931.249 788 873 788 c 256x1b
 843 788 812 790 786 790 c 256
 732 790 648 792 648 792 c 257
 648 787 631 695 631 668 c 256
 631.667 653.667 631.89 641.444 631.89 629.926 c 256
 631.89 606.889 631.001 586.666 631.001 558 c 256
 631.001 539 632.001 525 633.001 510 c 257
 657.001 511 697.001 517 711.001 517 c 256
 747.001 517 826.001 517 835.001 526 c 256
 842.001 533 871.001 537 892.001 537 c 256
 921.001 537 930.001 513 930.001 504 c 256
 930.001 481 903.001 461 894.001 459 c 256
 878.001 456 838.001 452 810.001 441 c 256
 765.001 424 682.001 420 630.001 420 c 257
 630.001 417.577934766 631.005348518 234.54409503 640.001 178 c 257
 648.001 141 658.001 121 676.001 121 c 256x5b
 700.103506315 121 981.119609052 157.847443621 984.001 159 c 256
 990.001 162 996.001 163 1003 163 c 256
 1020 163 1037 155 1040 142 c 256
 1042 137 1038 130 1031 119 c 256
 1011 87 1004 70 984.001 70 c 256x33
 979.001 70 928.001 67 927.001 67 c 256
 878.645833612 56.2544074692 613.002476814 27 612.001 27 c 256
355.999 825 m 256x97
 257.999 825 182.999 683 166.999 600 c 256
 161.999 569 152.999 484 152.999 430 c 256
 152.999 376 173.999 324 184.999 294 c 257
 191.999 272 191.999 259 206.999 229 c 257
 227.999 193 231.999 168 260.999 135 c 257
 276.999 115 312.999 101 344.999 101 c 256
 382.999 101 404.999 110 443.999 151 c 257
 472.999 178 488.999 200 495.999 214 c 256
 531.999 281 533.999 412 533.999 486 c 256x9680
 533.999 537 528.999 576 517.999 645 c 257
 517.999 683 490.999 744 468.999 774 c 257
 441.999 807 414.999 825 355.999 825 c 256x97
EndSplineSet
Validated: 1
EndChar

StartChar: Ohorn
Encoding: 416 416 95
GlifName: O_horn
Width: 738
VWidth: 0
Flags: W
HStem: -12 74.998<236.656 366.974> 763.001 74.999<260.692 440.489>
VStem: 50.2031 96.7949<493.069 661.867> 73 65.719<249.642 493> 558.275 68.437<308.46 614.653> 586 100.884<871.228 1054.74>
AnchorPoint: "bottom" 340 31 basemark 0
AnchorPoint: "top" 316 931 basemark 0
LayerCount: 2
Fore
SplineSet
408 22 m 256
 391.996108015 22 373.552911593 -12 305 -12 c 256
 260 -12 182 14 163 57 c 257
 159 69 149 82 141 88 c 256
 105.211154968 111.859230021 73 299.923920841 73 429 c 257xd8
 74 457 74 481 74 493 c 257
 56.625 493 50.2031 503.269 50.2031 532.869 c 256
 50.2031 596.532611559 61.446739028 604.914129309 67 666 c 257
 69 702 71 707 87 724 c 256
 96 735 107 749 110 754 c 256
 118 769 228 823 266 832 c 256
 285 836 311 838 336 838 c 256
 369 838 401 835 421 829 c 256
 449 820 528 782 550 763 c 257
 569.238761222 801.477522445 573.267782815 847.779638026 580 859 c 256
 583 865 586 903 586 946 c 256
 587 1012 588 1025 598 1046 c 256
 607 1067 611 1070 628 1074 c 256
 632 1074 636 1075 640 1075 c 256xe4
 650.661225427 1075 686.884 1075 686.884 1028.2 c 256xe4
 686.884 1011.9 684.585 992.221 684 977 c 256
 679.773485881 928.395087634 662.02325718 866.224819406 659 837 c 256
 656 807 632 771 615 742 c 256
 603 720 595 708 588 694 c 257
 610 658 611 612 619 578 c 256
 624.644 550.99 626.712 516.18 626.712 480.972 c 256
 626.712 478.574011265 624.388650133 280.681226808 590 244 c 256
 585 239 578 224 575 212 c 256
 567.66405896 177.765608478 533.928606665 157.428655995 520 124 c 256
 515 112 497 94 488 84 c 256
 459 56 415 22 408 22 c 256
552.369 549.651 m 256
 552.369 560.1 552.369 560.1 531.999 628 c 257
 527.999 628 523.999 627 520.999 627 c 256
 493.217 627 483.077 639.602 483.077 672.307 c 256
 483.077 680.804 483.762 690.658 484.999 702.001 c 257
 470.999 733.001 406.999 763.001 371.999 763.001 c 256
 363.999 763 354.998 761.997 340.998 759.997 c 256
 221.430325968 751.140135257 174.840116382 674.681232763 173.998 672.997 c 256
 156.998 639.997 145.998 597.997 146.998 568.997 c 257
 146.998 515.753469375 138.719 479.961385116 138.719 422.796 c 256
 138.719 359.267 147.352 295.375 158.999 254.998 c 256
 162.999 240.998 169.999 215.998 173.999 198.998 c 256
 183.999 163.998 221.999 98.998 228.999 91.998 c 256
 232.999 86.998 254.999 63.998 293.999 62.998 c 256
 345.999 62.998 379.999 89.998 415.999 124.998 c 256
 520.999 228.998 535.999 268.998 553.999 412.998 c 256
 556.783 434.811 558.275 448.654 558.275 460.227 c 256xd8
 558.275 487.749126194 550.16 495.898634373 550.16 515.964 c 256
 550.16 528.059 552.369 540.69 552.369 549.651 c 256
EndSplineSet
Validated: 33
EndChar

StartChar: Omega
Encoding: 8486 8486 98
GlifName: O_mega
Width: 942
VWidth: 0
Flags: W
HStem: -18 93<89.7699 264.342> 0 97<47.9408 190.93> 19 90<700.001 875.14> 848 88<307.9 516.986>
VStem: 112.242 93.295<331.824 719.296> 713.083 86.474<328.971 666.533>
LayerCount: 2
Fore
SplineSet
34.5986 52.1182 m 256
 34.5986 78.6992902485 61.5172907977 97 102 97 c 256x5c
 115 97 127 95 138 92 c 256
 142.69242732 91.0615145359 167.222063977 75 203 75 c 256
 224 75 236 82 266 90 c 257
 200 152 140 264 126 374 c 256
 118.161 433.772 112.242 498.824 112.242 563.277 c 256
 112.242 630.38 118.657 696.833 136 756.001 c 256
 168 864 260 936 398 936 c 256
 572 936 682 856 752 740 c 256
 785.824 684.652 799.557 584.394 799.557 494.644 c 256
 799.557 375.062914048 777.703799178 305.108397535 742.001 198 c 256
 736.001 182 732.001 166 724.001 152 c 257
 718.001 138 712.001 126 700.001 110 c 257
 709.001 110 717.001 109 726.001 109 c 256
 766.953931586 109 882.418438785 118 884.001 118 c 256
 905.659 118 923.457 113.496 923.457 94.6797 c 256
 923.457 22.9805969811 771.028115575 19 700.001 19 c 256x3c
 678.001 19 657.001 20 640.001 20 c 256
 599.625598567 20 559.722 20 559.722 74.2608 c 256
 559.722 114.98 596.942 125.317 616.001 152 c 256
 648.001 196 680.001 270 692.001 332 c 256
 702.542 392.083 713.083 462.166 713.083 529.073 c 256
 713.083 589.113 704.595 646.596 680.001 692 c 256
 636.001 776 526.001 848 400.001 848 c 256
 240.134 848 205.537 709.481 205.537 546.483 c 256
 205.537 499.447 208.418 450.373 212 402 c 256
 220 302 286 192 344 138 c 256
 362 122 408 122 418 100 c 256
 420.179 95.6426 421.123 90.2412 421.123 84.333 c 256
 421.123 63.1231 408.949 35.3858 398 26 c 256
 382 12 352 10 330 6 c 256
 274 -5 240 -18 192 -18 c 256x9c
 170 -18 95 -10 76 0 c 256
 58.3974 8.80078 34.5986 28.4463 34.5986 52.1182 c 256
EndSplineSet
Validated: 1
EndChar

StartChar: Oslash
Encoding: 216 216 102
GlifName: O_slash
Width: 944
VWidth: 0
Flags: W
HStem: -13 21G<72.5 83.5> 0 87<402.768 562.654> 775 86<805.16 914.66> 826 97<316.996 463.837>
VStem: 17 127<33.5844 89.1417> 139 77<332.69 572.649> 724 78<314.131 603.252>
AnchorPoint: "bottom" 484 39 basechar 0
AnchorPoint: "top" 478 961 basechar 0
LayerCount: 2
Fore
SplineSet
724 414 m 256x42
 724 463 715 594 691 629 c 256
 684 640 678 652 676 654 c 257
 672 650 665 644 659 636 c 256
 653 629 636 616 612 598 c 257
 587 582 410 414 410 405 c 257
 367 353 304 298 266 241 c 257
 281 207 364 131 395 112 c 256
 416 99 439 89 463 87 c 257
 486 87 496 85 503 85 c 256
 584 85 691 237 701 304 c 257
 703 329 709 348 716 361 c 257
 722 370 724 389 724 414 c 256x42
406 826 m 256x16
 336 826 311 804 302 788 c 257
 277 750 253 711 249 654 c 256
 247 627 239 598 230 570 c 257
 220 545 216 500 216 435 c 256
 216 372 224 348 230 332 c 257
 237 336 247 350 266 369 c 256
 374 477 441 547 469 581 c 257
 501 614 532 642 558 665 c 256
 600 701 625 722 629 728 c 257
 627 731 619 739 615 743 c 256
 585 777 530 792 471 815 c 256
 448 825 427 826 406 826 c 256x16
146 551 m 257
 150.54180812 675.899723301 156.107827153 601.372197361 161 709 c 257
 161 749 177 788 230 859 c 256
 260 900 300 923 351 923 c 256x96
 420 923 427 906 494 895 c 257
 560 882 615 855 667 807 c 256
 672 802 690 787 693 781 c 257
 709 792 724 802 739 813 c 256
 769 836 790 861 840 861 c 256
 864 861 904 859 908 857 c 256
 916 853 925 834 925 823 c 256
 925 795 894 775 868 775 c 256
 833 775 770 737 747 712 c 257
 761 692 787 626 794 602 c 257
 800 589 802 547 802 473 c 256
 802 365 788 357 785 327 c 256
 779 260 723 160 680 108 c 257
 615 35 571 0 469 0 c 256
 405 0 295 78 251 120 c 256
 228 142 213 152 203 161 c 257
 193 152 144 97 144 87 c 256x6a
 144 84 148 76 154 76 c 256
 159 76 161 70 161 61 c 256
 161 15.9790493127 105.244434741 -13 82 -13 c 256
 63 -13 17 33 17 51 c 256x8a
 17 72 45 95 57 108 c 257
 87 152 99 177 137 215 c 257
 150 230 152 239 159 245 c 257
 159 246.741522323 139 327.125144344 139 418 c 256
 139 464 146 505 146 551 c 257
EndSplineSet
Validated: 1
EndChar

StartChar: P
Encoding: 80 80 105
GlifName: P_
Width: 622
VWidth: 0
Flags: W
HStem: -2 21G<161 189.5> 290 84<186 277.702> 790 88<176 273.136> 892 20G<126 144>
VStem: 22 40<674.267 761.71> 90 84<433.5 785.531> 94 94<167.746 293.855 374 584.741> 98 78<652.331 786> 130 94<10.0316 127.58> 492 82<518.194 619.609>
AnchorPoint: "bottom" 179 41 basemark 0
AnchorPoint: "top" 294 927 basemark 0
LayerCount: 2
Fore
SplineSet
176 790 m 257xf940
 176 729 174 621 174 591 c 256xfc40
 174 456 180 416 182 374 c 257
 231 382 277 391 331 418 c 256
 357 431 396 451 419 469 c 256
 443 489 492 532 492 562 c 256
 492 578 473 618 464 630 c 256
 433 671 401 692 348 730 c 256
 295 767 252 790 176 790 c 257xf940
314 319 m 256
 284 307 220 295 186 290 c 257
 186 280 187 258 188 248 c 256xfa40
 190 218 189 182 194 156 c 256
 204 108 224 100 224 70 c 256
 224 36 209 -2 170 -2 c 256
 152 -2 136 18 130 40 c 256xf8c0
 126 56 125 88 122 102 c 256
 90.3993558981 234.722705228 90 615.679959736 90 650 c 256xfc40
 90 719.070684243 98 784.637649091 98 786 c 257
 90 782 66 768 64 762 c 256
 62 756 62 738 62 706 c 256
 62 686 56 672 46 672 c 256
 36 672 22 712 22 754 c 256
 22 812 44 857 104 874 c 257
 106 884 104 894 106 898 c 256
 110 906 116 912 136 912 c 256
 152 912 168 910 172 906 c 256
 174 904 176 882 176 878 c 257xf940
 253 872 324 838 384 800 c 256
 459 753 484 735 524 684 c 256
 555 643 574 610 574 578 c 256
 574 518 546 489 524 461 c 256
 484 408 372 341 314 319 c 256
EndSplineSet
Validated: 1
EndChar

StartChar: Phi
Encoding: 934 934 106
GlifName: P_hi
Width: 720
VWidth: 0
Flags: W
HStem: -6 21G<376.5 387.5> 175 93<226.547 314> 555 172<211.642 276.718> 647 92<397.625 541.349> 916 20G<333.5 368>
VStem: 65 83<342.101 566.707> 310 86<285 612 733 926.441> 320 83<7.81219 174.157> 572 87<413.525 616.425>
AnchorPoint: "top" 356 959 basemark 0
AnchorPoint: "bottom" 368 41 basemark 0
LayerCount: 2
Fore
SplineSet
207 622 m 257
 176.295963679 600.068545485 148 533.999208915 148 434 c 256
 148 357 174 321 231 286 c 256
 256 271 285 268 314 268 c 257
 311 380 310 497 310 612 c 257xee80
 305 609 300 605 295 601 c 256
 285 593 288 590 280 580 c 256
 271 570 255 555 241 555 c 258
 238 555 l 257
 222.930535317 557.009261958 201 581.254244067 201 601 c 256
 201 608 203 615 207 622 c 257
396 639 m 257
 396 549 l 258
 396 461 396 373 399 285 c 257
 508 329 572 400 572 522 c 256
 572 597 557 647 470 647 c 256xde80
 447 647 422 643 396 639 c 257
310 714 m 257
 310 859 l 258
 310 890 313 936 354 936 c 256
 382 936 402 886 402 863 c 257
 400 820 398 776 397 733 c 257
 419 737 441 739 463 739 c 256xde80
 596 739 659 661 659 526 c 256
 659 453 639 379 611 337 c 256
 568 273 476 212 403 189 c 257
 403 144 406 96 415 52 c 257
 415 46 l 258
 415 31 409 6 398 -3 c 256
 395 -5 390 -6 385 -6 c 256
 368 -6 343 4 337 12 c 256
 316 35 322 86 320 122 c 256
 319 140 318 157 317 175 c 257
 304 175 l 258
 138 175 65 303 65 458 c 256
 65 514 79 588 109 635 c 256
 145 689 182 727 249 727 c 256xed80
 270 727 292 723 310 714 c 257
EndSplineSet
Validated: 1
Substitution2: "ss02GreekCursive subtable" uniE0B1
Substitution2: "cv17cursivePhiandphi subtable" uniE0B1
EndChar

StartChar: uniE0B1
Encoding: 57521 57521 107
GlifName: P_hi.cv17
Width: 877
VWidth: 0
UnlinkRmOvrlpSave: 1
Flags: W
HStem: -20.332 78.3427<361.202 580.411> 485.234 85.672<538.559 638.296> 513.77 97.552<232.778 344.58>
VStem: 70 91.277<233.32 418.286> 411.832 86.511<88.0018 175.276> 422.284 88.17<622.192 894.48> 717.82 91.828<171.886 404.838>
LayerCount: 2
Fore
SplineSet
70 334.473 m 256xda
 70 469.15 174.124 611.322 277.168 611.322 c 256
 338.882 611.322 392.651 575.137 423.183 534.219 c 256
 481.865 455.576 478.174 286.432 498.343 120.977 c 257
 498.343 90.5781 483.825 79.5117 460.352 79.5117 c 256
 433.563 79.5117 411.832 101.324 411.832 131.447 c 256
 411.832 228.449 416.619 294.894 399.785 379.355 c 256
 373.232 512.582 307.268 513.77 277.168 513.77 c 256xba
 245.705 513.77 224.66 488.741 200.932 452.753 c 256
 177.203 416.766 161.277 370.418 161.277 332.903 c 256
 161.277 144.62 351.543 58.0107 475.597 58.0107 c 256
 522.906 58.0107 582.958 73.9502 630.982 106.328 c 256
 693.795 148.677 717.82 192.398 717.82 260.329 c 256
 717.82 324.741 716.162 371.959 693.73 410.137 c 256
 671.299 448.313 610.409 485.234 585.799 485.234 c 256
 571.778 485.234 561.75 473.936 547.297 473.936 c 256
 530.289 473.936 511.051 482.186 511.051 505.667 c 256
 511.051 525.581 517.804 545.032 538.711 555.69 c 256
 556.007 564.508 569.991 570.906 588.145 570.906 c 256
 620.057 570.906 723.367 521.911 767.011 453.203 c 256
 802.059 398.027 809.648 319.996 809.648 249.629 c 256
 809.648 153.11 769.89 92.0791 689.301 39.5703 c 256
 623.841 -3.08203 542.847 -20.332 478.926 -20.332 c 256
 264.286 -20.332 70 157.5 70 334.473 c 256xda
422.284 863.473 m 256x96
 424.467 893.049 453.336 901.236 476.746 901.236 c 256
 502.362 901.236 510.454 890.062 510.454 866.59 c 256x96
 510.454 859.133 498.343 634.859 498.343 120.977 c 257x9a
 433.423 299.526 l 257
 416.78 547.207 l 257
 418.961 654.086 414.535 758.503 422.284 863.473 c 256x96
EndSplineSet
Validated: 37
EndChar

StartChar: Pi
Encoding: 928 928 108
GlifName: P_i
Width: 822
VWidth: 0
Flags: W
HStem: -17 21G<292.5 306 666 693.5> 792 76<55.7638 201>
VStem: 203 82<482.674 790.881> 228 66.694<104.201 136.679> 597.105 73.895<81.9411 467.349> 602 82<187.167 648.181>
LayerCount: 2
Fore
SplineSet
348 41 m 256
 348 15.1534783082 330.298192902 -8 304 -8 c 256
 281 -8 252 8 243 24 c 256
 229 47 229 80 228 110 c 257xd0
 210 309 209 518 203 727 c 256
 203 748 201 769 201 790 c 257
 189 792 173 793 159 793 c 256
 150 793 141 792 132 792 c 256
 100 792 71 794 49 809 c 256
 33 820 11 836 11 858 c 256
 11 876 32 890 54 890 c 256
 92 890 106 876 141 873 c 256
 165 871 190 868 214 868 c 256
 268 868 322 877 372 883 c 256
 504.11988891 899.938447296 626.150097955 902.753346394 688 911 c 257
 715 913 738 918 768 918 c 256xe0
 787 918 805 909 805 892 c 256
 805 880 802 868 798 859 c 256
 786 834 739 838 710 832 c 257
 695 700 690 574 684 435 c 256xe4
 681 374 676 304 674 233 c 256
 674 207 671 178 671 151 c 256xc8
 671 40.6423414707 721 77.2709918626 721 35 c 256
 721 13 703 -14 684 -17 c 257xc4
 678 -17 l 258
 654 -17 626 3 615 19 c 256
 600 42 602 78 600 112 c 256
 597.789 142.956 597.105 174.829 597.105 207.112 c 256xc8
 597.105 212.496184911 603.666037695 581.771854964 621 745 c 256
 623 771 627 796 628 826 c 257
 545 821 459 817 385 803 c 257
 353 798 319 792 281 788 c 257
 281.2739353 781.494036624 285.188364146 344.223020538 296 137 c 256
 296 130.143 294.694 123.612 294.694 117.408 c 256
 294.694 112.755 295.429 108.285 298 104 c 256
 305 89 328 87 338 74 c 257
 344 63 348 52 348 41 c 256
EndSplineSet
Validated: 1
Substitution2: "ss02GreekCursive subtable" uniE0AB
Substitution2: "cv14roundPiandpi subtable" uniE0AB
EndChar

StartChar: uniE0AB
Encoding: 57515 57515 109
GlifName: P_i.cv14
Width: 731
VWidth: 0
Flags: W
HStem: 805.927 95.964<235.334 425.154>
VStem: 93.2383 88.3207<281.021 564.617> 113.367 87.211<22.5538 309.533> 590.16 83.677<76.4541 505.554>
LayerCount: 2
Fore
SplineSet
61.1523 714.41 m 256x90
 32.8184 714.41 15 734.568 15 762.901 c 256
 15 799.639 229.818 904.245 338.223 901.891 c 256
 408.014 900.376 570.427 867.327 640.87 604.43 c 256
 668.454 501.484 673.837 407.621 673.837 259.126 c 256
 673.837 94.6065 620.812 -46.7597 593.979 -46.7597 c 256
 579.159 -46.7597 564.971 -39.2255 564.971 -8.5234 c 256
 564.971 15.0391 590.16 150.672 590.16 256.814 c 256
 590.16 423.908 569.461 647.671 469.297 751.93 c 256
 431.555 791.214 389.896 805.927 336.367 805.927 c 256
 223.536 805.927 103.677 714.41 61.1523 714.41 c 256x90
93.2383 534.008 m 256xd0
 93.2383 559.824 110.476 576.171 134.629 576.171 c 256
 161.539 576.171 181.559 540.06 181.559 520.345 c 256xd0
 181.559 378.035 200.578 296.074 200.578 73.9121 c 256
 200.578 49.2041 185.283 12.3916 152.53 12.3916 c 256
 126.158 12.3916 113.367 47.2549 113.367 61.4219 c 256xb0
 113.367 273.803 93.2383 390.233 93.2383 534.008 c 256xd0
EndSplineSet
Validated: 33
EndChar

StartChar: Psi
Encoding: 936 936 110
GlifName: P_si
Width: 822
VWidth: 0
Flags: W
HStem: -12 21G<439 463> 380 96<452.02 560.477> 896 20G<107.5 125 403 437>
VStem: 42 78<675.241 823.814> 362 86<88.9404 378.672 482 725.872> 376 92<592.351 909.661> 676 91<744.344 973.237> 690 79<618.682 917.439>
LayerCount: 2
Fore
SplineSet
690 742 m 256xf5
 690 825.721224172 676 874.993061543 676 918 c 256
 676 952 694 986 732 986 c 256
 758 986 767 952 767 931 c 256xf2
 767 927 766 923 766 920 c 256
 764 906 764 872 764 860 c 256
 767 822 769 785 769 748 c 256
 769 535 682 390 456 380 c 256
 453 380 451 380 449 379 c 257
 448 372 448 365 448 358 c 256
 448 294 450 228 454 162 c 256
 456 132 460 108 470 88 c 256
 478 72 500 62 500 36 c 256xf9
 500 10 476 -12 450 -12 c 256
 428 -12 420 4 410 14 c 256
 364 57 361 193 361 252 c 256
 361 282 362 312 362 340 c 258
 362 383 l 257xf9
 226 405 146 488 88 588 c 256
 54 646 42 724 42 810 c 256
 42 844 46 876 66 896 c 256
 75 905 101 916 114 916 c 256
 136 916 148 898 148 878 c 256
 148 858 140 836 134 824 c 256
 132 820 126 818 126 814 c 257
 122 802 120 790 120 778 c 256
 120 744 132 708 140 680 c 256
 172 578 240 506 352 484 c 256
 356 483 360 482 364 482 c 257
 368 586 373 687 376 794 c 257
 376 838 l 258
 376 874 382 918 424 918 c 256
 450 918 468 896 468 870 c 258
 468 850 l 257
 466 722 457 601 452 476 c 257
 463 476 473 476 484 478 c 256
 624 501 644 535 682 660 c 257
 688 684 690 712 690 742 c 256xf5
EndSplineSet
Validated: 1
Substitution2: "ss02GreekCursive subtable" uniE0B3
Substitution2: "cv18twoprongedPsiandpsi subtable" uniE0B3
EndChar

StartChar: Q
Encoding: 81 81 112
GlifName: Q_
Width: 783
VWidth: 0
Flags: W
HStem: 3 89<315.867 429.961> 808 94<322.707 561.643>
VStem: 62 81.687<341.697 645.267> 627.056 88.944<442.305 752.992>
AnchorPoint: "bottom" 383 47 basemark 0
AnchorPoint: "top" 412 947 basemark 0
LayerCount: 2
Fore
SplineSet
441 373 m 256
 469.850061865 373 508.561014055 283.438985945 547 245 c 257
 585 299 598 353 609 447 c 256
 625.667 566.167 627.056 639.5 627.056 669.314 c 256
 627.056 675.277 627 679.5 627 682 c 256
 627 702 625 727 606 753 c 257
 584 778 543 800 504 806 c 256
 494 807 480 808 462 808 c 256
 449 808 434 808 417 806 c 256
 298.419887401 793.626423033 180.302132085 781.301092044 147 569 c 256
 144.657 554.941 143.687 540.539 143.687 525.392 c 256
 143.687 513.279620781 147.881346454 362.571545517 184 286 c 256
 206 241 212 210 243 173 c 256
 259 155 274 141 290 131 c 256
 321 112 337 92 386 92 c 256
 413 92 458 133 484 169 c 257
 480 179 464 195 454 209 c 257
 442 229 440 231 426 253 c 256
 420 261 374 315 374 325 c 256
 374 337 409 373 441 373 c 256
761 -7 m 256
 761 -10.880368419 753.693173302 -49 706 -49 c 256
 700 -49 696 -47 690 -47 c 256
 664 -43 660 -23 642 -11 c 256
 628 -1 620 11 606 23 c 256
 584 43 566 65 542 99 c 257
 510 65 438 3 376 3 c 256
 324 3 264 37 224 63 c 256
 184 89 168 127 142 167 c 256
 115.053152505 207.420271243 62 351.647713692 62 483 c 256
 62 497 62 529 68 573 c 256
 80 669 88 679 110 735 c 256
 120 759 138 781 172 807 c 256
 232 853 282 875 372 891 c 256
 396 896 426 902 463 902 c 256
 482 902 502 900 524 897 c 256
 594 887 622 877 662 833 c 256
 698 795 716 755 716 687 c 256
 716 599 714 569 704 501 c 256
 680 333 655 260 623 206 c 257
 613 192 612 182 602 168 c 257
 618 140 625 131 647 105 c 257
 657 91 681 73 713 51 c 257
 745 27 761 7 761 -7 c 256
EndSplineSet
Validated: 1
EndChar

StartChar: R
Encoding: 82 82 113
GlifName: R_
Width: 708
VWidth: 0
Flags: W
HStem: -1 21G<140.001 149.001 608.501 641.001> 781 90<162 330.642> 901 20G<88.001 116.001>
VStem: 70.001 91.999<138.234 321 524.137 781> 70.8906 81.6144<405 749.224> 84.001 118<37.5703 123.886> 514 88.001<535.257 652.303>
AnchorPoint: "bottom" 350 41 basemark 0
AnchorPoint: "top" 314 915 basemark 0
LayerCount: 2
Fore
SplineSet
514 597 m 256
 514 663.636350247 401.833957225 750.446760442 298 767 c 256xea
 280 769 248 777 214 777 c 256
 196 777 176 779 162 781 c 257xf2
 162 772.765 152.505 651.948 152.505 503.445 c 256
 152.505 471.623 152.94 438.529 154 405 c 257
 154 405 192 403 218 403 c 256
 276 403 384 427 454 487 c 256
 492 519 514 573 514 597 c 256
160.001 321 m 257
 162.001 263 167.001 145 192.001 91 c 257
 200.001 77 202.001 65 202.001 59 c 256
 202.001 49 192.001 35 176.001 19 c 257
 160.001 1 154.001 -1 144.001 -1 c 256
 136.001 -1 122.001 11 112.001 27 c 256
 94.001 55 88.001 83 84.001 147 c 256xe6
 82.001 187 82.001 217 74.001 293 c 256
 70.4014 330.2 69.6816 364.521 69.6816 396.824 c 256
 69.6816 418.36 70.002 439 70.002 459 c 256
 70.002 583 70.8906 635.889 70.8906 700.63 c 256xea
 70.8906 733 70.668 768.333 70.001 817 c 257
 58.001 827 44.001 847 44.001 861 c 256
 44.001 885 74.001 921 102.001 921 c 256
 130.001 921 164.001 885 166.001 871 c 257
 198.001 869 270.001 865 306.001 857 c 256
 342.001 849 376.001 835 394.001 829 c 256
 468.001 804 525.001 766 568.001 701 c 257
 580.001 677 602.001 623 602.001 601 c 256
 602.001 531 542.001 469 498.001 429 c 256
 460.001 395 402.001 369 370.001 357 c 257
 408.001 341 452.001 299 472.001 277 c 256
 504.001 241 562.001 161 588.001 133 c 256
 624.001 95 646.001 75 656.001 71 c 256
 666.001 67 670.001 57 670.001 45 c 256
 670.001 21 654.001 -5 628.001 -5 c 256
 589.001 -5 535.001 55 510.001 83 c 256
 498.001 95 468.001 131 448.001 157 c 256
 426.001 187 388.001 221 362.001 249 c 256
 320.001 293 270.001 311 160.001 321 c 257
EndSplineSet
Validated: 1
EndChar

StartChar: S
Encoding: 83 83 117
GlifName: S_
Width: 609
VWidth: 0
Flags: W
HStem: -6 90<167.508 329.52> 798 98<274.883 436.68>
VStem: 61 90<464.412 649.777> 467 96<153.538 209.58>
AnchorPoint: "bottom" 310 43 basemark 0
AnchorPoint: "top" 334 939 basemark 0
LayerCount: 2
Fore
SplineSet
131 114 m 256
 184.345713803 114 168.854286197 84 237 84 c 256
 275 84 337 98 363 108 c 257
 413 130 433 146 459 162 c 256
 465 166 467 168 467 176 c 256
 467 186 461 194 451 204 c 256
 333 320 293 324 233 342 c 257
 211 350 121 388 101 420 c 256
 73 466 61 484 61 550 c 256
 61 636 119 726 143 760 c 257
 153 772 163 790 183 810 c 256
 214 841 295 896 337 896 c 256
 393 896 423 886 441 874 c 256
 447 870 455 864 467 858 c 256
 493 844 505 826 505 806 c 256
 505 786 489 768 465 768 c 256
 426.319307146 768 433.036248409 798 343 798 c 256
 288 798 237 753 207 710 c 256
 173 662 151 628 151 554 c 256
 151 514 155 482 171 466 c 256
 193 442 243 424 277 414 c 257
 373 382 459 324 529 258 c 256
 559 230 563 204 563 192 c 256
 563 168 547 138 515 106 c 256
 461 52 290 -6 217 -6 c 256
 157 -6 81 26 81 66 c 256
 81 95 103 114 131 114 c 256
EndSplineSet
Validated: 1
EndChar

StartChar: Scedilla
Encoding: 350 350 120
GlifName: S_cedilla
Width: 672
VWidth: 0
Flags: W
HStem: 4 89<195.74 406.291> 815 92<261.603 354.084>
VStem: 80.9551 86.8419<557.429 686.083> 431.111 86.584<-173.043 -13.612> 534.002 82.936<157.284 290.675>
AnchorPoint: "bottom" 379 -255 basemark 0
AnchorPoint: "top" 334 939 basemark 0
LayerCount: 2
Fore
SplineSet
388 -280 m 257
 377.098824172 -280 340.446 -280 340.446 -255.785 c 256
 340.446 -239.015 366.986 -226.789 379.002 -212 c 256
 391.002 -196 408.002 -179 417.002 -160 c 256
 426.217 -141.57 431.111 -121.628 431.111 -99.7305 c 256
 431.111 -62.1289 406.854 -12.2246 403.002 8 c 257
 392.002 6 370.002 4 343.002 4 c 256
 315.002 4 282.002 6 255.002 10 c 256
 204.002 17 145.002 15 111.002 53 c 257
 101.998 61.3105 96.832 75.3779 96.832 88.5566 c 256
 96.832 126.717221466 143.614206611 127 145.002 127 c 256
 195.157722217 127 198.782552293 93 317.002 93 c 256
 338.002 93 360.002 94 381.002 96 c 256
 448.002 101 534.002 141 534.002 219 c 256
 534.002 343.366660361 371.613434139 399.351501928 245.002 441 c 256
 209.002 452 174.002 458 143.002 479 c 256
 118.002 496 96.002 521 87.002 548 c 256
 82.8311 562.251 80.9551 577.227 80.9551 592.423 c 256
 80.9551 620.947 87.5625 650.25 98.001 677 c 256
 134.001 767 184.001 879 278.001 904 c 256
 285.001 906 291.001 907 298.001 907 c 256
 335.001 907 373.001 880 402.001 857 c 256
 415.926 846.557 439.696 828.539 439.696 812.176 c 256
 439.696 811.675268335 437.584086336 783 399.001 783 c 256
 392.001 783 385.001 783 378.001 784 c 256
 360.001 786 323.001 815 301.001 815 c 256
 299.001 815 298.001 814 296.001 814 c 256
 258.001 803 235.001 764 214.001 730 c 256
 191.588 694.305 167.797 649.651 167.797 607.48 c 256
 167.797 598.851 168.793 590.324 171.001 582 c 256
 176.001 561 195.001 555 213.001 542 c 257
 267.578170112 509.253697933 400.17290312 494.587681657 494.001 428 c 256
 529.001 402 568.001 375 588.001 338 c 256
 605.743 303.225 616.938 260.391 616.938 219.149 c 256
 616.938 202.28 615.064 185.677 611 170 c 256
 598 125 557 92 523 60 c 256
 510 49 489 37 481 31 c 257
 481.709355393 29.758628062 517.695 -50.3739101841 517.695 -107.186 c 256
 517.695 -195.415603025 432.530569789 -272.843301284 388 -280 c 257
EndSplineSet
Validated: 1
Substitution2: "loclRomanian subtable" uni0218
EndChar

StartChar: Sigma
Encoding: 931 931 122
GlifName: S_igma
Width: 675
VWidth: 0
Flags: W
HStem: -6 83<173.67 601.953> 6 73<330.5 618.754> 817 78<149.695 518.861> 883 20G<83 106>
LayerCount: 2
Fore
SplineSet
275 895 m 256
 538.096283031 895 519.21919316 923 577 923 c 256
 597 923 612 917 612 896 c 256
 612 892 611 887 610 882 c 256x20
 598 829 494 830 438 822 c 257
 402 818 368 817 333 817 c 256
 273 817 213 821 149 822 c 257
 182 739 210 685 262 619 c 256
 293 581 330 527 367 495 c 256
 379 484 400 470 404 453 c 256
 405 449 405 446 405 442 c 256
 405 410 368 382 353 365 c 256
 228.682006108 219.96234046 187.25748184 168.319594429 171 85 c 257
 215 78 269 77 323 77 c 258
 411 77 l 258xa0
 446 77 479 77 514 79 c 256
 525 79 536 80 547 80 c 256
 553 80 559 80 564 79 c 257
 587 79 l 258
 615 79 621 62 621 36 c 256
 621 28 620 21 617 17 c 256
 607 4 586 8 570 6 c 256x40
 502 -5 425 -3 353 -5 c 256
 338 -6 323 -6 308 -6 c 256
 272 -6 235 -4 200 -3 c 256
 127 -1 75 8 75 77 c 256
 75 128.138681603 109.692274082 235.989428522 307 436 c 257
 268 479 231 525 194 570 c 256
 161 609 137 647 112 696 c 256
 93 734 82 777 65 818 c 257
 54 823 42 839 42 856 c 256
 42 885 70 903 96 903 c 256x90
 129.263744552 903 120.902922114 894 198 894 c 256
 224 894 250 895 275 895 c 256
EndSplineSet
Validated: 1
Substitution2: "ss02GreekCursive subtable" uniE0AD
Substitution2: "cv15roundSigmaandsigma subtable" uniE0AD
EndChar

StartChar: uniE0AD
Encoding: 57517 57517 123
GlifName: S_igma.cv15
Width: 689
VWidth: 0
Flags: W
HStem: -31.1104 81.9629<511.278 624.019> 30.7773 81.0387<216.385 336.977> 818.893 91.787<364.395 601.281>
LayerCount: 2
Fore
SplineSet
222.985 797.496 m 257x60
 516.23 479.711 399.426 261.459 216.385 111.816 c 257
 365.214 107.154 483.493 80.5605 594.367 50.8525 c 256
 616.24 44.9912 630.709 27.8086 630.709 4.17578 c 256
 630.709 -19.7705 612.971 -31.1104 597.002 -31.1104 c 256xa0
 552.767 -31.1104 425.26 25.4551 90.1729 30.7773 c 256
 66.4238 31.1543 53 53.3907 53 73.2608 c 256
 53 86.6739 61.9756 109.632 75.5059 118.236 c 256
 306.891 265.386 449.925 469.52 100.463 793.773 c 256
 91.04 802.515 85.6689 821.768 85.6689 833.054 c 256
 85.6689 854.291 100.756 874.826 124.938 875.074 c 256
 286.344 876.731 569.13 910.68 578.649 910.68 c 256
 600.616 910.68 613.63 896.155 613.63 871.524 c 256
 613.63 845.844 585.998 820.975 572.737 818.893 c 256
 522.316 810.976 365.19 805.413 222.985 797.496 c 257x60
EndSplineSet
Validated: 33
EndChar

StartChar: T
Encoding: 84 84 124
GlifName: T_
Width: 740
VWidth: 0
Flags: W
HStem: -2 21G<397 404> 779 79<37.6397 317.422> 813 91<521.364 691.339>
VStem: 318 80<453.144 782.401> 339 79<118.517 491.396>
AnchorPoint: "bottom" 400 41 basemark 0
AnchorPoint: "top" 360 927 basemark 0
LayerCount: 2
Fore
SplineSet
602 813 m 257
 492.102971297 813 505.647220863 802.967929169 396 793 c 257
 396 793 398 728 398 694 c 256xb0
 402 520 412 334 418 250 c 256
 422 204 420 128 424 118 c 256
 428 108 432 100 438 96 c 256
 452 84 460 66 460 54 c 256
 460 38 448 22 420 10 c 257
 404 0 408 -2 400 -2 c 256
 394 -2 390 0 380 6 c 257
 346 22 343 68 339 118 c 256xa8
 335 170 335 246 333 270 c 256
 329 318 318 438 318 630 c 256
 318 672.5 319.953 708.359 319.953 737.578 c 256
 319.953 755.109 319.25 770.25 317 783 c 257
 291 781 250 779 200 779 c 256
 76 779 28 780 28 830 c 256
 28 834 30 838 36 844 c 257
 48.6244604317 865.040767386 50.4 868 106 868 c 256
 138 868 148 858 182 858 c 256
 206 858 240 858 286 864 c 256
 288.301337404 864.460267481 438.823953286 877.490219627 520 882 c 257
 574 888 596 892 602 896 c 256xd0
 608 900 618 904 634 904 c 256
 641.831716711 904 712 902.859863271 712 862 c 256
 712 838 698 835 682 827 c 256
 668 819 640 815 602 813 c 257
EndSplineSet
Validated: 1
EndChar

StartChar: Tbar
Encoding: 358 358 126
GlifName: T_bar
Width: 768
VWidth: 0
Flags: W
HStem: 326.997 83.001<298.287 436.78> 342 85<530 633.749> 828 91<517.718 684.421> 828 84<204.835 430.999 517 576.077>
VStem: 431.275 88.725<598.624 825.999> 431.999 90.001<424 825.247> 446 84<-25.4357 338>
AnchorPoint: "top" 380 955 basemark 0
AnchorPoint: "bottom" 488 1 basemark 0
LayerCount: 2
Fore
SplineSet
448.28 52.8936 m 256
 448.28 76.9320231695 446 58.6726434972 446 162 c 258
 446 248 l 258
 446 276 446 306 444 334 c 257
 444 338 l 257
 433 337 422 337 410 336 c 256x52
 387 335 363.998 326.997 340.998 326.997 c 256
 331.858078397 326.997 292.466 329.104740941 292.466 365.441 c 256
 292.466 376.764 296.582 388.581 303.999 395.998 c 256
 317.999 409.998 341.999 405.998 361.999 409.998 c 256
 385.999 413.998 411.999 413.998 437.999 415.998 c 257
 437.999 453.998 l 257
 431.275 662.442 431.275 662.442 431.275 690.444 c 256
 431.275 719.108 431.723 748.088 431.723 775.952 c 256
 431.723 793.173 431.552 809.968 430.999 825.999 c 257
 428.59135868 825.838490579 246.785078522 813.999 189.999 813.999 c 256
 169.999 813.999 149.999 810.999 129.999 810.999 c 256
 119.999 810.999 109.999 811.999 99.999 813.999 c 256
 81.999 817.999 53.999 815.999 49.999 833.999 c 256
 49.6465 835.41 49.4805 836.79 49.4805 838.141 c 256
 49.4805 852.101 67.2344 862.882 80 872 c 256
 94 882 114 882 130 886 c 256
 236 906 344 906 452 912 c 256x98
 495 915 537 919 578 919 c 256
 597 919 615 918 634 916 c 256
 662.993 912.376 728.363 920.498 728.363 884.747 c 256
 728.363 868.539 701.016 857.508 686 850 c 256
 652 832 610 832 572 828 c 256
 567 827 563 827 559 827 c 256
 550 827 541 828 532 828 c 258x28
 517 828 l 257
 518 810 520 780 520 762 c 256x18
 520.120671159 758.621207542 517.624554997 724.88790509 528 424 c 257
 553 426 578 427 603 427 c 256
 625.24302256 427 646.388 407.20413937 646.388 389.966 c 256
 646.388 342.025104686 548.199509078 342 548 342 c 256
 542 342 536 343 530 343 c 257
 530 262 l 258
 530 224 532 186 532 148 c 256
 532 120.923 535.029 93.8457 535.029 66.7686 c 256
 535.029 49.8457 533.846 32.9229 530 16 c 256
 521.593984962 -13.4210526316 514.571428571 -38 482 -38 c 256
 472.9722834 -38 447 -33.7031334129 447 15.75 c 256
 447 27.9502 448.28 40.6299 448.28 52.8936 c 256
EndSplineSet
Validated: 33
EndChar

StartChar: Theta
Encoding: 920 920 128
GlifName: T_heta
Width: 800
VWidth: 0
Flags: W
HStem: 4 84<301.177 503.831> 400 72<333.27 479.764> 420 98<485.631 534.383> 821 80<375.338 516.823>
VStem: 48 78<316.223 580.32> 671 83<294.245 582.269>
LayerCount: 2
Fore
SplineSet
334 881 m 256x9c
 365 893 397 901 431 901 c 256
 480 901 521 890 554 870 c 256
 590 849 639 811 658 779 c 256
 717 678 754 545 754 428 c 256
 754 358 748 295 720 242 c 256
 675 154 602 45 503 12 c 256
 486 6 459 4 431 4 c 256
 324 4 279 27 191 91 c 256
 136 132 118 176 90 229 c 256
 58 291 48 383 48 471 c 256
 48 563 71 642 107 706 c 256
 137 759 209 819 265 845 c 256
 276 851 289 855 302 855 c 257
 311 864 321 875 334 881 c 256x9c
159 614 m 257
 141 564 126 508 126 443 c 256
 126 385 146 311 165 266 c 256
 188 211 218 173 263 135 c 256
 293 109 334 90 394 88 c 256
 422 88 451 88 477 97 c 256
 547 123 584 185 622 242 c 256
 656 295 671 342 671 432 c 256
 671 502 658 561 639 614 c 256
 626 650 615 687 592 721 c 257
 564 765 515 821 441 821 c 256
 399 821 372 798 347 779 c 257
 320 757 291 735 272 706 c 257
 253 673 241 613 199 603 c 256
 196 602 192 601 188 601 c 256
 177 601 166 606 159 614 c 257
392 472 m 256xdc
 458.273039067 472 515.132758034 518 539 518 c 256xbc
 555 518 567 512 567 497 c 256
 567 463.738979303 519.418780971 400 394 400 c 256
 350 400 297 407 284 458 c 256
 283.662 459.859 283.495 461.776 283.495 463.717 c 256
 283.495 480.988464822 295.592232705 498 319 498 c 256
 340.39405761 498 343.631583416 472 392 472 c 256xdc
EndSplineSet
Validated: 1
Substitution2: "ss02GreekCursive subtable" uniE0A6
Substitution2: "cv10roundThetaandtheta subtable" uniE0A6
EndChar

StartChar: uniE0A6
Encoding: 57510 57510 129
GlifName: T_heta.cv10
Width: 731
VWidth: 0
UnlinkRmOvrlpSave: 1
Flags: W
HStem: -7.76172 90.4922<227.426 419.327> 297.954 89.695<381.154 605.509> 817.733 88.923<302.755 425.62>
VStem: 79.7041 89.8669<255.292 387.658> 132.613 85<541.596 707.515> 561.937 83.43<400.803 612.259>
LayerCount: 2
Fore
SplineSet
354.15 817.733 m 257xec
 275.515 817.733 217.613 677.628 217.613 631.148 c 256
 217.613 558.035 259.604 486.464 320.523 440.094 c 256
 366.689 404.953 440.738 387.649 534.94 387.649 c 256
 582.209 387.649 623.976 399.753 670.113 399.753 c 256
 690.059 399.753 702.857 389.153 702.857 371.831 c 256
 702.857 318.619 617.984 297.954 527.421 297.954 c 256
 417.65 297.954 333.16 319.85 272.685 368.785 c 256
 180.306 443.537 132.613 533.262 132.613 631.148 c 256
 132.613 685.437 156.118 741.487 190.957 796.295 c 256
 225.796 851.102 276.873 906.656 351.012 906.656 c 257
 354.15 817.733 l 257xec
645.367 426.344 m 256
 645.367 193.261 518.046 -7.76172 325.067 -7.76172 c 256
 213.324 -7.76172 140.955 36.6816 102.516 124.547 c 256
 69.7324 199.481 63.248 265.743 79.7041 359.078 c 256
 83.749 382.015 98.1768 396.439 118.449 396.439 c 256
 154.713 396.439 169.571 367.557 169.571 345.666 c 256xf4
 169.571 321.045 157.549 290.881 157.549 253.547 c 256
 157.549 216.313 165.06 185.488 181.824 155.287 c 256
 209.063 106.214 242.523 82.7305 331.344 82.7305 c 256
 415.168 82.7305 454.874 121.59 500.426 185.457 c 256
 545.978 249.325 561.937 354.782 561.937 424.774 c 256
 561.937 541.789 540.96 654.665 497.529 722.854 c 256
 454.099 791.045 407.956 817.733 354.15 817.733 c 257
 351.012 906.656 l 257
 516.71 906.656 645.367 706.943 645.367 426.344 c 256
EndSplineSet
Validated: 37
EndChar

StartChar: Thorn
Encoding: 222 222 130
GlifName: T_horn
Width: 606
VWidth: 0
Flags: W
HStem: 0 21G<118 123.5> 244 82<149.314 351.842> 619 83<150.079 403.749> 902 20G<100.5 113>
VStem: 66 83<31.8071 247.961 329.662 609.634 690 856.899> 462 78<419.738 566.11>
AnchorPoint: "bottom" 110 39 basechar 0
AnchorPoint: "top" 304 949 basechar 0
LayerCount: 2
Fore
SplineSet
462 481 m 256
 462 514.603375527 462 619 304 619 c 256
 245 619 183 614 147 605 c 257
 145 586 145 548 145 500 c 256
 145 441 147 351 149 334 c 257
 168 328 200 326 259 326 c 256
 284 326 326 338 340 343 c 256
 373 354 429 398 441 419 c 256
 451 436 462 468 462 481 c 256
164 857 m 256
 164 836.55729577 149 826.231593119 149 754 c 258
 149 690 l 257
 163 692 247 702 299 702 c 256
 374 702 460 680 504 614 c 257
 530 580 540 562 540 477 c 256
 540 339 371 244 249 244 c 256
 211 244 184 246 147 248 c 257
 147 248 148 195 148 162 c 256
 148 118.816091954 148 0 119 0 c 256
 63.25 0 63.25 182.435911809 63.25 360.375 c 256
 63.25 550.855309447 68 657.993374764 68 661 c 256
 68 686 66 688 66 794 c 256
 66 865 69 903 75 908 c 257
 81 918 92 922 109 922 c 256
 117 922 125 920 132 914 c 256
 138 910 164 872 164 857 c 256
EndSplineSet
Validated: 1
EndChar

StartChar: U
Encoding: 85 85 131
GlifName: U_
Width: 670
VWidth: 0
Flags: W
HStem: -7 81<291.257 400.97> 891 20G<101.5 116 535 548>
VStem: 60.001 82.999<376.564 892.468> 536 78.033<291.275 776.221>
AnchorPoint: "bottom" 337 41 basemark 0
AnchorPoint: "top" 336 947 basemark 0
LayerCount: 2
Fore
SplineSet
111 911 m 256
 136.078428822 911 145 897.825497283 145 820 c 256
 145 744 143 650 143 576 c 256
 143 475 154 320 189 228 c 256
 201 197 214 170 242 141 c 256
 282 99 314 74 340 74 c 256
 388 74 436 115 482 189 c 256
 523.943820143 258.004349268 536 303.3897247 536 534 c 256
 536 768 520 812 493 842 c 257
 490 847 484 851 484 859 c 256
 484 870 495 882 506 894 c 256
 515 905 528 911 542 911 c 256
 554 911 591 876 602 798 c 257
 612 699 614 662 614 538 c 256
 614 520.909 614.033 505.537 614.033 491.361 c 256
 614.033 270.883310744 588.013335359 213.649995876 548.001 142 c 256
 499.001 55 413.001 -7 334.001 -7 c 256
 274.001 -7 239.001 28 197.001 68 c 256
 161.001 103 135.001 144 112.001 200 c 256
 70.001 297 60.001 512 60.001 624 c 256
 60.001 675 62.001 742 62.001 792 c 256
 62 848 66 882 71 893 c 257
 79 904 92 911 111 911 c 256
EndSplineSet
Validated: 33
EndChar

StartChar: Uhorn
Encoding: 431 431 137
GlifName: U_horn
Width: 814
VWidth: 0
Flags: W
HStem: 10 82<263.722 375.802> 885 20G<561.5 571>
VStem: 56.1211 95.9919<566.984 857.867> 74 76.398<334.29 672.669 675.055 827.192> 512 95.15<793.397 895.894> 528.5 72.299<354.668 514 598.16 772.191> 678.889 82.281<711.693 983.635>
AnchorPoint: "bottom" 330 41 basemark 0
AnchorPoint: "top" 340 947 basemark 0
LayerCount: 2
Fore
SplineSet
638.785 1038.54 m 256
 638.785 1066.7770096 677.743092077 1089 683.999 1089 c 256
 702 1089 725 1075 735 1058 c 256
 746.309 1037.27 761.17 950.81 761.17 912.463 c 256
 761.17 899.979134457 758.93785509 884.135652707 757 826 c 256
 750.759121517 672.058330741 673.551245193 536.275622596 637 518 c 256
 631 515 617 514 607 514 c 257
 607 477.040760782 590 421.28276863 590 395 c 256
 590 329.210240128 562 304.004045586 562 276 c 256
 562 266 559 250 556 242 c 256
 552 234 547 219 544 209 c 256
 539 192 511 149 494 129 c 256
 490 125 478 112 468 99 c 256
 445 71 397 32 369 20 c 256
 355 13 333 10 313 10 c 256
 296 10 281 12 271 16 c 256
 263 20 254 27 251 32 c 257
 247 36 239 43 233 46 c 256
 173.825351818 79.1378029818 156.302020217 139.348989892 147 144 c 256
 139.78424855 151.21575145 132.375843933 181.342273117 120 203 c 256
 117 210 111 228 109 244 c 256
 106 260 102 275 100 278 c 256
 95 284 74 486 74 503 c 256xd6
 74 509 73 570 73 638 c 256
 73 735 71 767 65 787 c 256
 59.1201 809.05 56.1211 820.056 56.1211 827.546 c 256
 56.1211 835.342 59.3701 839.33 66 848 c 256
 76 862 80 864 98 864 c 256
 137.541 864 153.919 847.786 153.919 805.861 c 256
 153.919 790.269543159 152.113 784.650671127 152.113 769.147 c 256xe2
 152.113 742.423 157.525 716.726 157.525 673.019 c 256
 157.525 629.267907286 150.398 557.217916857 150.398 514.196 c 256
 150.398 458.523 157.45 375.068 185 284 c 256
 204 217 199 200 232 152 c 256
 259 112 283 92 313 92 c 256
 333 92 356 102 385 119 c 256
 423 141 416 149 466 222 c 256
 492 260 522 405 524 500 c 256
 524 546.55952341 528.5 629.56547659 528.5 630.875 c 256xd6
 528.5 648 528 666.5 527 682 c 256
 525 734 529 738 517 756 c 256
 505.497 772.616 500.528 782.289 500.528 793.11 c 256
 500.528 805.676279211 512 830.00039472 512 857 c 256
 512 888.290190817 540.168831815 905 563 905 c 256
 580.719179623 905 607.15 892.936256675 607.15 852.655 c 256xca
 607.15 832.686460775 600.799 768.772717202 600.799 665.717 c 256
 600.799 597.261568862 603.151522594 593 612 593 c 256
 623.678061377 593 678 741.811399319 678 822 c 256
 678 838.667 678.889 860.223 678.889 880.148 c 256
 678.889 927.950904757 671.933898451 984 658.999 984 c 256
 651.58646946 984 638.785 1009.14464065 638.785 1038.54 c 256
EndSplineSet
Validated: 1
EndChar

StartChar: Uogonek
Encoding: 370 370 140
GlifName: U_ogonek
Width: 748
VWidth: 0
Flags: W
HStem: -327 85<505.939 673.899> -32.999 20G<383.163 388> -24 93.999<235.155 386.474>
VStem: 55.957 77.702<250.478 718.636> 371.943 80.084<-185.916 -13.9657> 572.974 89.024<666.904 963.017> 601.997 78.024<320.249 804.093>
AnchorPoint: "bottom" 382 -307 basemark 0
AnchorPoint: "top" 356 939 basemark 0
LayerCount: 2
Fore
SplineSet
575 -327 m 256
 460.899866709 -327 371.943 -247.587995666 371.943 -116.663 c 256
 371.943 -79.4472 378.327 -42.0195 388 -12.999 c 257
 359 -19 333.996 -24 309.996 -24 c 256
 293.996 -24 277.996 -22 261.996 -17 c 257
 191.996 -2 152.996 41 121.996 98 c 256
 73.9961 186 66.9961 278 58.9961 386 c 256
 56.8838 415.039 55.957 445.054 55.957 475.234 c 256
 55.957 559.379 63.1641 644.815 71.9961 714 c 256
 77.9961 762 103.996 858 137.996 858 c 256
 165.996 858 179.996 841 179.996 814 c 256
 179.996 798.110656487 150.139928462 723.007499237 139.996 652 c 257
 135.288 611.193 133.659 569.154 133.659 527.817 c 256
 133.659 516.478 133.782 505.192 133.997 493.999 c 256
 139.997 227.999 167.997 123.999 250.997 81.999 c 256
 269.997 71.999 297.997 71.999 317.997 69.999 c 257
 398.997 69.999 465.997 99.999 513.997 165.999 c 256
 577.997 253.999 601.997 357.999 601.997 559.999 c 256xba
 601.997 616.999 590.997 670.999 587.997 725.999 c 258
 581.997 827.999 l 258
 580.062 858.487 572.974 892.957 572.974 920.98 c 256
 572.974 950.864 581.034 973.418 611.998 975.998 c 257
 638.998 975.998 650.998 950.998 657.998 927.998 c 256
 661.998 911.998 659.998 861.998 661.998 827.998 c 256xbc
 665.998 745.998 679.998 661.998 679.998 579.998 c 256
 679.998 567.683 680.021 555.367 680.021 543.08 c 256
 680.021 438.644 678.419 336.313 647.998 253.998 c 256
 617.998 169.998 589.998 106.998 512.998 39.998 c 256
 502.998 30.998 492.998 23.998 481.998 17.998 c 257
 465.506 -25.4033 452.027 -62.7774 452.027 -103.28 c 256
 452.027 -135.889129869 461.728282696 -242 588 -242 c 256
 638.901857879 -242 675.979094502 -221 714 -221 c 256
 731.201692536 -221 746.063 -225.889972264 746.063 -242.789 c 256
 746.063 -278.521440893 654.040171005 -327 575 -327 c 256
EndSplineSet
Validated: 1
EndChar

StartChar: Upsilon
Encoding: 933 933 141
GlifName: U_psilon
Width: 717
VWidth: 0
Flags: W
HStem: -2 21G<272 312> 912 20G<69 90 636 660.5>
VStem: 245 92<279.406 378.133> 251 88<7.49219 366.594>
LayerCount: 2
Fore
SplineSet
341 138 m 256
 341 23.4423114584 328.248325702 -2 289 -2 c 256
 255 -2 251 44 251 72 c 256xd0
 251 125 253 158 253 194 c 256
 253 210.336208937 245.115865348 366.262019787 245 368 c 257
 185 388 153 466 141 558 c 256
 125 668 109 796 61 862 c 256
 55 870 41 874 37 884 c 257xe0
 33 890 33 896 33 902 c 256
 33 922 57 932 81 932 c 256
 99 932 129 920 139 904 c 256
 193 822 209 676 227 562 c 256
 233 518 243 456 291 456 c 256
 315 456 400 621 413 646 c 256
 455 732 517 830 583 892 c 256
 596 904 623 931 649 931 c 256
 672 931 678 914 678 893 c 256
 678 831.755188573 600.259940896 791.215905434 567 738 c 256
 545 702 505 624 485 588 c 256
 455 536 423 484 393 430 c 256
 387 420 375 404 369 396 c 256
 359 384 345 372 337 364 c 257xe0
 339 315 339 268 339 218 c 257
 340 191 341 164 341 138 c 256
EndSplineSet
Validated: 1
EndChar

StartChar: Upsilon1
Encoding: 978 978 142
GlifName: U_psilon1
Width: 1039
VWidth: 0
Flags: W
HStem: -10 21G<493.001 518.001> 773 112.998<811.176 882.825>
LayerCount: 2
Fore
SplineSet
85.3321 675.964 m 256
 66.379896773 675.964 32.1514 692.965181101 32.1514 725.274 c 256
 32.1514 759.055 65.5713 786.735 83.001 806 c 256
 100.001 825 115.001 844 134.001 859 c 257
 150.001 873 217.001 919 239.001 922 c 256
 247 923 255 923.998 263 923.998 c 256
 348 923.998 388 838.998 402 761.998 c 256
 403.146205988 756.01225762 474.004946929 366.953477635 497 159.998 c 257
 510 233.998 512 259.998 529 316.998 c 256
 579 480.998 626 637.998 710 765.998 c 256
 739 810.998 789 885.998 849 885.998 c 256
 866 885.998 883 880.998 898 865.998 c 256
 913 850.998 932 835.998 947 818.998 c 256
 972 791.998 993 770.998 1001 727.998 c 256
 1001.66 722.094 1002.07 716.142 1002.07 710.382 c 256
 1002.07 692.145899681 997.308398332 666 970.001 666 c 256
 935.87445434 666 921.115238654 727.929280833 879.001 754 c 256
 870.001 760 859.001 773 849.001 773 c 258
 847.001 773 l 257
 800.473049689 770.180124224 764.114169344 679.282923359 738.001 614 c 256
 716.001 557 685.001 500 664.001 439 c 256
 606.427425956 257.421804938 590.792730699 178.323124771 567.001 101 c 256
 559.001 72 537.001 -5 499.001 -10 c 257
 487.001 -10 474.001 -5 465.001 4 c 256
 423.001 44 423.001 129 408.001 198 c 256
 381.001 327 358.001 462 336.001 600 c 256
 326.001 654 318.001 716 303.001 770 c 256
 296.001 796 296.001 828 261.001 828 c 256
 214.001 828 191.001 777 168.001 751 c 257
 161.001 741 151.001 730 142.001 720 c 256
 128.001 705 111.001 678 87.001 676 c 256
 86.4473 675.976 85.8906 675.964 85.3321 675.964 c 256
EndSplineSet
Validated: 1
EndChar

StartChar: V
Encoding: 86 86 147
GlifName: V_
Width: 692
VWidth: 0
Flags: W
HStem: -28 21G<380 404.5> 902 20G<602 621.5>
VStem: 550 100<796.827 902.536>
AnchorPoint: "bottom" 384 41 basemark 0
AnchorPoint: "top" 352 937 basemark 0
LayerCount: 2
Fore
SplineSet
248 398 m 256
 280 322 272 340 310 264 c 256
 316 254 322 240 332 220 c 257
 346 188 346 188 352 178 c 256
 356 170 376 130 384 120 c 257
 394 138 394 152 404 176 c 256
 410 188 408 208 418 234 c 256
 442 298 458 352 468 396 c 256
 470 406 472 424 482 448 c 257
 498 492 508 536 514 554 c 257
 533 631 543 709 550 788 c 256
 554 836 550 846 556 876 c 256
 562 904 594 922 610 922 c 256
 633 922 650 875 650 856 c 256
 650 829.497204144 637.893489153 852.765275484 622 768 c 257
 610 642 586 530 554 430 c 256
 540 384 536 336 510 264 c 256
 509.231156713 261.693470139 487.768843287 161.306529861 444 30 c 256
 434 -1 423 -28 386 -28 c 256
 374 -28 364 -24 354 -16 c 256
 329.642965187 1.39788200923 298.725871911 112.911192134 266 162 c 257
 258 172 242 202 208 274 c 256
 206.512933618 277.186570818 131.734960353 442.698694271 98 608 c 256
 80 702 76 736 42 800 c 257
 32 816 28 832 28 846 c 256
 28 864 56 894 74 894 c 256
 127 894 149 786 156 750 c 257
 188 618 204 546 208 530 c 256
 224 456 220 464 248 398 c 256
EndSplineSet
Validated: 1
EndChar

StartChar: W
Encoding: 87 87 148
GlifName: W_
Width: 878
VWidth: 0
Flags: W
HStem: -14 21G<710 719> 894 20G<67 93.5 803 811>
VStem: 724 58<539.344 736.591>
AnchorPoint: "bottom" 460 41 basemark 0
AnchorPoint: "top" 428 929 basemark 0
LayerCount: 2
Fore
SplineSet
758 172 m 256
 758 136.642887544 764 127.468223567 764 102 c 256
 764 90 760 74 750 58 c 256
 742 46 724 -14 714 -14 c 256
 706 -14 694 -6 674 8 c 256
 632 40 600 82 576 126 c 256
 552 168 542 220 532 242 c 256
 518 274 484 324 474 378 c 256
 464 428 440 474 426 540 c 257
 394.748888518 455.175554548 399.98449843 417.550394976 372 328 c 256
 362.538349378 296.461164592 355.011464647 245.034393941 338 194 c 256
 332 174 326 148 320 116 c 256
 310 62 300 44 268 12 c 256
 262 6 258 6 250 6 c 256
 240 6 234 8 230 16 c 256
 192 76 178 106 160 184 c 256
 125.516875574 349.518997244 98.9819041955 532.563335316 98 536 c 256
 84 630 78 714 62 776 c 256
 52 812 34 830 34 862 c 256
 34 888 58 914 76 914 c 256
 111 914 128 871 132 842 c 256
 136 810 156 750 162 688 c 256
 172 584 180 538 212 370 c 256
 226 296 232 252 234 246 c 256
 240 222 246 198 252 188 c 257
 262.782475314 213.159109066 264.739100539 270.162976212 278 300 c 256
 286 318 290 332 296 354 c 256
 306 390 310 412 320 448 c 256
 326.614968239 469.498646776 343.37021295 539.962553669 358 578 c 257
 368 610 374 636 388 658 c 256
 402 679 418 691 443 691 c 256
 444 691 445 691 446 690 c 256
 476.024450553 677.132378334 525.613879576 480.772240847 552 428 c 257
 566 394 582 336 594 300 c 257
 604 274 628 232 636 214 c 257
 650 176 670 142 680 136 c 257
 688 190 680 218 690 318 c 256
 696 372 710 478 718 564 c 256
 726 644 722 688 724 764 c 256
 728 868 724 874 768 896 c 256
 782 904 798 906 808 906 c 256
 814 906 816 906 818 904 c 256
 830 884 838 868 838 862 c 256
 838 856 836 844 826 828 c 257
 801 779 784 581 782 528 c 256
 781.872649738 524.434192671 758 293.861203227 758 172 c 256
EndSplineSet
Validated: 33
EndChar

StartChar: X
Encoding: 88 88 150
GlifName: X_
Width: 738
VWidth: 0
Flags: W
HStem: 888 20G<66 78 654 674>
VStem: 120 88<-15.268 54.6604> 128 106<-62.9409 -1.271>
AnchorPoint: "bottom" 430 41 basemark 0
AnchorPoint: "top" 392 933 basemark 0
LayerCount: 2
Fore
SplineSet
72 906 m 256
 145.418848608 906 312.658131637 583.686337255 398 488 c 257
 399.6503603 490.829189085 518.270310631 713.943171096 554 776 c 257
 564 790 584 818 606 854 c 256xa0
 626 886 642 908 666 908 c 256
 682 908 692 892 692 880 c 256
 692 875.556 692.79 869.136 692.79 861.794 c 256
 692.79 828.526666667 676.206873289 817.471248859 662 808 c 256
 658 806 502 504 488 476 c 256
 478 458 462 428 458 420 c 257
 468 410 466 412 502 366 c 256
 504 364 506 364 510 358 c 256
 522.30960017 341.587199773 576.663388656 250.270272479 606 218 c 256
 670 148 664 168 690 140 c 256
 700 130 704 114 704 92 c 256
 704 63 693 28 658 28 c 256
 636 28 614 52 580 106 c 256
 566.748358626 125.877462061 454.88136386 292.992727017 412 342 c 257
 348 250 272 134 216 30 c 257
 208 18 208 10 208 6 c 256xc0
 208 2 214 -4 224 -10 c 257
 236 -20 234 -22 234 -32 c 256
 234 -46 202 -78 188 -78 c 256
 178 -78 128 -55 128 -48 c 256xa0
 128 -35.5642182986 120 -8.26911503473 120 2 c 256xc0
 120 12 122 20 128 30 c 256
 146 62 144 62 166 106 c 256
 210 198 230 232 296 328 c 257
 313 349 336 392 346 416 c 257
 336 430 324 446 312 468 c 257
 266 542 234 568 188 642 c 256
 142 718 110 752 70 796 c 256
 52 816 26 830 26 852 c 256
 26 860 30 866 38 874 c 257
 48 888 60 906 72 906 c 256
EndSplineSet
Validated: 1
EndChar

StartChar: Xi
Encoding: 926 926 151
GlifName: X_i
Width: 788
VWidth: 0
Flags: W
HStem: 9 85<122.257 609.6> 58 104<665.667 714.541> 408 92<167.731 449.616> 533 20G<604 623> 820 76<349.009 705.689>
LayerCount: 2
Fore
SplineSet
385 819 m 256
 256.598888325 819 145.082929857 786 101 786 c 256
 77 786 50 799 50 826 c 256
 50 842 62 858 74 866 c 256
 86 874 109 874 123 876 c 256x38
 217 892 317 904 422 904 c 258
 435 904 l 258
 489 904 531 896 591 896 c 256
 612 896 634 899 655 899 c 256
 692.514335124 899 717 893.217576738 717 869 c 256
 717 849 696 828 684 822 c 256
 675 818 664 817 653 817 c 256
 634 817 613 820 595 820 c 258
 588 820 l 258
 576 820 561 821 548 821 c 256
 517.489024843 821 539.010975157 818 464 818 c 256
 437 818 412 819 385 819 c 256
551 540 m 256
 566 544 593 553 615 553 c 256
 631 553 654 544 654 525 c 256
 654 501 611 478 591 470 c 256
 559 458 523 452 491 440 c 257
 439 423 323 408 268 408 c 256
 243 408 184 410 167 430 c 256
 159 440 149 452 149 464 c 256
 149 467 150 469 151 472 c 256
 169.4610288 518.152572 361.335473848 484.952992528 505 526 c 256
 521 530 535 536 551 540 c 256
637 126 m 256
 655 134 698 162 725 162 c 256
 744 162 751 144 751 128 c 256
 751 123 750 118 749 114 c 256
 741 84 695 72 671 58 c 256x78
 635.883598912 35.8212203653 593.416666667 9 379 9 c 256xb8
 333 9 287 10 239 12 c 256
 203 14 163 10 135 24 c 256
 106.481927101 38.2590364494 94 47.360592014 94 67 c 256
 94 85 110 99 127 99 c 256
 137 99 148 96 159 96 c 256
 188 97 217 97 245 97 c 256
 314 97 381 95 452 94 c 257
 467 94 l 258xb8
 534 94 590 106 637 126 c 256
EndSplineSet
Validated: 1
EndChar

StartChar: Y
Encoding: 89 89 152
GlifName: Y_
Width: 710
VWidth: 0
Flags: W
VStem: 336 84<37.6172 345.564>
AnchorPoint: "bottom" 380 41 basemark 0
AnchorPoint: "top" 364 937 basemark 0
LayerCount: 2
Fore
SplineSet
336 88 m 256
 336 101.855722773 350 313.715705798 350 316 c 256
 350 344 354 354 358 380 c 257
 351 378 345 378 339 378 c 256
 318 378 302 389 286 406 c 257
 252 446 242 470 212 510 c 256
 182 548 172 582 148 626 c 256
 142 636 134 662 110 708 c 256
 72 782 38 816 38 864 c 256
 38 890 52 902 82 902 c 256
 102 902 108 898 110 890 c 256
 112 884 116 878 126 862 c 257
 134 852 154 818 164 792 c 256
 174 768 204 720 222 684 c 257
 254 624 256 624 296 550 c 256
 308 528 324 510 340 496 c 257
 356 480 372 460 374 450 c 257
 392 508 410 550 434 608 c 256
 460 670 488 752 510 800 c 256
 534 854 540 880 574 914 c 256
 598 938 620 950 640 950 c 257
 662 948 674 940 674 928 c 256
 674 916 666 902 652 888 c 257
 640 874 624 854 610 830 c 256
 565.802788701 753.882580541 553.333251564 680.256234138 504 574 c 257
 494 548 484 524 476 496 c 256
 472 480 470 460 464 442 c 256
 447.333333333 392 447.333333333 392 438 322 c 256
 432 266 420 188 420 118 c 256
 420 80 426 54 436 44 c 256
 446 34 452 24 452 14 c 256
 452 -8 413 -38 392 -38 c 256
 382 -38 376 -36 370 -30 c 256
 364 -24 360 -12 352 4 c 257
 342 28 336 56 336 88 c 256
EndSplineSet
Validated: 1
EndChar

StartChar: Z
Encoding: 90 90 157
GlifName: Z_
Width: 786
VWidth: 0
Flags: W
HStem: 0 82<185.624 478.376> 796 84<85.7215 499.368> 887 20G<582.5 615.5>
AnchorPoint: "bottom" 420 41 basemark 0
AnchorPoint: "top" 386 935 basemark 0
LayerCount: 2
Fore
SplineSet
293 880 m 256
 480.105457753 880 469.878933984 901.593946699 558 906 c 256
 568 906 578 907 587 907 c 256
 644 907 674 899 683 896 c 256
 690 893 695 882 695 874 c 256
 695 859 693 846 686 834 c 256
 668 804 659 789 639 751 c 257
 569 638 504 555 424 445 c 256
 421.51717574 441.575414814 245.216496104 197.615337176 185 96 c 257
 201 88 229 82 255 82 c 256
 460.939018908 82 522.632409664 110 641 110 c 256
 657 110 681 104 698 101 c 256
 748 95 764 83 764 66 c 256
 764 36 720 19 696 17 c 256
 536 7 376 0 208 0 c 257
 157 2 125 4 113 6 c 256
 91 10 61 37 61 59 c 256
 61 112.420455592 158.945704932 186.91141331 235 311 c 257
 273 365 306 417 348 479 c 256
 434 606 543 728 582 826 c 257
 474.518560414 820.488131303 418.960217575 796 263 796 c 256
 207.566302065 796 38 796.295575327 38 862 c 256
 38 870 53 892 60 896 c 257
 66 897 76 899 93 899 c 256
 121 899 128 892 145 889 c 256
 175 882 201 880 293 880 c 256
EndSplineSet
Validated: 1
EndChar

StartChar: a
Encoding: 97 97 162
GlifName: a
Width: 533
VWidth: 0
Flags: W
HStem: -12 86<150.357 331.599> 230 84<226.489 340.169> 462 90<162.519 356.109>
VStem: 56 94<77.8264 149.217> 380 88<109.115 192.771> 404 80<266.512 417.344>
AnchorPoint: "bottom" 270 41 basemark 0
AnchorPoint: "top" 272 605 basemark 0
LayerCount: 2
Fore
SplineSet
274 230 m 256xf8
 246 230 208 196 186 170 c 256
 168 148 150 110 150 98 c 256
 150 76 176 74 236 74 c 256
 287 74 340 93 380 124 c 257
 380 140 376 162 366 182 c 257
 356 206 308 230 274 230 c 256xf8
224 548 m 256
 242 550 258 552 274 552 c 256
 306 552 322 550 356 538 c 257
 396 520 406 518 428 498 c 257
 480 446 484 367 484 298 c 256xf4
 484 216 468 116 468 52 c 256xf8
 468 38 464 18 460 12 c 256
 456 6 432 -6 416 -6 c 256
 400 -6 392 10 388 28 c 257
 340 2 266 -12 200 -12 c 256
 162 -12 116 -8 102 0 c 256
 84 10 56 74 56 96 c 256
 56 152 86 192 120 228 c 256
 158 268 200 314 296 314 c 256
 338 314 380 290 402 264 c 257
 402 282 404 290 404 308 c 256xf4
 404 356 402 386 392 404 c 257
 378 438 324 462 274 462 c 256
 202 462 162 448 126 416 c 256
 100 394 102 368 62 368 c 256
 52 368 42 376 42 404 c 256
 42 422 44 434 50 444 c 256
 92 508 138 538 224 548 c 256
EndSplineSet
Validated: 1
Substitution2: "cv01cursiveacyrlaandgrkalpha subtable" uniE037
EndChar

StartChar: acute
Encoding: 180 180 166
GlifName: acute
Width: 374
VWidth: 0
Flags: W
HStem: 654 244
VStem: 36 304
LayerCount: 2
Fore
SplineSet
248 878 m 261
 266 892 284 898 300 898 c 260
 325 898 340 885 340 860 c 260
 340 817 146 679 98 658 c 260
 92 655 84 654 77 654 c 260
 64 654 36 663 36 680 c 260
 36 700.753153153 36 708.2 147 797 c 260
 185 828 222 860 248 878 c 261
EndSplineSet
Validated: 1
EndChar

StartChar: acutecomb
Encoding: 769 769 167
GlifName: acutecomb
Width: 0
VWidth: 0
HStem: 896 244
VStem: -430 304
AnchorPoint: "top" -304 1128 basemark 0
AnchorPoint: "top" -300 880 mark 0
LayerCount: 2
Fore
SplineSet
-218 1120 m 257
 -200 1134 -182 1140 -166 1140 c 256
 -141 1140 -126 1127 -126 1102 c 256
 -126 1059 -320 921 -368 900 c 256
 -374 897 -382 896 -389 896 c 256
 -402 896 -430 905 -430 922 c 256
 -430 942.753153153 -430 950.2 -319 1039 c 256
 -281 1070 -244 1102 -218 1120 c 257
EndSplineSet
Validated: 1
EndChar

StartChar: ae
Encoding: 230 230 169
GlifName: ae
Width: 830
VWidth: 0
Flags: W
HStem: -13 81<148.5 299.927> -4 93<486.102 663.147> 200 85<441.773 613.951> 201 97<172.09 338> 458 78<513.344 649.6> 467 88<177.765 311.661>
VStem: 45 79<81.7174 166.248> 684 90<339.428 423.058>
AnchorPoint: "bottom" 402 27 basechar 0
AnchorPoint: "top" 412 645 basechar 0
LayerCount: 2
Fore
SplineSet
317 102 m 257x93
 337 139 338 161 338 201 c 257
 277 201 192 197 160 177 c 256
 134 161 124 159 124 122 c 256
 124 96 145 80 160 73 c 256
 163 72 180 68 204 68 c 256
 232 68 303 82 317 102 c 257x93
650 437 m 256
 632 451 610 458 583 458 c 256
 537 458 526 447 490 417 c 256
 445.339198356 379.782665297 444.357635537 360.151703397 441 293 c 257
 461 291 482 285 504 285 c 256x2b
 527 285 551 288 574 293 c 257
 594 296 621 309 632 316 c 256
 648 328 684 350 684 375 c 256
 684 384 669 421 650 437 c 256
594 89 m 256
 650.644486374 89 720.807894578 152 747 152 c 256
 766 152 782 137 782 114 c 256
 782 96 779 88 772 82 c 256
 711 30 644 -4 563 -4 c 256x53
 506 -4 439 26 400 68 c 257
 391 53 365 24 349 14 c 256
 326 -2 297 -13 221 -13 c 256
 167 -13 80 4 63 42 c 256
 45 84 45 95 45 134 c 256
 45 273 218 296 324 296 c 256
 329 296 335 298 342 298 c 257
 342 325 342 345 338 386 c 256
 336 414 312 457 288 464 c 257
 281 465 266 467 245 467 c 256x97
 214 467 191 460 178 446 c 257
 164 429 149 428 124 428 c 256
 91 428 86 435 86 467 c 256
 86 500.210002508 142.365995642 555 236 555 c 256x97
 259 555 282 551 302 548 c 256
 333 544 395 492 403 462 c 257
 452 501 507 536 590 536 c 256
 746.715659644 536 774 394.436584633 774 370 c 256
 774 343 757 317 740 298 c 256x1b
 668 216 583 200 476 200 c 256x23
 465 200 454 200 441 201 c 257
 443.455473255 156.802831982 447.222412361 89 594 89 c 256
EndSplineSet
Validated: 1
EndChar

StartChar: alpha
Encoding: 945 945 172
GlifName: alpha
Width: 622
VWidth: 0
Flags: W
HStem: -1 81<174.25 274.995> 460 84<205.027 263.234>
VStem: 64 76<115.951 333.05> 457 77<433.581 531.013>
AnchorPoint: "top" 306 573 basemark 0
AnchorPoint: "bottom" 316 41 basemark 0
LayerCount: 2
Fore
SplineSet
358 237 m 257
 332 304 310 376 270 429 c 256
 261 441 252 460 233 460 c 256
 229 460 224 459 219 457 c 256
 194.577215871 445.506925116 140 298.068436481 140 205 c 256
 140 157 158 80 218 80 c 256
 227 80 237 82 248 85 c 256
 275 93 280 109 295 130 c 256
 322 166 340 200 358 237 c 257
240 544 m 256
 300.180101056 544 343.58299381 487.025248766 407 349 c 257
 410 357 414 366 417 374 c 256
 430 412 442 457 457 495 c 256
 457.242465765 495.575856191 477.324250483 543 497 543 c 256
 518 543 534 517 534 498 c 256
 534 443 475 294 452 244 c 257
 458 232 463 220 468 208 c 256
 483 174 503 140 516 113 c 257
 523.884545068 89.3463647975 565.889569679 83.8803790168 569 45 c 257
 569 11 556 2 522 2 c 256
 512 2 504 4 497 7 c 256
 486 13 480 24 472 32 c 256
 442 63 419 101 399 143 c 257
 323.375 4.35416666667 273.248347107 1.56935261708 227 -1 c 257
 217 -1 l 258
 91 -1 64 101 64 208 c 256
 64 250 69 291 77 324 c 256
 96 409 130 544 240 544 c 256
EndSplineSet
Validated: 1
Substitution2: "ss02GreekCursive subtable" uniE048
Substitution2: "cv01cursiveacyrlaandgrkalpha subtable" uniE048
EndChar

StartChar: ampersand
Encoding: 38 38 175
GlifName: ampersand
Width: 628
VWidth: 0
Flags: W
HStem: 36 92<188.508 279.383> 822 86<225.05 302.728>
VStem: 42 80<197.195 298.807> 124 82<536.904 808.368> 344 82<624.322 770.59> 476 106<448.021 514.491>
LayerCount: 2
Fore
SplineSet
208 356 m 257
 160 322 122 286 122 248 c 256
 122 208 195 128 234 128 c 256
 262 128 282 150 300 174 c 256
 316 194 326 204 332 216 c 257
 302 242 246 308 208 356 c 257
250 822 m 256
 213 822 206 738 206 710 c 256
 206 708.017173734 207.064443781 586.338890547 236 514 c 257
 294 572 344 640 344 698 c 256
 344 730 328 762 316 782 c 256
 298 812 282 822 250 822 c 256
124 728 m 256
 124 815 144 908 250 908 c 256
 338 908 366 872 402 798 c 256
 414 774 426 730 426 694 c 256
 426 636 406 596 384 560 c 256
 352 506 292 440 274 416 c 257
 329.5 342 329.5 342 342 332 c 256
 354 322 368 300 384 288 c 257
 429.826725499 367.155253134 475.372565664 505.699407434 476 508 c 256
 478 516 494 526 512 526 c 256
 536 526 582 512 582 494 c 256
 582 480 566 450 558 442 c 256
 552 436 534 400 528 388 c 257
 512 342 482 292 450 224 c 257
 468 202 482 182 520 152 c 256
 560 120 582 116 610 106 c 257
 628 98 640 90 640 78 c 256
 640 66 632 14 616 14 c 256
 580 14 555.679012346 28.5925925926 510 56 c 257
 478 72 458 90 434 114 c 256
 424 124 404 142 396 150 c 257
 363 101 297 36 236 36 c 256
 222 36 206 38 192 46 c 256
 156 64 114 110 82 148 c 256
 42 198 42 234 42 266 c 256
 42 324 78 360 166 442 c 257
 132 509 124 651 124 728 c 256
EndSplineSet
Validated: 1
EndChar

StartChar: anoteleia
Encoding: 903 903 176
GlifName: anoteleia
Width: 210
VWidth: 0
Flags: W
HStem: 200 118<70.6777 152.184>
VStem: 68 104<242.642 308.154>
LayerCount: 2
Fore
SplineSet
172 270 m 256
 172 240.430818971 142.698466108 200 122 200 c 256
 104 200 52 221 52 242 c 256
 52 256 68 250 68 280 c 256
 68 306 82 318 112 318 c 256
 142 318 172 304 172 270 c 256
EndSplineSet
Validated: 1
EndChar

StartChar: aogonek
Encoding: 261 261 177
GlifName: aogonek
Width: 528
VWidth: 0
Flags: W
HStem: -314.001 82<450.375 568.425> -73.001 79.001<152.506 266.308> -35 20G<434 436.999 437 441.499> -22 21G<457.499 466.999> 210 84<212.368 378.22> 461 87<210.384 340.432>
VStem: 44.7011 82.6179<31.4053 140.856> 332 78<-190.681 -32.0061>
AnchorPoint: "bottom" 270 -219 basemark 0
AnchorPoint: "top" 270 585 basemark 0
LayerCount: 2
Fore
SplineSet
127.319 92.082 m 256
 127.319 57.4149901821 151.985987557 6 198 6 c 256
 224 6 252 21 272 30 c 256
 296 40 318 54 340 66 c 256
 362 78 380 104 401 109 c 257xcf
 399.776849231 118.78520615 395.251660971 165.490034175 392 185 c 256
 391 185 391 186 390 186 c 256
 362 200 337 210 304 210 c 256
 228.788375196 210 127.319 154.272251492 127.319 92.082 c 256
494.554 20.4502 m 256
 494.554 -19.7109664339 467.229557397 -22 460.999 -22 c 256x9f
 453.999 -22 445.999 -19 436.999 -15 c 257
 437 -15 434 -24.001 434 -24.001 c 257
 426 -57.001 410 -87.001 410 -124.001 c 256
 410 -183.001 453 -232.001 514 -232.001 c 257
 525 -230.001 537 -222.001 549 -222.001 c 258
 552 -222.001 l 257
 569.089 -225.166 580.169 -243.954 580.169 -263.152 c 256
 580.169 -298.519390358 545.446041139 -314.001 507 -314.001 c 256
 440 -314.001 368 -279.001 346 -212.001 c 256
 340 -193.001 332 -165.001 332 -144.001 c 256
 332 -93.001 339 -60.001 358 -10.001 c 257
 310 -51.001 282 -73.001 220 -73.001 c 256xcf
 141 -73.001 98 -43.001 62 27.999 c 256
 53.0742 46.5947 44.7011 66.8506 44.7011 91.2354 c 256
 44.7011 99.6338 45.6943 108.521 48 118 c 256
 60 174 100 205 138 236 c 256
 176 266 218 285 278 292 c 256
 289 294 301 294 312 294 c 256
 336 294 360 290 379 280 c 257
 374 316 368 354 363 385 c 256
 355 427 338 461 287 461 c 256
 263 461 241 457 221 447 c 256
 189 431 181 375 145 375 c 256
 131 375 105 387 105 415 c 256
 105 439 125 461 137 477 c 256
 157 502 183 530 219 537 c 257
 244 544 267 548 289 548 c 256
 346 548 391 525 413 481 c 257
 445 423 459 328 467 247 c 257
 476 177 474 145 486 82 c 257
 488.091 65.2715 494.554 41.2559 494.554 20.4502 c 256
EndSplineSet
Validated: 1
Substitution2: "cv01cursiveacyrlaandgrkalpha subtable" uniE041
EndChar

StartChar: aring
Encoding: 229 229 178
GlifName: aring
Width: 526
VWidth: 0
Flags: W
HStem: -34 90<151.813 288.079> 173 80<167.06 322.136> 477 113<202.54 281.633> 747 75<216.662 301.625>
VStem: 54.9619 91.6281<58.7314 143.125> 109.001 78.999<597.199 714.13> 334 84<636.981 717.346> 361.001 80.999<221.697 414.791>
AnchorPoint: "bottom" 254 21 basechar 0
AnchorPoint: "top" 264 865 basechar 0
LayerCount: 2
Fore
SplineSet
146.59 106.125 m 256
 146.59 90.8907950894 150.173180896 56 183 56 c 256
 244 56 316 84 372 106 c 257
 368 117 366 119 364 122 c 256xf8
 348 140 291 173 249 173 c 256
 235 173 220 171 206 165 c 257
 199 164 186 162 179 158 c 257
 166.008068595 153.669356198 146.59 141.311525346 146.59 106.125 c 256
195 626 m 257
 198 599 214 590 239 590 c 256
 245 590 250 590 255 594 c 256
 280 614 282 608 307 632 c 256
 323 646 334 664 334 678 c 256
 334 714 277 747 246 747 c 256
 240 747 226 743 219 729 c 257
 202 702 188 684 188 660 c 256xf6
 188 648 193 632 195 626 c 257
390 38 m 257
 356.229048245 -1.39944371457 214.247009602 -34 170 -34 c 256
 154 -34 136 -29 114 -20 c 257
 98 -11 85 -4 78 3 c 256
 71 11 67 27 62 43 c 256
 57.4024 54.8232 54.9619 72.2558 54.9619 88.2119 c 256
 54.9619 89.8161048445 54.9906266021 181.659981588 130.001 230 c 256
 154.001 245 174.001 252 192.001 252 c 256
 203.001 252 217.001 253 230.001 253 c 256
 236.001 253 242.001 253 246.001 252 c 256
 291.001 246 318.001 241 327.001 237 c 256
 336.001 234 354.001 227 364.001 221 c 257
 361.001 236 361.001 243 361.001 272 c 256xf9
 361.001 277 357.001 284 357.001 293 c 256
 354.001 340 350.001 363 348.001 387 c 256
 346.001 407 330.001 435 316.001 457 c 257
 301.001 476 292.001 477 271.001 477 c 257
 222.001 470 179.001 448 145.001 410 c 257
 118.001 383 100.001 371 87.001 371 c 256
 71.001 371 64.001 387 64.001 419 c 256
 64.001 432 71.001 446 87.001 466 c 256
 103.001 486 120.001 493 130.001 502 c 256
 139.001 509 156.001 520 170.001 531 c 257
 163.001 533 152.001 545 147.001 551 c 256
 130.001 569 109.001 596 109.001 662 c 256
 109.001 705 113.001 734 139.001 768 c 257
 163.001 795 201.001 822 229.001 822 c 256
 265 822 348 794 372 770 c 256
 393 749 418 705 418 675 c 256xf6
 418 659 411 644 399 632 c 256
 386 619 375 603 366 592 c 256
 357 581 343 569 323 556 c 257
 337 549 350 542 364 525 c 256
 391 495 386 500 411 468 c 257
 422 452 440 381 442 281 c 256
 444 182 451 126 454 115 c 256
 458 102 462 84 462 75 c 256
 462 61 462 34 456 27 c 256
 453 23 440 14 411 14 c 256
 398.349670403 14 390.622836933 34.2629784041 390 38 c 257
EndSplineSet
Validated: 1
Substitution2: "cv01cursiveacyrlaandgrkalpha subtable" uniE03E
EndChar

StartChar: asciicircum
Encoding: 94 94 180
GlifName: asciicircum
Width: 470
VWidth: 0
Flags: W
HStem: 908 20G<273 288>
VStem: 18 106<488.289 584.618> 224 84<848.488 916.111>
LayerCount: 2
Fore
SplineSet
224 886 m 256
 224 908.19996575 259.77341303 928 278 928 c 256
 298 928 300 910 308 892 c 256
 308.152540347 891.542378959 347.874458807 794.50216477 360 746 c 256
 365 727 394 639 404 624 c 257
 416 602 428 586 438 574 c 257
 454 550 462 540 462 516 c 256
 462 496 454 484 428 484 c 256
 414 484 404 484 398 488 c 256
 392 492 386 502 376 514 c 257
 360 540 348 552 346 556 c 256
 336 580 328 600 310 648 c 257
 284 712 280 730 258 778 c 257
 252 772 248 762 238 750 c 257
 160.970342209 639.269866925 143.665427509 614.394052045 124 520 c 256
 122 510 120 494 116 488 c 256
 112 482 86 476 70 476 c 256
 36 476 18 490 18 524 c 256
 18 548 48 604 68 636 c 256
 102 690 90 688 130 746 c 256
 170 806 156 784 198 842 c 257
 214 866 224 880 224 886 c 256
EndSplineSet
Validated: 1
EndChar

StartChar: asciitilde
Encoding: 126 126 181
GlifName: asciitilde
Width: 490
VWidth: 0
Flags: W
HStem: 164 86<319.825 377.027> 316 94<154.241 208.239>
LayerCount: 2
Fore
SplineSet
67 226 m 256
 52.522228022 226 32 233.79587128 32 278 c 256
 32 309 139 410 176 410 c 256
 192 410 212 404 230 386 c 256
 262.290901456 353.709098544 319.946300393 250 354 250 c 256
 377.345155552 250 390.245320639 320 427 320 c 256
 439.14199913 320 460 306.899229759 460 276 c 256
 460 262 442 234 416 202 c 256
 392 172 372 164 342 164 c 256
 280.734722589 164 204.191812499 316 186 316 c 256
 158.029837065 316 111.877570342 226 67 226 c 256
EndSplineSet
Validated: 1
EndChar

StartChar: asterisk
Encoding: 42 42 182
GlifName: asterisk
Width: 460
VWidth: 0
Flags: W
HStem: 538 21G<68 97> 640 88<314.747 425.113> 800 72<337.253 429.724> 916 20G<252 275>
VStem: 44 96<555.824 631.358> 213.5 90.5<846 924.144> 222 92<487.989 660> 246 96<445.75 556.954>
LayerCount: 2
Fore
SplineSet
428 640 m 256
 396.451508326 640 388.029102893 650.746362138 314 660 c 257xfa
 314 632 316 608 318 582 c 256
 326 464 342 494 342 462 c 256
 342 448 324 440 298 440 c 256
 270 440 256 446 246 480 c 256xf9
 228 538 222 570 222 620 c 258
 222 674 l 257
 220 676 212 680 208 682 c 257
 190 664 150 626 140 598 c 257
 124 560 114 538 80 538 c 256
 56 538 44 554 44 586 c 256
 44 638 90 700 130 732 c 257
 120 736 96 744 82 748 c 256
 40 760 20 784 20 806 c 256xfa
 20 828 46 848 70 848 c 256
 130.822414747 848 175.683762034 808.386039661 214 802 c 257
 214 808 213.5 819.5 213.5 832.25 c 256
 213.5 845 214 859 216 870 c 256
 224 924 240 936 264 936 c 256
 304 936 304 872.733333333 304 846 c 257xfc
 326 856 360 872 376 872 c 256
 396 872 416 868 432 848 c 257
 442 838 446 828 446 820 c 256
 446 793.519825708 390.469782825 811.125590186 308 764 c 257
 308 758 310 758 310 750 c 257
 342 744 368 732 378 728 c 256
 442 704 452 688 452 656 c 256
 452 644 440 640 428 640 c 256
EndSplineSet
Validated: 1
EndChar

StartChar: at
Encoding: 64 64 183
GlifName: at
Width: 930
VWidth: 0
Flags: W
HStem: -160 94<281.636 517.176> 110 88<595.012 732.918> 200 92<344 448.294> 558 88<474.046 542.003> 802 76<321.836 552.643>
VStem: 34 82<105.128 474.289> 286 86<267 414.906> 842 72<328.956 557.925>
LayerCount: 2
Fore
SplineSet
584 522 m 256
 540.055745696 522 529.49980986 558 512 558 c 256
 490 558 446 518 420 464 c 257
 406 432 372 398 372 324 c 256
 372 302 378 292 398 292 c 256
 410 292 462 320 468 326 c 256
 478 336 488 344 508 374 c 256
 530 406 550 418 568 418 c 256
 596 418 606 392 606 362 c 256
 606 336 570 312 570 278 c 256
 570 256 574 242 576 240 c 256
 596 212 622 198 662 198 c 256
 682 198 716 206 726 214 c 256
 792 264 842 334 842 430 c 256
 842 484 834 518 828 536 c 256
 810 592 770 666 726 700 c 256
 672 740 654 744 618 760 c 256
 586 774 478 802 428 802 c 256
 292 802 224 722 176 600 c 256
 128 476 116 372 116 298 c 256
 116 128 122 84 206 0 c 256
 256 -50 326 -66 408 -66 c 256
 476 -66 540 -50 578 -20 c 257
 672 50 718 56 738 56 c 256
 748 56 750 54 750 48 c 256
 750 40 732 14 662 -44 c 256
 596 -97 512 -160 424 -160 c 256
 332 -160 212 -130 154 -66 c 256
 108.829489114 -16.4226100032 34 65.7073170732 34 292 c 256
 34 438 74 538 96 612 c 256
 110 664 176 782 220 812 c 256
 280 854 326 878 410 878 c 256
 514 878 663 846 746 778 c 257
 858 694 914 556 914 418 c 256
 914 314 890 258 810 186 c 256
 756 138 720 110 650 110 c 256
 615.519781737 110 508.473668638 135.776405329 490 242 c 257
 442 210 432 200 372 200 c 256
 316 200 286 246 286 288 c 256
 286 384 288 418 364 538 c 256
 416 618 460 646 512 646 c 256
 565 646 618 637 618 574 c 256
 618 542 616 522 584 522 c 256
EndSplineSet
Validated: 1
EndChar

StartChar: b
Encoding: 98 98 185
GlifName: b
Width: 600
VWidth: 0
Flags: W
HStem: -22 88<186.657 308.586> 442 96<336.446 459.743> 888 20G<77 98>
VStem: 37.1817 92.8183<620.48 891.681> 50 85.777<444.088 871.465> 478 82<226.218 424.507>
AnchorPoint: "bottom" 300 41 basemark 0
AnchorPoint: "top" 310 585 basemark 0
LayerCount: 2
Fore
SplineSet
478 314 m 256xe4
 478 398 472 416 440 438 c 256
 434 442 424 442 412 442 c 256
 366 442 326 418 298 392 c 256
 278 374 268 360 258 350 c 256
 193 282 178 220 178 130 c 256
 178 114 184 84 188 72 c 257
 196 68 212 66 240 66 c 256
 272 66 296 82 326 96 c 256
 408 133 478 222 478 314 c 256xe4
37.1817 871.615 m 256xf4
 37.1817 888.233987395 63.2220319861 908 82 908 c 256
 114 908 130 869 130 842 c 256
 130 832 136 778 136 684 c 256
 136 665.333 135.777 628 135.777 584.148 c 256
 135.777 496.444 136.666 382.667 142 340 c 257
 162 368 164 372 214 424 c 256
 268 480 296 508 352 526 c 256
 376 534 398 538 414 538 c 256
 471 538 530 482 552 432 c 256
 560 414 560 380 560 336 c 256
 560 286 558 254 552 236 c 257
 506 131 468 75 370 18 c 256
 304 -20 282 -22 200 -22 c 256
 144 -22 114 -18 108 -10 c 256
 102 -2 94 54 82 158 c 256
 66 284 50 286 50 692 c 256xec
 50 788 48 846 40 862 c 256
 38.0772 865.205 37.1817 868.41 37.1817 871.615 c 256xf4
EndSplineSet
Validated: 1
EndChar

StartChar: backslash
Encoding: 92 92 186
GlifName: backslash
Width: 616
VWidth: 0
Flags: W
LayerCount: 2
Fore
SplineSet
410 324 m 256
 442 274 468 220 518 172 c 256
 574 118 604 84 604 68 c 256
 604 52 586 36 576 36 c 256
 548 36 546 38 536 48 c 256
 526 58 524 70 496 92 c 256
 422 152 388 220 360 266 c 256
 344 294 268 396 248 424 c 257
 222 458 186 528 152 602 c 256
 146 614 132 654 100 716 c 256
 68 778 44 820 32 834 c 256
 26 840 24 844 24 852 c 256
 24 871 49 902 68 902 c 256
 89 902 132 841 144 824 c 257
 156 798 174 764 192 722 c 256
 242 600 248 586 310 478 c 257
 344 424 378 374 410 324 c 256
EndSplineSet
Validated: 1
EndChar

StartChar: bar
Encoding: 124 124 187
GlifName: bar
Width: 221
VWidth: 0
Flags: W
HStem: -288 21G<144 161.5>
VStem: 54 82<228.154 685.573> 62 106<649.529 829.828> 62 74<46.0466 447.579>
LayerCount: 2
Fore
SplineSet
112 870 m 256xa0
 130.501893059 870 168 798.242066362 168 748 c 256xa0
 168 723.153232331 144.721064971 657.210649706 140 610 c 256
 138 596 136 536 136 430 c 256xc0
 136 277.465280736 137.33579312 240.976017075 168 -58 c 256xa0
 173 -104 176 -146 188 -180 c 257
 198 -212 204 -228 204 -236 c 256
 204 -255 171 -288 152 -288 c 256
 136 -288 115 -277 106 -246 c 256
 76.8305986148 -141.823566481 66.4200085751 77.3997427466 62 210 c 256x90
 57 310 54 365 54 466 c 256xc0
 54 546.874753879 61.1980627948 824.792251179 68 852 c 256
 71 863 98 870 112 870 c 256xa0
EndSplineSet
Validated: 1
EndChar

StartChar: beta
Encoding: 946 946 188
GlifName: beta
Width: 636
VWidth: 0
Flags: W
HStem: -332 21G<158 180.5> -2 94<311.461 434.586> 817 92<228.339 323.731>
VStem: 68 85<68.6868 561.108> 125 83<-319.66 -167.3> 381 80<556 739.353> 495 88<153.371 292.983>
AnchorPoint: "top" 278 943 basemark 0
AnchorPoint: "bottom" 334 47 basemark 0
LayerCount: 2
Fore
SplineSet
68 299 m 256
 68 643.168614862 94.5515379076 909 271 909 c 260xf6
 398.173556982 909 461 760.557886261 461 661 c 256
 461 583 449 524 404 460 c 257
 455 437 501 403 531 357 c 256
 558 314 583 263 583 212 c 256
 583 97 469 -2 357 -2 c 258
 343 -2 l 257
 266.300715253 2.5117226322 219 66.5557867825 219 97 c 256
 219 122 246 129 267 129 c 256
 317.959185642 129 310.824598141 92 363 92 c 256
 431 92 495 148 495 217 c 256
 495 247 484 278 468 302 c 256
 443 342 419 354 377 375 c 256
 366 381 352 380 341 384 c 257
 314 367 282 340 255 340 c 256
 227 340 219 367 219 391 c 256
 219 405 223 417 231 420 c 256
 267 435 299 459 318 487 c 256
 349 530 381 583 381 648 c 256
 381 705 342 817 277 817 c 256
 266 817 253 814 240 806 c 256
 155 756 153 405 153 331 c 256xf6
 153 -39.256224437 208 -164.961957381 208 -289 c 256
 208 -310 189 -332 172 -332 c 258
 170 -332 l 258
 146 -332 131 -297 125 -273 c 256xee
 76 -77 68 189 68 299 c 256
EndSplineSet
Validated: 1
Substitution2: "ss02GreekCursive subtable" uni03D0
Substitution2: "cv04closedbeta subtable" uni03D0
EndChar

StartChar: braceleft
Encoding: 123 123 189
GlifName: braceleft
Width: 458
VWidth: 0
Flags: W
HStem: -258 84<288.286 380.976> 787 99<300.181 379.281>
VStem: 122 82<538.039 668.43> 190 78<-154.35 106.549> 217 80<30.1191 217.902>
LayerCount: 2
Fore
SplineSet
204 604 m 256
 204 549.075639784 276 467.757693549 276 435 c 256
 276 391 233 352 192 332 c 257xe8
 258 291 297 285 297 172 c 256xe8
 297 103.094796749 268 45.0661227916 268 -57 c 256
 268 -89 274 -174 323 -174 c 256
 347 -174 349 -154 377 -154 c 256
 391 -154 403 -156 413 -162 c 257
 425.389 -172.324 433.011 -175.721 433.011 -182.624 c 256
 433.011 -210.707 366.689 -258 325 -258 c 256
 283 -258 248 -235 232 -219 c 256
 205 -192 190 -142 190 -80 c 256xd0
 190 15.4670657202 217 121.471205885 217 176 c 256
 217 199.34274482 209.930301224 215.534849388 147 247 c 256
 111 265 75 278 62 284 c 256
 30 299 20 315 20 332 c 256
 20 366 112 394 138 400 c 256
 163 406 181 420 188 432 c 257
 186 454 159 484 146 510 c 256
 136 529 122 577 122 607 c 256
 122 655 146 711 164 738 c 256
 198 789 267 886 332 886 c 256
 371 886 432 834 432 796 c 256
 432 771 429 760 406 760 c 256
 370.43911095 760 350.227555717 787 337 787 c 256
 326 787 283 754 276 746 c 256
 250 714 204 643 204 604 c 256
EndSplineSet
Validated: 1
Substitution2: "Casesensitiveforms subtable" uniE018
EndChar

StartChar: braceright
Encoding: 125 125 190
GlifName: braceright
Width: 476
VWidth: 0
Flags: W
HStem: -292 90<80.6335 219.797> 791 81<72.4847 186.424>
VStem: 216 78<354.023 514.092> 246 83<-24.7937 140.36> 257 77<512.953 732.748> 282 80<-153.055 -4.14094>
LayerCount: 2
Fore
SplineSet
123 791 m 256
 76.9618372598 791 86.1214960736 767 63 767 c 256
 37 767 22 787 22 812 c 256
 22 835 25 842 60 858 c 256xc8
 80 867 98 872 110 872 c 256
 181 872 236 839 278 808 c 256
 317 779 334 690 334 648 c 256xc8
 334 530.20932215 294 493.061511183 294 416 c 256xe0
 294 392 296 376 304 366 c 256
 324 342 350 330 380 330 c 256
 394 330 403 332 416 332 c 256
 450 332 468 324 468 310 c 256
 468 290 445 255 426 240 c 256
 397 218 329 123 329 80 c 256xd0
 329 18 362 -24 362 -107 c 256
 362 -238.85920215 205.870538142 -292 138 -292 c 256
 137.059787258 -292 56 -291.734761177 56 -246 c 256
 56 -225 69 -192 94 -192 c 256
 109 -192 107 -202 150 -202 c 256
 195 -202 282 -153 282 -118 c 256xc4
 282 -57 246 21 246 80 c 256xd0
 246 148 301 217 331 256 c 257
 316 261 290 260 268 282 c 256
 234 316 216 346 216 378 c 256xe0
 216 463.751692999 257 551.825542773 257 647 c 256
 257 721 234 746 182 772 c 256
 166 780 137 791 123 791 c 256
EndSplineSet
Validated: 1
Substitution2: "Casesensitiveforms subtable" uniE019
EndChar

StartChar: bracketleft
Encoding: 91 91 191
GlifName: bracketleft
Width: 456
VWidth: 0
Flags: W
HStem: -324.001 102<176.419 349.485> 845.999 78<163.059 393.232> 912.999 20G<119 126>
VStem: 75 85.333<508.804 841.841> 90 71.215<169.927 616.505> 100 79<-228.771 166.912>
LayerCount: 2
Fore
SplineSet
418 881.999 m 256
 418 851.714615774 385.987028484 845.999 284 845.999 c 258
 210 845.999 l 258
 181 845.999 164 845.999 163 841.999 c 257
 161 838.666 160.333 832.666 160.333 824.962 c 256xd0
 160.333 809.555 163 787.332 163 765.999 c 256
 163 712.545 161.215 640.049 161.215 568.311 c 256
 161.215 508.528 162.454 449.272 167 402 c 256xc8
 173 340 179 31.999 179 -84.001 c 256
 179 -138.001 177 -192.001 175 -230.001 c 257
 205 -228.001 252 -222.001 296 -222.001 c 256
 322 -222.001 382 -222.001 396 -226.001 c 256
 404 -228.001 408 -230.001 410 -238.001 c 257
 414 -248.001 416 -256.001 416 -262.001 c 256
 416 -272.001 412 -283.001 402 -287.001 c 256
 392 -291.001 374 -299.001 344 -303.001 c 256
 292 -309.001 238 -311.001 192 -315.001 c 256
 159 -318.001 140 -324.001 130 -324.001 c 256
 112 -324.001 78 -291.001 78 -272.001 c 256
 78 -270.001 78 -268.001 80 -266.001 c 257
 94 -232.001 100 -164.001 100 -66.001 c 256xc4
 100 47.999 96 307.999 90 383.999 c 256xc8
 86 439.999 76 689.999 76 753.999 c 256
 76 769.999 75 786.499 75 803.499 c 256
 75 859.51630839 93.5075492049 915.506549205 104 925.999 c 256
 109 930.999 115 932.999 123 932.999 c 256xb0
 129 932.999 136 931.999 144 929.999 c 256
 166 923.999 210 923.999 280 923.999 c 256
 390.702318963 923.999 418 918.593616265 418 881.999 c 256
EndSplineSet
Validated: 1
Substitution2: "Casesensitiveforms subtable" uniE016
EndChar

StartChar: bracketright
Encoding: 93 93 192
GlifName: bracketright
Width: 502
VWidth: 0
Flags: W
HStem: -325 82<63.6376 333.293> 808 88<64.7501 334.234> 817 85<270.104 335> 817 77<152.879 334.428>
VStem: 325 81<-160.361 791.314> 334 98<-242.474 0.683594> 335 79<-242.136 74.0274 507.664 816.359>
LayerCount: 2
Fore
SplineSet
40 856 m 256
 40 904.650879934 43.9340447433 914 64 914 c 256
 80 914 96 898 126 896 c 256xc2
 148 894 252 894 270 894 c 256x92
 270.963327566 894 362.536672434 902 366 902 c 256
 411.142001082 902 414 873.863748421 414 792 c 256xa2
 414 787.4392983 406 527.977368367 406 336 c 256xa8
 406 262 412 63 412 -43 c 256
 412 -151 414 -183 422 -217 c 256
 426 -231 432 -241 432 -259 c 256
 432 -314.334939694 415.684267983 -325 320 -325 c 258
 172 -325 l 258
 116 -325 76 -315 58 -299 c 256
 42 -285 32 -279 32 -265 c 256
 32 -245 46 -231 58 -231 c 256
 80.3921043391 -231 31.6078956609 -243 244 -243 c 256
 278 -243 328 -243 334 -241 c 257xa4
 334 -225 332 -215 332 -167 c 256
 332 -23 331 -33 325 145 c 257xa8
 325 241 327 452 327 558 c 256
 327 624 333 681 335 753 c 257
 335 817 l 257
 286 817 l 257xa2
 236 814 191 808 151 808 c 256xc2
 49.1595161301 808 40 854.790661338 40 856 c 256
EndSplineSet
Validated: 1
Substitution2: "Casesensitiveforms subtable" uniE017
EndChar

StartChar: bullet
Encoding: 8226 8226 193
GlifName: bullet
Width: 416
VWidth: 0
Flags: W
HStem: 78 368<100.287 260.919>
VStem: 30 366<194.706 337.703>
LayerCount: 2
Fore
SplineSet
86 420 m 256
 96 434 128 446 164 446 c 256
 236 446 284 430 310 410 c 256
 358 372 396 324 396 260 c 256
 396 202 354 150 270 104 c 257
 240 86 208 78 176 78 c 256
 59 78 30 182 30 282 c 256
 30 328 59 385 86 420 c 256
EndSplineSet
Validated: 1
EndChar

StartChar: c
Encoding: 99 99 194
GlifName: c
Width: 504
VWidth: 0
Flags: W
HStem: -16 94<210.86 352.35> 458 88<195.386 303.51>
VStem: 50 90<162.669 387.138> 322 82<382.211 439.3>
AnchorPoint: "bottom" 270 41 basemark 0
AnchorPoint: "top" 254 619 basemark 0
LayerCount: 2
Fore
SplineSet
264 78 m 256
 356.912853429 78 415.630003714 148 464 148 c 256
 478 148 490 140 490 126 c 256
 490 116 486 102 468 84 c 257
 454 68 434 52 416 42 c 256
 380 20 330 -16 256 -16 c 256
 182 -16 136 24 100 80 c 256
 68 130 50 186 50 234 c 256
 50 240 52 260 52 270 c 256
 62 398 96 470 128 504 c 256
 156 534 208 546 256 546 c 256
 294 546 334 522 350 506 c 256
 386 470 404 458 404 426 c 256
 404 369.210560136 327.021763182 360 326 360 c 256
 316 360 310 366 310 376 c 256
 310 386 322 394 322 402 c 256
 322 436 277 458 248 458 c 256
 212 458 170 426 158 378 c 257
 146 324 140 276 140 240 c 256
 140 179 196 78 264 78 c 256
EndSplineSet
Validated: 1
EndChar

StartChar: caron
Encoding: 711 711 196
GlifName: caron
Width: 518
VWidth: 0
Flags: W
HStem: 654 244
LayerCount: 2
Fore
SplineSet
256 654 m 256
 220 654 207 674 183 706 c 256
 145.136958711 755.695241692 86 833.3125 86 854 c 256
 86 882 100 898 128 898 c 256
 148 898 163 877 179 853 c 256
 227.080526408 779.276526175 250.059550674 758.91067399 258 747 c 257
 282 776 299 796 331 837 c 256
 363 879 376 900 400 900 c 256
 425 900 432 880 432 858 c 256
 432 822 406 800 392 782 c 256
 360 740 364 748 312 684 c 256
 297 665 292 654 256 654 c 256
EndSplineSet
Validated: 1
EndChar

StartChar: ccedilla
Encoding: 231 231 198
GlifName: ccedilla
Width: 560
VWidth: 0
Flags: W
HStem: -291 21G<200.5 226.5> -13 88<179.617 312.566> 476 87<243.386 330.569>
VStem: 43 88<138.461 329.475> 338 90<-158.679 -28.8461>
AnchorPoint: "bottom" 282 -243 basemark 0
AnchorPoint: "top" 282 611 basemark 0
LayerCount: 2
Fore
SplineSet
481 158 m 256
 498.362630372 158 527 146.771891796 527 134 c 256
 527 109 491 71 468 60 c 257
 439 48 421 32 396 17 c 257
 399 6 403 -3 408 -19 c 256
 425 -71 428 -85 428 -112 c 256
 428 -141 412 -174 407 -183 c 256
 389 -211 353 -256 308 -271 c 256
 284 -278 237 -291 216 -291 c 256
 185 -291 169 -255 169 -229 c 256
 169 -224 176 -211 254 -199 c 256
 293 -192 338 -147 338 -107 c 256
 338 -89 317 -30 308 -6 c 257
 286 -8 261 -13 232 -13 c 256
 207 -13 178 -10 155 5 c 257
 97 37 72 87 52 147 c 256
 47 161 43 190 43 235 c 256
 43 311 61 379 110 437 c 257
 128 456 149 482 169 507 c 256
 199 545 246 563 293 563 c 256
 347 563 374 548 396 518 c 256
 407 503 412 487 412 474 c 256
 412 444 396 411 369 411 c 256
 358 411 351 417 345 429 c 257
 338 449 317 476 295 476 c 256
 260 476 208 429 191 402 c 256
 164 359 131 296 131 244 c 256
 131 203 137 170 149 145 c 256
 173 96 189 75 246 75 c 256
 313 75 407 106 457 149 c 256
 464 155 471 158 481 158 c 256
EndSplineSet
Validated: 1
EndChar

StartChar: cedilla
Encoding: 184 184 201
GlifName: cedilla
Width: 390
VWidth: 0
Flags: W
HStem: -326 84<43.6195 207.658>
VStem: 176 88<-0.213878 43.4236> 254 90<-199.602 -106.917>
LayerCount: 2
Fore
SplineSet
175.455 -0.347656 m 256
 175.455 34.6648634587 203.655555474 53 227 53 c 256
 244 53 260 43 264 24 c 256xc0
 271 -8 288 -30 302 -52 c 256
 334 -106 344 -108 344 -176 c 256
 344 -246 240 -326 134 -326 c 256
 74 -326 8 -294 8 -268 c 256
 8 -250 26 -226 42 -226 c 256
 60.0598670507 -226 63.0651329493 -242 118 -242 c 256
 170 -242 208 -228 232 -200 c 257
 246 -182 254 -168 254 -160 c 256xa0
 254 -142 232 -100 212 -80 c 256
 203.49560688 -71.4956068804 175.455 -42.9326237861 175.455 -0.347656 c 256
EndSplineSet
Validated: 1
EndChar

StartChar: cent
Encoding: 162 162 202
GlifName: cent
Width: 528
VWidth: 0
Flags: W
HStem: 16 94<239.349 300> 522 80<181.47 303.395>
VStem: 46 90<216.59 455.748> 302 84<-130.224 22.6936 118 482>
LayerCount: 2
Fore
SplineSet
300 110 m 257
 302 158 302 240 302 322 c 256
 302 396 304 514 304 514 c 257
 286 522 264 522 240 522 c 256
 206 522 178 508 162 470 c 257
 150 430 136 396 136 336 c 256
 136 282 144 244 160 212 c 256
 187 159 241 120 300 110 c 257
384 118 m 257
 419.551620904 133.236408959 417.962521165 158 470 158 c 256
 500 158 510 146 510 136 c 256
 510 128 494 110 464 78 c 256
 442 54 416 38 386 24 c 257
 386 -40 l 258
 386 -76 388 -134 388 -134 c 258
 388 -162 380 -174 364 -174 c 256
 312 -174 302 -19 302 16 c 257
 280 22 260 30 214 44 c 257
 188 54 164 70 136 98 c 256
 69 165 46 233 46 328 c 256
 46 414 66 486 88 524 c 256
 124 586 187 602 254 602 c 256
 272 602 294 600 306 596 c 257
 306 660 306 672 316 736 c 256
 322 768 326 786 332 792 c 256
 338 798 346 800 362 800 c 256
 402.114818166 800 404 793.187101892 404 774 c 256
 404 772.017476356 394 631.049190311 394 576 c 257
 404 572 416 556 426 546 c 257
 444 524 452 520 452 500 c 256
 452 480 448 468 422 468 c 256
 410 468 398 474 390 482 c 257
 390 468 388 448 388 428 c 256
 384 290 384 202 384 168 c 258
 384 118 l 257
EndSplineSet
Validated: 1
EndChar

StartChar: chi
Encoding: 967 967 203
GlifName: chi
Width: 598
VWidth: 0
Flags: W
HStem: -318 21G<466.5 496> 468 99<120.071 169.748> 527 20G<493 515.5>
VStem: 43 71<420.103 462.716> 113 92<-307.836 -185.152> 423 107<-296.238 -214.445>
LayerCount: 2
Fore
SplineSet
336 295 m 257
 429.410051171 517.251501062 473.614171981 547 504 547 c 256
 527 547 546 523 546 501 c 256
 546 488 541 474 533 460 c 256
 525 445 511 436 501 423 c 257
 460.286342198 361.929513297 375.1534862 169.614568719 374 167 c 257
 394 98 413 27 440 -50 c 256
 455 -94 472 -160 495 -196 c 256
 506 -214 530 -233 530 -262 c 256
 530 -287 509 -318 483 -318 c 258
 478 -318 l 257
 455 -314 431 -283 423 -264 c 256
 375.713793655 -157.16820048 364.835475578 -132.59125964 319 37 c 257
 297.482672845 -16.2270724364 220.802000338 -201.521089865 220 -204 c 256
 215 -220 205 -235 205 -251 c 256
 205 -269.811622752 223.575590679 -273.665748734 226 -287 c 256
 226 -289 227 -292 227 -294 c 256
 227 -320 208 -349 180 -349 c 256
 138 -349 113 -322 113 -282 c 256xac
 113 -223 173 -82 197 -27 c 256
 224 38 252 106 282 173 c 257
 237.729691238 320.567695872 219.014925373 382.950248756 176 439 c 256
 168 448 153 468 137 468 c 256
 132 468 128 467 123 463 c 256
 115 457 118 447 114 437 c 256
 107 423 97 414 84 414 c 256
 57 414 43 443 43 466 c 256
 43 517 98 567 147 567 c 256
 158 567 169 565 180 560 c 256
 214 545 271 463 285 431 c 256
 305 385 321 340 336 295 c 257
EndSplineSet
Validated: 1
EndChar

StartChar: circumflex
Encoding: 710 710 204
GlifName: circumflex
Width: 506
VWidth: 0
Flags: W
HStem: 816 88<212.339 274.72>
LayerCount: 2
Fore
SplineSet
249 816 m 256
 214.263492582 816 95.449794131 673 74 673 c 256
 71 673 70 672 67 672 c 256
 58.5808087804 672 36.2285 690.065452589 36.2285 707.543 c 256
 36.2285 713.024 38 717.177 38 720 c 256
 38 748 118 823 142 844 c 256
 165 863 206 904 249 904 c 256
 295 904 316 878 350 832 c 256
 372 802 407 766 422 758 c 256
 438 750 446 740 446 726 c 256
 446 698 419 688 395 688 c 256
 322.602026628 688 277.744327539 816 249 816 c 256
EndSplineSet
Validated: 1
EndChar

StartChar: colon
Encoding: 58 58 205
GlifName: colon
Width: 194
VWidth: 0
Flags: W
HStem: -18 114<42.542 126.212> 426 128<50.1174 144.477>
VStem: 42 128<451.333 546.507>
LayerCount: 2
Fore
SplineSet
82 426 m 256
 63.4054690267 426 42 434.563908531 42 474 c 256
 42 486 42 504 46 522 c 256
 50 540 66 550 72 550 c 256
 82 550 112 554 126 554 c 256
 154.278101912 554 170 522.929759997 170 498 c 256
 170 453 123 426 82 426 c 256
84 96 m 256
 93.4490656117 96 152 93.5182045554 152 32 c 256
 152 20 142 20 130 8 c 257
 114 -12 96 -18 74 -18 c 256
 54 -18 42 -6 42 4 c 256
 42 21.3320749611 28 40.9536393246 28 50 c 256
 28 64.5642839388 45.0928864341 96 84 96 c 256
EndSplineSet
Validated: 1
EndChar

StartChar: comma
Encoding: 44 44 206
GlifName: comma
Width: 182
VWidth: 0
Flags: W
VStem: 46 102<-141.46 74.6208> 46 70<-252.235 -74.8672>
LayerCount: 2
Fore
SplineSet
116 108 m 256x40
 144 108 148 86 148 48 c 256x80
 148 -16 139 -69 130 -120 c 256
 124 -152 120 -178 116 -194 c 256
 112 -211 89 -280 68 -280 c 256
 54 -280 46 -250 46 -194 c 256
 46 -113 52 -29 62 52 c 256
 68 99 86 108 116 108 c 256x40
EndSplineSet
Validated: 1
EndChar

StartChar: copyright
Encoding: 169 169 207
GlifName: copyright
Width: 980
VWidth: 0
Flags: W
HStem: -136 70<340.547 558.757> 124 88<383.706 527.081> 524 80<440.985 590.401> 740 82<309.689 523.669>
VStem: 46 70<201.47 542.327> 250 80<258.991 417.803> 864 80<213.649 453.313>
LayerCount: 2
Fore
SplineSet
340 -44 m 257
 372 -58 408 -66 452 -66 c 256
 552 -66 598 -26 704 54 c 256
 734 76 762 118 800 158 c 256
 830 190 846 212 852 232 c 257
 862 254 864 288 864 330 c 256
 864 404 846 446 836 468 c 256
 834 470 830 482 820 506 c 256
 798 560 696 660 640 678 c 257
 564 700 576 704 486 730 c 256
 458 738 430 740 404 740 c 256
 338 740 278 712 224 656 c 256
 184 614 160 592 154 582 c 256
 130 534 116 468 116 360 c 256
 116 268 134 190 170 118 c 257
 210 24 236 10 340 -44 c 257
320 806 m 257
 362 816 398 822 424 822 c 256
 487 822 601 783 660 760 c 256
 728 732 730 726 762 702 c 256
 802 672 806 658 838 622 c 256
 850 608 860 592 870 578 c 257
 880 558 892 522 902 506 c 256
 908 496 918 472 930 438 c 257
 942 394 944 372 944 340 c 256
 944 254 922 178 848 104 c 256
 796 52 756 16 724 -12 c 256
 670 -60 660 -64 590 -106 c 257
 531 -133 521 -136 454 -136 c 256
 376.244027468 -136 369.864964344 -133.935697307 286 -94 c 256
 196 -50 136 -12 108 48 c 257
 76 126 60 132 52 248 c 256
 48 304 46 354 46 396 c 256
 46 462 68 554 84 600 c 256
 98 638 140 696 170 726 c 256
 216 772 246 786 320 806 c 257
512 524 m 256
 480.718389712 524 330 483.781147185 330 322 c 256
 330 270 350 256 394 226 c 256
 412 214 436 212 458 212 c 256
 494 212 542 226 570 248 c 256
 582 258 596 266 606 266 c 256
 634 266 662 256 662 242 c 256
 662 232 654 220 638 210 c 257
 612 190 592 178 576 170 c 258
 520 142 l 258
 494 130 460 124 418 124 c 256
 376 124 360 134 320 174 c 256
 264 230 250 246 250 326 c 256
 250 410 270 446 304 486 c 256
 322 508 336 518 340 524 c 256
 346 532 358 544 384 560 c 257
 432 592 460 604 494 604 c 256
 593.348539823 604 640 558.502679231 640 530 c 256
 640 510 630 500 618 500 c 256
 578 500 566 510 548 520 c 257
 544 524 522 524 512 524 c 256
EndSplineSet
Validated: 1
EndChar

StartChar: d
Encoding: 100 100 208
GlifName: d
Width: 586
VWidth: 0
Flags: W
HStem: 2 100<144.745 233.002> 432 88<199.472 315.297>
VStem: 42 86<118.261 339.695> 370 112<516.387 876.823>
AnchorPoint: "bottom" 300 1 basemark 0
AnchorPoint: "top" 316 923 basemark 0
LayerCount: 2
Fore
SplineSet
252 432 m 256
 178 432 128 328 128 222 c 256
 128 144 136 102 192 102 c 256
 246 102 324 248 380 354 c 257
 360 374 310 432 252 432 c 256
42 182 m 256
 42 346 98 520 264 520 c 256
 316 520 356 496 388 460 c 257
 378 602 370 680 370 794 c 256
 370 842 390 898 424 898 c 256
 474 898 478 834 478 784 c 256
 478 762 482 708 482 618 c 256
 482 436 494 350 518 178 c 256
 524 136 530 60 542 28 c 256
 546 20 552 16 552 6 c 256
 552 -32 520 -36 506 -36 c 256
 436 -36 448 92 418 246 c 257
 322 84 280 2 176 2 c 256
 102 2 42 92 42 182 c 256
EndSplineSet
Validated: 1
EndChar

StartChar: dagger
Encoding: 8224 8224 209
GlifName: dagger
Width: 738
VWidth: 0
Flags: W
HStem: -330 21G<520 524.5> 527 90<114.187 355.592> 540 111<460.606 623.504>
VStem: 349 95<632.365 832.826> 455 106.374<-312.604 -241.216>
LayerCount: 2
Fore
SplineSet
329 527 m 256
 321.159325594 527 212.10080537 526.619337427 124 506 c 256
 121 506 118 505 114 505 c 256
 104 505 94 508 84 515 c 256
 70 524 64 529 64 552 c 256
 64 572 71 587 84 596 c 256
 104 610 187 613 302 617 c 256
 324 617 356 619 356 619 c 257
 356 619 351 688 349 731 c 257
 345 781 340 788 340 835 c 256xd8
 340 880 358 902 392 902 c 256
 435.938327063 902 441.859323388 860.783004814 444 788 c 256
 446 696 451 639 453 632 c 257
 453 632 563 651 622 651 c 256
 660 651 684 646 684 623 c 256
 684 610 677 595 664 581 c 257
 646 559 528 540 496 540 c 256xb8
 482 540 473 536 460 536 c 257
 469 489 469 354 473 309 c 256
 482 219 491 86 504 -31 c 256
 513 -105 523 -173 532 -218 c 256
 536 -234 545 -252 558 -272 c 256
 560.261 -276.198 561.374 -280.397 561.374 -284.628 c 256
 561.374 -303.719361103 531.791295557 -330 522 -330 c 256
 518 -330 509 -326 493 -321 c 257
 471 -312 459 -300 455 -286 c 257
 453 -272 444 -263 442 -256 c 256
 433 -206 416 -128 405 -42 c 256
 381.18820852 155.93551668 364.242019229 523.41091347 363 529 c 257
 354 527 347 527 329 527 c 256
EndSplineSet
Validated: 1
EndChar

StartChar: daggerdbl
Encoding: 8225 8225 210
GlifName: daggerdbl
Width: 746
VWidth: 0
Flags: W
HStem: -300 21G<418 433.5> 16 95<138.523 348.067> 40 91<450 482.484> 41 93<450.516 639.451> 455 88<75.7467 332.168> 485 112<480.117 637.475>
VStem: 330 90<563.916 889.748> 337 76<802.605 894.071> 345 93<131 442.323> 375 99<-278.073 15.1204>
LayerCount: 2
Fore
SplineSet
121 66 m 256
 121 92.6092260696 127.432136103 111 201 111 c 256
 219 111 219 111 349 124 c 257xc040
 343.109589041 177.01369863 337.949814166 411.783455453 337 455 c 257xc9
 334 455 l 257
 278 450 239 449 190 449 c 256
 106.041927632 449 64 455.248353615 64 505 c 256
 64 525 93 537 109 539 c 256
 122 541 157 543 215 543 c 256
 250 543 295 546 334 550 c 257
 332 591 332 647 332 654 c 256
 332 685 332 714 330 739 c 257
 330 800 l 258xca
 330 893.94918796 333.764723767 898 359 898 c 256
 390 898 411 892 413 867 c 256xc9
 417 831 418 755 420 640 c 256
 420 636 425 582 427 563 c 257
 507.923872947 579.859140197 541.835103912 597 579 597 c 256x86
 610 597 645 593 645 543 c 256x8a
 645 495 634 485 590 485 c 256
 567.205701425 485 568.794298575 482 530 482 c 256
 516 482 476 475 438 471 c 257
 438 176 l 257
 439 160 440 145 441 131 c 257xa480
 442.988623618 131.132574908 625.062183977 142 640 142 c 256
 660 142 672 132 672 109 c 256
 672 84 664 59 651 50 c 256
 640 43 584 37 557 37 c 256
 534 37 510 41 483 41 c 256x9080
 472 41 461 41 450 40 c 257xa080
 463.413793103 -134.379310345 462.875070177 -131.281653518 463 -132 c 256
 467 -159 474 -181 474 -204 c 256
 474 -233 474 -244 463 -267 c 257
 452 -287 440 -298 427 -300 c 257
 409 -300 402 -291 388 -260 c 256
 377 -237 375 -224 375 -210 c 258
 375 -170 l 258
 375 -167.980074259 357.194750446 13.4419964286 355 31 c 257
 263.766666667 17.5833333333 253 16 217 16 c 256
 154 16 121 32 121 66 c 256
EndSplineSet
Validated: 1
EndChar

StartChar: dcroat
Encoding: 273 273 212
GlifName: dcroat
Width: 600
VWidth: 0
Flags: W
HStem: -8 91<145.882 205.464> 384 92<219.158 301.998> 600 78<149.225 301.484> 614 72<405.438 554.788> 614 62<433.545 557.125> 886 20G<363.5 373.5>
VStem: 50 85.998<88.4721 283.926> 302 94.193<474 601>
AnchorPoint: "bottom" 320 41 basechar 0
AnchorPoint: "top" 292 935 basechar 0
LayerCount: 2
Fore
SplineSet
560.908 650.808 m 256
 560.908 638.387383922 549.965967973 614 517 614 c 258
 488 614 l 257
 458 612 429 609 400 607 c 257xd7
 397.838 566.638 396.193 526.275 396.193 485.913 c 256
 396.193 470.275 396.44 454.638 397 439 c 257
 420 427 470 390 470 362 c 256
 470 346.898639752 455.17853584 327 437 327 c 256
 428 327 419 331 410 337 c 257
 440.564324324 199.460540541 445.837837838 175.72972973 458 146 c 257
 467 119 479 99 490 76 c 257
 498 62 508 52 512 38 c 256
 512.895 32.6338 513.789 26.4668 513.789 20.5732 c 256
 513.789 -11.8107086969 474.736066528 -13 469 -13 c 256
 460 -13 451 -11 444 -8 c 256
 423 -1 395 68 388 88 c 258
 370 142 l 258
 362 169 354 200 348 227 c 257
 323 145 270 -8 162 -8 c 256
 152 -8 142 -6 132 -2 c 256
 72 16 56 106 50 170 c 257
 50 295 134 476 278 476 c 256
 286 476 295 475 303 474 c 257
 303 496 302 518 302 540 c 258
 302 601 l 257
 291 600 279 600 268 600 c 256
 201.165050081 600 179.890505474 603 179 603 c 256
 160 603 138 611 138 634 c 257
 141 663 181 678 206 678 c 258
 240 678 l 257xe7
 261 681 282 683 303 683 c 257
 304 692 304 701 305 712 c 256
 310 778 306 839 337 880 c 257
 345 888 356 906 371 906 c 256
 376 906 381 904 387 898 c 257
 408.429 882.286 411.49 852.286 411.49 820.391 c 256
 411.49 807.633 411 794.571 411 782 c 256
 411 724 408 718 405 685 c 257
 414 686 423 686 432 686 c 256xd7
 465 686 495 684 522 676 c 257xcf
 539.041 672.412 560.908 668.824 560.908 650.808 c 256
135.998 182 m 256
 135.998 152.666666667 135.998 83 172.998 83 c 256
 198.998 83 221.998 126 231.998 142 c 256
 243.998 160 247.998 184 255.998 204 c 257
 272.998 255 291.998 305 299.998 364 c 256
 300.998 370 300.998 376 301.998 382 c 257
 292.998 383 284.998 384 276.998 384 c 256
 256.998 384 237.998 379 221.998 366 c 256
 172.998 325 135.998 266 135.998 182 c 256
EndSplineSet
Validated: 1
EndChar

StartChar: degree
Encoding: 176 176 213
GlifName: degree
Width: 336
VWidth: 0
Flags: W
HStem: 810 94<164.522 217.794>
VStem: 218 82<753.664 809.437>
LayerCount: 2
Fore
SplineSet
192 810 m 256
 190 810 178 800 166 790 c 256
 162 786 156 780 154 774 c 257
 156 764 156 758 156 750 c 256
 156 740 160 734 170 734 c 256
 181 734 218 775 218 786 c 256
 218 802 200 810 192 810 c 256
214 904 m 256
 267.349455202 904 300 850.653052109 300 802 c 256
 300 778 290 772 274 734 c 257
 263 705 205 626 170 626 c 256
 107 626 73 678 68 736 c 257
 62 738 46 756 46 772 c 256
 46 829 107 879 156 894 c 257
 184 900 202 904 214 904 c 256
EndSplineSet
Validated: 1
EndChar

StartChar: delta
Encoding: 948 948 214
GlifName: delta
Width: 538
VWidth: 0
Flags: W
HStem: -13 88<240.247 341.101> 416 87<191.682 274.551> 817 91<187 371.915 376.173 412.531 413.609 475.874> 824 90<190.177 449.827>
VStem: 61 89<164.582 358.651> 392 86<146.676 377.395>
AnchorPoint: "top" 262 937 basemark 0
AnchorPoint: "bottom" 314 29 basemark 0
LayerCount: 2
Fore
SplineSet
228 416 m 257
 191.8634049 416 150 344.956449304 150 256 c 256
 150 239 151 222 154 205 c 256
 156 188 170 165 181 152 c 256
 207 119 254 75 300 75 c 256
 337.25 75 357.854106743 119.378076063 373 152 c 257
 386 184 390 222 392 256 c 257
 392 272 l 258
 392 343 367 390 344 441 c 256
 321 492 293 524 263 568 c 256
 246 593 221 617 204 642 c 256
 164 699 126 758 86 815 c 257
 73 831 61 862 61 884 c 256
 61 908 77 914 97 914 c 256xdc
 117 914 140 908 154 908 c 256xec
 228 908 302 912 382 914 c 256xdc
 392 914 403 915 413 915 c 256
 426 915 439 914 451 908 c 256xec
 468 898 491 874 491 855 c 256
 491 840 476 819 451 819 c 256
 426 819 400 824 375 824 c 256xdc
 309 824 255 819 187 817 c 257xec
 229.040228377 752.771873313 352.272418429 603.225923988 384 555 c 256
 432 479 478 382 478 261 c 256
 478 198 466 149 439 91 c 257
 426 59 395 15 367 -2 c 256
 354 -10 337 -13 320 -13 c 256
 240 -13 183 24 126 78 c 256
 89 113 61 181 61 233 c 256
 61 320 109 503 210 503 c 256
 247 503 294 484 294 440 c 256
 294 428.230755314 289.830931129 410 264 410 c 256
 252 410 238 414 228 416 c 257
EndSplineSet
Validated: 1
Substitution2: "ss02GreekCursive subtable" uniE081
Substitution2: "cv06rounddelta subtable" uniE081
EndChar

StartChar: uniE081
Encoding: 57473 57473 215
GlifName: delta.cv06
Width: 536
VWidth: 0
Flags: W
HStem: -6.71875 84.9999<159.206 253.602> 432.95 83.323<197.41 258.269> 798.923 82.042<356.601 467.377>
VStem: 56.3291 84.9999<93.866 336.172> 374.767 85<187.649 403.945>
LayerCount: 2
Fore
SplineSet
189.806 78.2812 m 256
 260.657 78.2812 374.767 188.233 374.767 235.508 c 256
 374.767 330.81 353.677 430.91 313.438 504.57 c 256
 304.078 521.706 281.56 555.847 259.884 590.469 c 256
 238.209 625.091 211.653 661.278 211.653 706.508 c 256
 211.653 751.344 239.666 788.491 299.123 834.335 c 256
 340.889 866.538 377.153 880.965 419.121 880.965 c 256
 488.831 880.965 526 824.487 526 782.518 c 256
 526 764.09 516.079 756.684 499.182 756.684 c 256
 485.282 756.684 453.292 798.923 421.562 798.923 c 256
 379.135 798.923 296.704 750.318 300.536 706.508 c 256
 303.978 667.183 362.507 594.475 390.157 541.191 c 256
 429.473 465.43 459.767 353.24 459.767 235.508 c 256
 459.767 180.277 411.711 130.865 350.848 73.4258 c 256
 294.038 19.8096 238.646 -6.71875 189.806 -6.71875 c 256
 118.157 -6.71875 56.3291 70.7881 56.3291 164.492 c 256
 56.3291 249.422 70.5986 367.213 134.774 466.856 c 256
 154.542 497.548 177.688 516.273 222.433 516.273 c 256
 251.572 516.273 312.377 480.082 312.377 440.364 c 256
 312.377 416.123 302.302 401.938 284.117 401.938 c 256
 253.99 401.938 245.003 432.95 227.701 432.95 c 256
 190.252 432.95 161.35 335.917 161.062 334.766 c 256
 145.095 270.898 141.329 246.678 141.329 164.492 c 256
 141.329 109.819 167.554 78.2812 189.806 78.2812 c 256
EndSplineSet
Validated: 33
EndChar

StartChar: dieresis
Encoding: 168 168 216
GlifName: dieresis
Width: 422
VWidth: 0
Flags: W
HStem: 770 140<39.999 123.999 336.005 352.482>
LayerCount: 2
Fore
SplineSet
9.7324 867.024 m 256
 9.7324 905.009390029 39.4733571886 910 39.999 910 c 256
 43.999 910 57.999 910 71.999 900 c 256
 83.999 892 95.999 862 121.999 842 c 256
 135.999 832 141.999 814 141.999 792 c 256
 141.999 784.052845611 139.769436397 770 123.999 770 c 256
 75.999 770 46.999 799 19.999 834 c 256
 12.3545 844.511 9.7324 856.392 9.7324 867.024 c 256
369.999 772 m 256
 356.517954128 772 269.999 834.391976955 269.999 880 c 256
 269.999 900 283.999 908 303.999 908 c 256
 337.999 908 343.999 900 371.999 864 c 256
 387.999 844 401.999 840 401.999 816 c 256
 401.999 784 393.999 772 369.999 772 c 256
EndSplineSet
Validated: 1
EndChar

StartChar: dieresistonos
Encoding: 901 901 217
GlifName: dieresistonos
Width: 406
VWidth: 0
Flags: W
HStem: 593 93<286.423 356.994>
VStem: 32.2569 87.4481<584.065 637.815> 270.529 99.687<604.429 671.305>
AnchorPoint: "top" 205 548 mark 0
AnchorPoint: "top" 217 1010 basemark 0
LayerCount: 2
Fore
SplineSet
32.2569 625.635 m 256
 32.2569 660.774733398 74.2160711627 669 85 669 c 256
 118.792831676 669 119.705 631.593070205 119.705 627.554 c 256
 119.705 601.275 100.436 577 76.001 577 c 256
 45.4102765358 577 32.2569 606.053820112 32.2569 625.635 c 256
316 593 m 256
 294.732001513 593 270.529 608.816045688 270.529 639.826 c 256
 270.529 661.727 283.632 683.514 306 686 c 257
 332.913 686 370.216 666.217 370.216 634.562 c 256
 370.216 612.03 342.655 593 316 593 c 256
137 715 m 256
 130.475276443 715 115.05 716.91714956 115.05 735.047 c 256
 115.05 752.924 129.522 778.455 138 794 c 256
 154 826 174 860 192 894 c 256
 205 918 237 974 270 974 c 256
 275.966052067 974 298.252 971.838320233 298.252 939.541 c 256
 298.252 907.058 275.32 864.284 238 810 c 256
 213 775 170 715 137 715 c 256
EndSplineSet
Validated: 1
EndChar

StartChar: divide
Encoding: 247 247 218
GlifName: divide
Width: 686
VWidth: 0
Flags: W
HStem: -10 118<309.017 388.622> 202 112<80.9895 431.513> 202 104<80.9895 344.986> 254 106<484.393 621.433> 470 120<284.195 370.139>
VStem: 272 112<500.192 576.495> 294 124.095<24.8778 97.4238>
LayerCount: 2
Fore
SplineSet
272 544 m 256
 272 570.080716459 274.80716477 590 318 590 c 256
 358 590 380 570 384 528 c 256
 386 514 384 504 380 500 c 256
 365 485 335 470 314 470 c 256
 276.950487476 470 272 531.88783297 272 544 c 256
570 254 m 256x98
 508.40079432 254 523.854108642 215.763619563 166 202 c 257
 160 202 l 258xc8
 115 202 48 223 48 278 c 256
 48 292 60 302 80 306 c 256xa8
 144.060053412 318.812010682 365.181154052 303.194615444 522 348 c 256
 532 350 556 360 586 360 c 256
 628 360 648 356 648 346 c 256
 648 304 630 276 622 272 c 256
 610 266 592 254 570 254 c 256x98
354 108 m 256
 417.557672635 108 418.095 62.3526860885 418.095 60.8105 c 256
 418.095 53.9053 415.635 47.6348 410 42 c 256
 386 18 390 -10 346 -10 c 256
 330 -10 294 18 294 40 c 256x8a
 294 56 305 96 322 102 c 256
 332 106 342 108 354 108 c 256
EndSplineSet
Validated: 1
EndChar

StartChar: dollar
Encoding: 36 36 219
GlifName: dollar
Width: 458
VWidth: 0
Flags: W
HStem: -28 21G<316 331> 196 82<88.8467 256.774> 906 20G<277 287>
VStem: 28 72<538.601 612.948> 236 70<772 879.892> 246 74<472 675.094> 254 52<880.098 921.902> 272 118<2.32452 59.7447>
LayerCount: 2
Fore
SplineSet
332 316 m 257xf0
 346 324 364 338 370 344 c 257
 364 352 336 362 326 368 c 257
 332 316 l 257xf0
246 472 m 257xf4
 246 491.690851927 238 514.72581474 238 616 c 258
 238 678 l 257
 210 674 188 668 148 636 c 256
 116 610 100 592 100 582 c 256
 100 570 110 552 130 528 c 257
 144 514 226 472 246 472 c 257xf4
54 320 m 256
 81.3615616333 320 83.7971685254 278 170 278 c 256
 206 278 232 280 258 290 c 257
 252 320 252 358 250 380 c 257
 242 386 212 396 192 406 c 257
 176 416 158 418 142 428 c 256
 126 438 112 444 102 448 c 256
 54 472 28 528 28 580 c 256
 28 604 28 620 32 628 c 256
 50 670 147 760 198 770 c 256
 204 772 226 772 236 772 c 257
 236 822 l 258xf8
 236 856 238 878 244 880 c 256
 250 882 254 890 254 902 c 256xf2
 254 912 256 920 264 922 c 256
 272 924 276 926 278 926 c 256
 296 926 306 902 306 856 c 258
 306 826 l 258xf8
 306 806 310 782 310 768 c 257
 324 758 340 756 372 726 c 256
 400 700 414 674 414 650 c 256
 414 648 412 648 412 646 c 258
 412 640 l 257
 408 624 400 616 390 616 c 256xf1
 365.022493673 616 330.764319632 663.426760276 314 676 c 257
 320 614 316 556 320 500 c 257
 320 456 l 257xf4
 350 442 398 420 414 410 c 256
 432 398 450 368 450 344 c 256
 450 314 398 266 340 240 c 257
 344 222 340 176 346 136 c 257
 350 102 352 72 378 50 c 257
 388 44 390 36 390 32 c 256
 390 12 340 -28 322 -28 c 256
 310 -28 272 28 272 60 c 256xf1
 272 142 270 180 262 212 c 257
 234 198 208 196 154 196 c 256
 102 196 62 202 40 222 c 256
 26 236 18 252 18 268 c 256
 18 294 36 320 54 320 c 256
EndSplineSet
Validated: 1
EndChar

StartChar: dong
Encoding: 8363 8363 220
GlifName: dong
Width: 600
VWidth: 0
Flags: W
HStem: -187 90<120.4 520.867> 21 91<145.883 205.465> 413 92<219.159 301> 691 76<149.225 302> 703 72<411 554.788> 703 62<411.328 557.125> 884 20G<363.5 373.5>
VStem: 50 86<117.472 312.926> 302 100<503 689.986> 305 106.49<775 864.518>
LayerCount: 2
Fore
SplineSet
275 -103 m 256
 341.742215032 -103 436.368896079 -97 438 -97 c 258
 479 -97 l 258
 510 -97 526 -113 526 -143 c 256
 526 -173 518 -182 508 -183 c 256
 487 -186 465 -187 435 -187 c 258
 278 -187 l 258
 268 -187 255 -185 254 -185 c 256
 170 -185 149 -197 119 -197 c 256xe3
 87 -197 52 -196 52 -161 c 256
 52 -149 60 -133 84 -117 c 256
 97 -109 261 -103 275 -103 c 256
560.908 739.808 m 256
 560.908 727.387383922 549.965967973 703 517 703 c 258
 488 703 l 257xeb40
 460 701 433 699 406 697 c 257
 396.116879897 578.402558761 396.074 508.741218791 396.074 506.837 c 256
 396.074 494.285 396.349 481.448 397 468 c 257
 421 455 470 420 470 391 c 256
 470 377 458 361 444 357 c 257
 430 357 422 358 410 366 c 257
 440.564324324 228.460540541 445.837837838 204.72972973 458 175 c 257
 467 148 479 128 490 105 c 257
 498 91 508 81 512 67 c 256
 512.895 61.6338 513.789 55.4668 513.789 49.5732 c 256
 513.789 17.1892967827 474.736073083 16 469 16 c 256
 460 16 451 18 444 21 c 256
 423 28 395 97 388 117 c 258
 370 171 l 258
 362 198 354 230 348 256 c 257
 323 174 270 21 162 21 c 256
 152 21 142 23 132 27 c 256
 72 45 56 135 50 199 c 257
 50 324 134 505 278 505 c 256
 287 505 295 504 303 503 c 257
 303 550 302 598 302 629 c 258
 302 690 l 257
 291 690 279 689 268 689 c 256
 201.165050081 689 179.890505474 692 179 692 c 256
 160 692 138 700 138 723 c 257
 141 752 181 767 206 767 c 258
 240 767 l 257xf380
 256 769 272 771 288 771 c 257
 293 772 298 772 303 772 c 257
 304 781 304 791 305 801 c 256
 310 867 306 837 337 878 c 257
 345 886 356 904 371 904 c 256
 376 904 381 902 387 896 c 257
 408.429 880.286 411.49 850.286 411.49 818.391 c 256
 411.49 805.633 411 792.571 411 780 c 258
 411 775 l 257
 432 775 l 258xeb40
 465 775 495 773 522 765 c 257xe740
 539.041 761.412 560.908 757.824 560.908 739.808 c 256
136 211 m 256
 136 181.666666667 136 112 173 112 c 256
 199 112 222 155 232 171 c 256
 244 189 248 213 256 233 c 257
 273 284 292 334 300 393 c 256
 301 399 301 405 301 411 c 257
 293 412 284 413 276 413 c 256
 257 413 238 408 222 395 c 256
 173 354 136 295 136 211 c 256
EndSplineSet
Validated: 1
EndChar

StartChar: dotbelowcomb
Encoding: 803 803 221
GlifName: dotbelowcomb
Width: 0
VWidth: 0
HStem: -292 140<-297.459 -250.722>
VStem: -340 146<-246.367 -201.702>
AnchorPoint: "bottom" -267 -375 basemark 0
AnchorPoint: "bottom" -266 -20 mark 0
LayerCount: 2
Fore
SplineSet
-340 -186 m 256
 -340 -170 -320 -152 -302 -152 c 256
 -278 -152 -262 -160 -256 -168 c 256
 -248 -178 -232 -190 -218 -200 c 256
 -200 -212 -194 -226 -194 -256 c 256
 -194 -278 -228 -292 -250 -292 c 256
 -280 -292 -298 -272 -312 -254 c 257
 -328 -236 -340 -218 -340 -186 c 256
EndSplineSet
Validated: 1
EndChar

StartChar: dotlessi
Encoding: 305 305 222
GlifName: dotlessi
Width: 252
VWidth: 0
Flags: W
HStem: -3 21G<132.5 169.5> 527 20G<103.5 130.5>
VStem: 93 82<32.6577 358.694> 97 100<3.33001 112.687>
AnchorPoint: "bottom" 142 33 basemark 0
AnchorPoint: "top" 118 627 basemark 0
LayerCount: 2
Fore
SplineSet
97 33 m 256xd0
 92.0562799636 72.5497602908 85.7910959571 408.502935078 75 464 c 256
 73 473 71 485 71 498 c 256
 71 529 91 547 116 547 c 256
 145 547 157 507 161 462 c 256
 170 372 175 239 175 174 c 256xe0
 175 136 183 80 187 67 c 256
 189 62 197 46 197 32 c 256
 197 14 192 -3 147 -3 c 256
 118 -3 100 12 97 33 c 256xd0
EndSplineSet
Validated: 1
EndChar

StartChar: e
Encoding: 101 101 223
GlifName: e
Width: 509
VWidth: 0
Flags: W
HStem: -18 80<189.301 347.375> 468 92<193.076 304.132>
VStem: 41 95<127.11 218.176 312 394.248>
AnchorPoint: "bottom" 280 24 basemark 0
AnchorPoint: "top" 250 633 basemark 0
LayerCount: 2
Fore
SplineSet
134 312 m 257
 206 327 304 353 366 388 c 257
 335 423 294 468 244 468 c 256
 228 468 212 462 200 452 c 257
 170 432 134 358 134 312 c 257
154 533 m 256
 172 548 202 560 230 560 c 256
 288 560 350 524 394 484 c 256
 432 448 458 422 458 380 c 256
 458 356 424 330 394 312 c 257
 380 302 326 276 302 266 c 257
 248 248 188 228 136 212 c 257
 140 160 158 114 182 90 c 256
 198 74 228 62 288 62 c 256
 316 62 354 86 370 100 c 256
 380 110 416 126 436 126 c 256
 452 126 470 112 470 98 c 256
 470 76 418 44 404 32 c 256
 362 -4 336 -18 284 -18 c 256
 198 -18 151 -11 120 22 c 256
 62 84 41 146 41 250 c 256
 41 403 78 469 154 533 c 256
EndSplineSet
Validated: 1
EndChar

StartChar: eight
Encoding: 56 56 231
GlifName: eight
Width: 522
VWidth: 0
Flags: W
HStem: 4 86<167.696 310.076> 808 82<200.444 361.975>
VStem: 42 82<134.474 358.081> 78 90<642.018 780.284> 394 86<149.914 261.763> 418 73<584.668 744.462>
LayerCount: 2
Fore
SplineSet
248 410 m 257xe8
 230 424 232 432 218 446 c 257
 208 438 176 408 166 392 c 257
 136 352 124 310 124 240 c 256
 124 190 128 162 136 148 c 256
 158 112 190 90 226 90 c 256
 268 90 312 112 334 122 c 257
 366 140 394 160 394 202 c 256
 394 234 372 270 320 330 c 256
 292 362 266 394 248 410 c 257xe8
384 562 m 256
 402 592 418 632 418 664 c 256
 418 694 410 726 388 758 c 257
 370 786 342 808 276 808 c 256
 242 808 210 792 192 782 c 257
 172 768 168 758 168 730 c 256xd4
 168 698 178 670 186 650 c 256
 196 624 214 600 262 528 c 256
 290 484 296 484 322 456 c 257
 338 482 352 508 384 562 c 256
268 890 m 256
 366 890 378 874 428 830 c 256
 464 798 478 772 486 740 c 256
 490 726 491 713 491 702.25 c 256xd4
 491 691.5 490 683 490 678 c 256
 490 616 486 598 464 544 c 256
 458 528 410 444 396 418 c 256
 390 408 380 400 370 394 c 257
 392 374 440 298 450 280 c 257
 472 246 480 208 480 176 c 256
 480 83 293 4 210 4 c 256
 156 4 154 8 120 36 c 257
 94 60 70 96 48 150 c 256
 44 160 42 186 42 222 c 256xe8
 42 317 46 345 98 428 c 256
 128 476 154 488 170 508 c 257
 164 522 148 546 140 556 c 256
 86 635 78 656 78 752 c 256
 78 768 82 798 102 822 c 256
 150 879 193 890 268 890 c 256
EndSplineSet
Validated: 1
Substitution2: "lnumLiningFigureslookup8 subtable" uniE07D
EndChar

StartChar: ellipsis
Encoding: 8230 8230 232
GlifName: ellipsis
Width: 708
VWidth: 0
Flags: W
HStem: -4 150<89.0847 141.808 325.085 377.808 561.085 613.808>
VStem: 64 118<22.9979 104.747> 300 118<22.9979 104.747> 536 118<22.9979 104.747>
CounterMasks: 1 70
LayerCount: 2
Fore
SplineSet
654 54 m 256
 654 26.9099714046 629.568602226 -4 600 -4 c 256
 580 -4 568 4 556 26 c 256
 544 48 536 62 536 82 c 256
 536 104 544 128 554 138 c 256
 560 144 570 146 584 146 c 256
 600 146 610 140 614 136 c 256
 628 118 636 96 642 84 c 256
 648 74 654 66 654 54 c 256
418 54 m 256
 418 26.9099714046 393.568602226 -4 364 -4 c 256
 344 -4 332 4 320 26 c 256
 308 48 300 62 300 82 c 256
 300 104 308 128 318 138 c 256
 324 144 334 146 348 146 c 256
 364 146 374 140 378 136 c 256
 392 118 400 96 406 84 c 256
 412 74 418 66 418 54 c 256
182 54 m 256
 182 26.9099714046 157.568602226 -4 128 -4 c 256
 108 -4 96 4 84 26 c 256
 72 48 64 62 64 82 c 256
 64 104 72 128 82 138 c 256
 88 144 98 146 112 146 c 256
 128 146 138 140 142 136 c 256
 156 118 164 96 170 84 c 256
 176 74 182 66 182 54 c 256
EndSplineSet
Validated: 1
EndChar

StartChar: emdash
Encoding: 8212 8212 234
GlifName: emdash
Width: 872
VWidth: 0
Flags: W
HStem: 295 106<631.907 841.513>
LayerCount: 2
Fore
SplineSet
66 220 m 257
 35.7621352291 220 17.5967 266.867508912 17.5967 267.546 c 256
 17.5967 270.279 19.6767 273.085 24 280 c 256
 38.8794972116 306.03912012 63.0324774922 313.406495498 156 332 c 256
 250 350 420 366 666 382 c 257
 718 384 752 390 766 396 c 257
 772 400 778 401 784 401 c 256
 797 401 832 391 842 384 c 256
 853 377 854 365 854 342 c 256
 854 297 822 295 785 295 c 256
 768 295 721 297 678 297 c 256
 664 297 650 297 638 296 c 256
 516 291 426 292 368 282 c 256
 338 276 310 272 282 268 c 257
 257.585271455 263.117054291 90.414728545 224.882945709 66 220 c 257
EndSplineSet
Validated: 1
Substitution2: "Casesensitiveforms subtable" uniE012
EndChar

StartChar: endash
Encoding: 8211 8211 235
GlifName: endash
Width: 618
VWidth: 0
Flags: W
HStem: 252 86<36.9231 263.136> 262 90<101.727 601.611>
LayerCount: 2
Fore
SplineSet
594 266 m 258
 586 266 l 257
 559 263 532 262 494 262 c 258
 298 262 l 258x40
 286 262 270 264 268 264 c 256
 163 264 137 252 100 252 c 256x80
 59 252 16 253 16 288 c 256
 16 300 30 312 56 332 c 256
 62 337 70 338 79 338 c 258
 110 338 l 257x80
 134 340 196 344 294 346 c 256
 377.707548829 346 495.959117838 352 498 352 c 258
 550 352 l 258
 588 352 608 336 608 306 c 256
 608 269 602 266 594 266 c 258
EndSplineSet
Validated: 1
Substitution2: "Casesensitiveforms subtable" uniE011
EndChar

StartChar: eng
Encoding: 331 331 236
GlifName: eng
Width: 594
VWidth: 0
Flags: W
HStem: -323.999 77<298.256 407.283> 437.001 92<301.73 388.901>
VStem: 65.75 89.139<324.001 465.413> 77 77.889<368.943 477.024> 439.531 83.669<-203.982 286.803>
AnchorPoint: "bottom" 300 -280 basemark 0
AnchorPoint: "top" 298 576 basemark 0
LayerCount: 2
Fore
SplineSet
129 492 m 256
 139.273282289 492 154.889 487.80577241 154.889 462.303 c 256
 154.889 460.919433322 151 431.79234837 151 324.001 c 257
 173 370.001 182 406.001 207 442.001 c 257
 236 481.001 302 529.001 351 529.001 c 256
 380 529.001 407 518.001 430 502.001 c 256
 481 465.001 496 385.001 504 327.001 c 256
 516.8 231.801 523.2 135.961 523.2 40.5049 c 256
 523.2 -38.3442065638 520.247980836 -142.623082554 506 -203.999 c 257
 491 -287.999 465 -314.999 376 -322.999 c 256
 371 -323.999 366 -323.999 362 -323.999 c 256
 347 -323.999 332 -321.999 317 -316.999 c 257
 301 -314 285 -305 270 -298 c 256
 259 -292 245 -290 240 -280 c 256
 236.125 -274.188 233.919 -265.875 233.919 -258.291 c 256
 233.919 -238.084680238 253.026169031 -226.922 260.731 -226.922 c 257
 292 -235.999 l 258
 317 -242.999 342 -246.999 368 -246.999 c 256
 378 -246.999 386 -244.999 394 -239.999 c 256
 420 -221.999 423 -183.999 430 -153.999 c 257
 436 -133.999 434 -115.999 436 -95.999 c 257
 438.29 -49.7373 439.531 -3.05566 439.531 43.5654 c 256
 439.531 98.7275 437.794 153.805 434 208.001 c 256
 430 261.001 436 315.001 416 361.001 c 256
 403 392.001 387 435.001 355 437.001 c 257
 350 437.001 l 258
 301 437.001 266 375.001 238 333.001 c 256
 198 271.001 175 183.001 173 122.001 c 256
 172.759 118.138 172.678 114.1 172.678 109.948 c 256
 172.678 101.438 173.019 92.4531 173.019 83.5215 c 256
 173.019 67.192090187 173.019 17 131 17 c 256
 124 17 117 19 112 23 c 256
 83 46 68 245 68 286 c 256
 68 311 65.75 339.5 65.75 367.625 c 256xe8
 65.75 395.75 68 423.5 77 447 c 257xd8
 82 465 110 492 129 492 c 256
EndSplineSet
Validated: 1
EndChar

StartChar: eogonek
Encoding: 281 281 237
GlifName: eogonek
Width: 518
VWidth: 0
Flags: W
HStem: -189 81<490.262 593.766> -44 85<183.659 328.463> 482 87<265.404 367.306>
VStem: 36 83<118.384 213.869> 375.999 89.001<402.658 474.276> 383.212 75.788<-73.5783 -5.50357>
AnchorPoint: "top" 266 642 basemark 0
AnchorPoint: "bottom" 258 -7 basemark 0
LayerCount: 2
Fore
SplineSet
249 -44 m 256
 241.066692208 -44 36 -41.586046479 36 208 c 256
 36 334 76 409 125 461 c 257xf4
 174 515 252 569 328 569 c 256
 378 569 425 550 448 513 c 256
 459 495 465 454 465 433 c 256xf8
 465 368 421 341 391 321 c 256
 309 267 237 232 119 216 c 257
 119 144 157 41 247 41 c 256
 298 41 363 75 399 109 c 257
 410 121 427 127 442 127 c 256
 460 127 463 64 463 45 c 256
 463 32 459 18 459 5 c 256
 459 -59 489 -108 545 -108 c 256
 557 -108 570 -106 585 -101 c 256
 596 -98 602 -82 613 -81 c 256
 615 -81 617 -80 619 -80 c 256
 634.465 -80 642.023 -95.3184 642.023 -112.408 c 256
 642.023 -147.960812874 607.723853639 -189 537 -189 c 256
 513 -189 487 -184 463 -174 c 256
 437 -162 398 -110 389 -81 c 256
 384.578 -67.1807 383.212 -52.75 383.212 -38.5527 c 256
 383.212 -27.0664 384.106 -15.7334 385 -5 c 257
 362 -24 282 -44 249 -44 c 256
133.999 306 m 257
 248.630930528 315.967993959 375.999 403.555119349 375.999 433 c 256
 375.999 458 355.999 482 331.999 482 c 256
 268.999 482 188.999 409 154.999 357 c 256
 145.999 342 135.999 321 133.999 306 c 257
EndSplineSet
Validated: 1
EndChar

StartChar: epsilon
Encoding: 949 949 238
GlifName: epsilon
Width: 478
VWidth: 0
Flags: W
HStem: -19 86<194.551 316.04> 427 113<304.11 354.598> 482 82<169.105 289.182>
VStem: 62 88<372.073 462.005> 98 94<69.3094 163.841>
AnchorPoint: "top" 226 595 basemark 0
AnchorPoint: "bottom" 252 25 basemark 0
LayerCount: 2
Fore
SplineSet
300 316 m 256
 300 282.654884873 192 164.766411423 192 98 c 256
 192 75 209 67 233 67 c 256
 263 67 302 80 328 95 c 256
 349 106 366 125 387 135 c 256
 392 137 398 138 404 138 c 256
 424 138 450 128 456 109 c 256
 456 107 457 106 457 104 c 256
 457 83 426 64 414 55 c 256
 359 14 313 -19 216 -19 c 258
 207 -19 l 257
 154 -17 98 27 98 93 c 256
 98 149 147 239 177 284 c 257xa8
 154 289 132 297 116 308 c 256
 106 314 76 348 72 359 c 256
 65 378 62 396 62 414 c 256
 62 494 129 564 209 564 c 256xb0
 249 564 293 550 319 540 c 256
 359 524 370 507 370 462 c 256
 370 452 374 440 366 434 c 256
 360 429 353 427 347 427 c 256xd0
 310.560346378 427 289.903289986 482 226 482 c 256
 182 482 150 455 150 411 c 256xb0
 150 332.811083124 300 366.696694654 300 316 c 256
EndSplineSet
Validated: 1
EndChar

StartChar: equal
Encoding: 61 61 240
GlifName: equal
Width: 468
VWidth: 0
Flags: W
HStem: 128 76<70.9699 442.048> 136 68<223.004 447.115> 342 78<28.1934 383.905> 348 86<194.527 430.024>
LayerCount: 2
Fore
SplineSet
376 430 m 256x20
 378 430 382 434 384 434 c 256
 403 434 456 401 456 380 c 256
 456 370 446 362 430 354 c 257
 421.63166691 351.210555637 221.612112495 340 192 340 c 256
 138 340 80 344 76 344 c 257
 74 342 68 342 62 342 c 256
 54 342 20 360 20 384 c 256
 20 392 24 400 28 406 c 256
 32 414 44 418 64 420 c 256
 84 422 132 422 208 424 c 257
 320 424 370 428 376 430 c 256x20
28 224 m 256
 29 225 30 225 31 225 c 256
 33 225 37 224 42 224 c 256
 74 224 80 214 106 212 c 257
 156 206 184 204 234 204 c 258
 374 204 l 258x80
 384 204 386 208 396 208 c 256
 419 208 452 193 452 166 c 256
 452 146 415 136 400 136 c 256x40
 354 136 284 128 220 128 c 256x80
 164 128 94 140 58 154 c 256
 32 164 22 186 22 200 c 256
 22 210 24 216 28 224 c 256
EndSplineSet
Validated: 1
EndChar

StartChar: eta
Encoding: 951 951 241
GlifName: eta
Width: 540
VWidth: 0
Flags: W
HStem: 418 99<317.856 364.173> 530 20G<86.5 118.5>
VStem: 62 73<365.733 545.834> 66 82<275.791 540.086> 71 93<13.4479 138.133> 381.551 77.449<-265.843 384.42>
AnchorPoint: "top" 258 577 basemark 0
AnchorPoint: "bottom" 120 47 basemark 0
LayerCount: 2
Fore
SplineSet
381.551 141.915 m 256
 381.551 188.87129863 380.013122766 418 350 418 c 256
 303 418 190 194 171 87 c 256
 167 64 166 39 164 33 c 256
 160 20 138 7 108 3 c 257
 103 3 l 258
 85 3 71 13 71 63 c 256xcc
 71 69 72 76 72 83 c 258
 72 98 l 258
 72 154 64 255 64 301 c 256
 64 322 66 344 66 381 c 256xd4
 66 408 62 455 62 487 c 256
 62 525 63 550 110 550 c 256
 127 550 125 541 135 516 c 256xe4
 141 499 146 442 148 362 c 256xd4
 148 332 146 300 146 275 c 257
 181.286589368 384.220395662 289.899436391 517 356 517 c 256
 383 517 421 477 437 453 c 256
 453.883488557 427.111984212 459.444 346.553927552 459.444 291.741 c 256
 459.444 274.778 459 257.667 459 241 c 256
 462 154 463 70 463 -16 c 257
 461 -73 459 -124 459 -185 c 256
 459 -215 473 -268 488 -274 c 256
 504 -280 510 -289 510 -299 c 256
 510 -324 483 -342 449 -342 c 256
 405 -342 379 -264 379 -214 c 256
 379 -146 381 -60 381 14 c 256
 381 56.4287 381.551 99.5918 381.551 141.915 c 256
EndSplineSet
Validated: 1
Substitution2: "ss02GreekCursive subtable" uniE08E
Substitution2: "cv09nondescendingeta subtable" uniE08E
EndChar

StartChar: eth
Encoding: 240 240 245
GlifName: eth
Width: 612
VWidth: 0
Flags: W
HStem: 8 90<231.871 327.735> 456 90<282.748 408.222> 812 96<131.143 296.032>
VStem: 96 93.877<146.524 358.559> 140.502 103.5<619.992 676.172> 462.002 92.179<295.123 619.671>
AnchorPoint: "bottom" 320 57 basechar 0
AnchorPoint: "top" 340 959 basechar 0
LayerCount: 2
Fore
SplineSet
406 442 m 256
 384.860735857 442 373.615454619 456 344 456 c 256
 306 456 246 414 228 388 c 256
 210 362 190 316 190 276 c 256xf4
 190 270 189.877 262.499 189.877 254.093 c 256xf4
 189.877 228.874 191.002 195.499 200.002 170 c 256
 216.002 126 248.002 98 278.002 98 c 256
 341.002 98 420.002 223 436.002 276 c 256
 452.002 330 462.002 418 462.002 440 c 256
 462.002 548 446.002 667 371.002 751 c 257
 345.002 729 323.002 709 298.002 696 c 256
 262.002 678 244.002 660 244.002 650 c 256
 244.002 632 212.002 608 194.002 608 c 256
 181.39884813 608 140.502 620.349826986 140.502 650.75 c 256xec
 140.502 660.5 144.002 671 150.002 680 c 256
 182.002 726 222.002 746 258.002 774 c 256
 265.002 780 279.002 789 297.002 801 c 257
 273.002 809 247.002 812 220.002 812 c 256
 190.002 812 162.002 808 138.002 800 c 256
 116.002 792 96.002 756 76.002 756 c 256
 53.0383255893 756 24.8633 756 24.8633 810.02 c 256
 24.8633 824.119 28.6299 838.276 42.001 848 c 256
 70.001 868 90.001 878 108.001 886 c 257
 124.001 892 188.001 908 236.001 908 c 256
 279.001 908 338.001 881 376.001 860 c 257
 413.001 889 439.001 910 462.001 930 c 256
 490.001 954 520.001 972 552.001 972 c 256
 578.001 972 600.001 954 600.001 932 c 256
 600.001 920 588.001 908 566.001 896 c 256
 513.001 869 482.001 840 440.001 806 c 257
 470.001 773 493.001 736 498.001 716 c 256
 510.001 666 542.001 616 550.001 556 c 257
 552.473 517.063 554.181 484.239 554.181 453.926 c 256
 554.181 362.343559749 533.548508793 213.858210552 422 80 c 256
 398 50 406 58 360 30 c 257
 338 12 304 8 276 8 c 256
 248 8 204 20 192 32 c 256
 174 48 130 92 122 112 c 257
 110 150 96 188 96 252 c 256
 96 322 104 352 112 368 c 256
 146 440 152 444 214 494 c 256
 264 534 288 546 348 546 c 256
 376 546 414 526 422 514 c 256
 428 506 440 484 440 470 c 256
 440 454 426 442 406 442 c 256
EndSplineSet
Validated: 1
EndChar

StartChar: exclam
Encoding: 33 33 246
GlifName: exclam
Width: 214
VWidth: 0
Flags: W
HStem: -6 142<63.6731 142.266>
VStem: 56 114<3.68207 103.98> 64 78<392.016 879.377> 84 64<272.29 541.203>
LayerCount: 2
Fore
SplineSet
148 322 m 256
 148 313.405036186 146.438966773 266 112 266 c 256
 102 266 94 280 84 312 c 256x90
 78 332 70 342 66 502 c 256
 66 540 64 584 64 630 c 258
 64 740 l 258
 64 766 62 786 62 802 c 256
 62 876 66 894 94 894 c 256xa0
 106 894 108 888 122 878 c 256
 131.381877023 870.494498382 144 860.4 144 778 c 256
 144 770 142 750 142 718 c 258
 142 636 l 258xa0
 142 450.761392895 148 357.460829327 148 322 c 256
88 136 m 256
 130 136 142 128 162 72 c 256
 166 58 170 46 170 32 c 256
 170 12 148 -6 96 -6 c 256
 64 -6 56 22 56 72 c 256xc0
 56 104 62 136 88 136 c 256
EndSplineSet
Validated: 1
EndChar

StartChar: exclamdbl
Encoding: 8252 8252 247
GlifName: exclamdbl
Width: 478
VWidth: 0
Flags: W
HStem: -6 142<63.6731 142.266 327.673 406.266>
VStem: 56 114<3.68207 103.98> 64 78<392.016 879.377> 84 64<272.29 541.203> 320 114<3.68207 103.98> 328 78<392.016 879.377> 348 64<272.29 541.203>
LayerCount: 2
Fore
SplineSet
412 322 m 256
 412 313.405036186 410.438966773 266 376 266 c 256
 366 266 358 280 348 312 c 256x82
 342 332 334 342 330 502 c 256
 330 540 328 584 328 630 c 258
 328 740 l 258
 328 766 326 786 326 802 c 256
 326 876 330 894 358 894 c 256x84
 370 894 372 888 386 878 c 256
 395.381877023 870.494498382 408 860.4 408 778 c 256
 408 770 406 750 406 718 c 258
 406 636 l 258x84
 406 450.761392895 412 357.460829327 412 322 c 256
352 136 m 256
 394 136 406 128 426 72 c 256
 430 58 434 46 434 32 c 256
 434 12 412 -6 360 -6 c 256
 328 -6 320 22 320 72 c 256x88
 320 104 326 136 352 136 c 256
148 322 m 256
 148 313.405036186 146.438966773 266 112 266 c 256
 102 266 94 280 84 312 c 256x90
 78 332 70 342 66 502 c 256
 66 540 64 584 64 630 c 258
 64 740 l 258xa0
 64 766 62 786 62 802 c 256
 62 876 66 894 94 894 c 256
 106 894 108 888 122 878 c 256
 131.381877023 870.494498382 144 860.4 144 778 c 256
 144 770 142 750 142 718 c 258
 142 636 l 258xa0
 142 450.761392895 148 357.460829327 148 322 c 256
88 136 m 256
 130 136 142 128 162 72 c 256
 166 58 170 46 170 32 c 256
 170 12 148 -6 96 -6 c 256
 64 -6 56 22 56 72 c 256xc0
 56 104 62 136 88 136 c 256
EndSplineSet
Validated: 1
EndChar

StartChar: exclamdown
Encoding: 161 161 248
GlifName: exclamdown
Width: 222
VWidth: 0
Flags: W
HStem: -336 21G<113.5 152> 378 102<64.1954 139.506>
VStem: 46 104<395.608 469.324> 80 108<-320.126 -14.5783>
LayerCount: 2
Fore
SplineSet
106 378 m 256
 63.3979156895 378 46 428.061587913 46 440 c 256xe0
 46 464 75 480 97 480 c 256
 127 480 150 456 150 426 c 256
 150 402 131 378 106 378 c 256
104 202 m 256
 124 202 138 198 144 188 c 256
 151 176 188 -241 188 -274 c 256
 188 -306 168 -336 136 -336 c 256
 91 -336 80 -279 80 -244 c 256xd0
 80 -186 78 -80 72 24 c 256
 70 76 68 100 68 154 c 256
 68 190 82 202 104 202 c 256
EndSplineSet
Validated: 1
EndChar

StartChar: f
Encoding: 102 102 249
GlifName: f
Width: 548
VWidth: 0
Flags: W
HStem: 382 92<30.0925 204.416> 438 84<345.609 503.418> 842 104<303.811 384.015>
VStem: 200 78<494.168 812.399> 240 82<20.2827 305.109> 448 68<679.104 762.373>
AnchorPoint: "bottom" 280 31 basemark 0
AnchorPoint: "top" 314 981 basemark 0
LayerCount: 2
Fore
SplineSet
216 398 m 257
 214.482318853 397.819323673 70.8503507133 382 64 382 c 256
 38 382 22 398 22 422 c 256
 22 438 34 466 44 474 c 256
 52 480 78 480 96 480 c 256
 148 480 179 482 206 482 c 257
 201 533 200 584 200 688 c 256
 200 760 202 814 226 862 c 256
 262 936 296 946 328 946 c 256
 364 946 454 900 472 868 c 256
 486 844 516 790 516 746 c 256
 516 704 504 672 472 672 c 256
 460 672 452 678 448 694 c 256
 432 778 386 842 330 842 c 256
 281 842 278 676 278 640 c 256xb4
 278 612 282 542 286 492 c 257
 374 508 425 522 474 522 c 256
 494 522 512 492 512 476 c 256
 512 456 474 438 454 438 c 256
 442 438 416 428 396 424 c 256
 374 420 329 414 295 410 c 257
 313 288 322 184 322 60 c 256
 322 26 322 -20 310 -30 c 257
 302 -38 302 -40 298 -40 c 256
 278 -40 232 4 232 20 c 256
 232 48.610682769 240 51.139317231 240 102 c 256
 240 104.365417511 238.365309263 251.80814442 224 338 c 256
 220 362 218 379 216 398 c 257
EndSplineSet
Validated: 1
EndChar

StartChar: uniE07F
Encoding: 57471 57471 250
GlifName: f_t
Width: 829
VWidth: 0
UnlinkRmOvrlpSave: 1
Flags: W
HStem: -4.46784 77.1689<668.917 741.388> 389.197 75.213<39.6265 194.052 472.219 759.346> 402.352 84.648<286.113 569.561> 792.569 104.155<378.904 433.58>
VStem: 151.023 80.978<-30.9245 -3.44922> 453 75.644<600.135 774.449> 564.903 86.504<85.8757 447.192>
LayerCount: 2
Fore
SplineSet
181.84 219.178 m 256
 188 303 191.346 442.046 209.954 520.905 c 256
 252.505 701.219 298.066 824.658 341.465 869.973 c 256
 355.171 884.283 383.774 896.724 391.933 896.724 c 256
 396.27 896.724 472.466 895.568 503.69 814.826 c 256
 524.528 760.938 528.644 688.034 528.644 646.352 c 256
 528.644 610.325 489.813 580.938 475.757 580.938 c 256
 466.358 580.938 446.074 585.069 446.074 610.406 c 256
 446.074 633.398 453 626.227 453 672 c 256
 453 715.206 446.422 792.569 399.311 792.569 c 256
 387.965 792.569 378.063 781.292 342.974 675.416 c 256
 335.435 652.665 312.723 579.665 300.643 543.029 c 256
 276.528 469.909 279.642 421.994 276.442 364.98 c 256
 273.569 313.791 270.608 251 266.001 175 c 256
 261.625 102.793 243.633 32.0625 232.001 -26 c 256
 230.186 -35.0645 217.194 -40.1665 202.642 -40.1665 c 256
 178.611 -40.1665 151.023 -19.1575 151.023 -3.44922 c 256
 151.021 52 173.635 107.536 181.84 219.178 c 256
426.399 402.352 m 256xbe
 312.732 402.352 107.453 389.197 104.229 389.197 c 256
 71.949 389.197 56.9116 393.727 40.8867 409.571 c 256
 27.2402 423.064 20.1133 436.14 20.1133 449.092 c 256
 20.1133 457.657 27.8633 463.854 37.8183 464.41 c 256xde
 122.776 469.153 169.513 474.361 248.137 481.58 c 256
 290.801 485.497 331.184 487 369.306 487 c 256
 490.535 487 588.895 471.8 665.014 470.696 c 256
 696.043 470.247 727.072 466.247 758.102 461.665 c 256
 777.406 458.813 788 444.802 788 431.373 c 256
 788 412.103 777.526 397.53 759.622 388.043 c 256
 753.876 384.997 739.159 383.25 709.493 383.25 c 256
 583.894 383.25 545.165 402.352 426.399 402.352 c 256xbe
678.786 682.729 m 256
 678.786 604.933 651.407 398.888 651.407 259.358 c 256
 651.407 234.125 652.356 210.035 654.472 182.669 c 256
 662.228 81.3056 673.028 80.8993 689.709 72.7011 c 256
 713.412 61.0507 748.079 76.5468 748.079 33.7324 c 256
 748.079 21.6015 729.652 -4.46784 702.46 -4.46784 c 256
 659.583 -4.46784 627.073 6.87689 612.75 21.1992 c 256
 564.903 69.0441 564.903 178.925 564.903 224.032 c 256
 564.903 465.085 602.709 753.271 604.381 758.477 c 256
 604.465 758.736 611.476 761.201 621.215 761.201 c 256
 631.478 761.201 678.786 757.164 678.786 682.729 c 256
EndSplineSet
Validated: 37
Ligature2: "ligaStandardLigatureslookup0-2" f t
LCarets2: 1 0
EndChar

StartChar: figuredash
Encoding: 8210 8210 251
GlifName: figuredash
Width: 640
VWidth: 0
Flags: W
HStem: 246 89<506.1 588.314> 247 74<70.3439 505.728>
LayerCount: 2
Fore
SplineSet
62 281 m 256
 62 300.17886049 91.4781117202 323 128 323 c 256
 179 323 232 321 270 321 c 258
 339 321 l 258
 445 321 501 322 506 330 c 256x40
 508 333 518 335 536 335 c 256
 600 335 600 327.125 600 312 c 256
 600 254 569 246 514 246 c 256x80
 497 246 486 247 470 247 c 256
 383 247 406 244 302 244 c 258
 171 244 l 258
 129 244 102 244 91 247 c 256
 80 249 62 270 62 281 c 256
EndSplineSet
Validated: 1
EndChar

StartChar: five
Encoding: 53 53 252
GlifName: five
Width: 528
VWidth: 0
Flags: W
HStem: -311 109<134.872 222.979> 124 90<196.626 368.565> 430 90<160.313 422.292>
VStem: 40.792 87.208<176 380.125> 391 89<-13.5429 100.833>
LayerCount: 2
Fore
SplineSet
302 124 m 256
 228.391858922 124 124.492756463 72 85 72 c 256
 51.3232 72 40.792 85.7432 40.792 133.237 c 256
 40.792 164.72 45.4189 211.031 51 278.001 c 256
 57 352.001 69 424.001 74 463.001 c 257
 59.4229 478.307 53.877 497.331 53.877 509.62 c 256
 53.877 523.751585766 61.7395218781 536 89 536 c 256
 131.675877324 536 223.469956009 520 296 520 c 256
 321.986213385 520 421.728072329 527 423 527 c 256
 470 527 480 515 480 484 c 256
 480 449 420 436 279 430 c 257
 249 430 l 258
 216 430 187 431 159 435 c 257
 153 388 141 346 134 274 c 256
 132 250 129 198 128 176 c 257
 156 187 242 214 303 214 c 256
 422 214 480 166 480 49 c 256
 480 -38 396 -151 283 -254 c 256
 249 -286 204 -311 182 -311 c 256
 131 -311 104 -250 104 -210 c 256
 104 -197 114 -187 130 -187 c 256
 157 -187 164 -202 185 -202 c 256
 219.950290521 -202 391 -28.1847079181 391 46 c 256
 391 90 366 124 302 124 c 256
EndSplineSet
Validated: 1
Substitution2: "lnumLiningFigureslookup8 subtable" uniE07A
EndChar

StartChar: four
Encoding: 52 52 253
GlifName: four
Width: 554
VWidth: 0
Flags: W
HStem: -302 21G<445 456> -2 95<128.806 275.163> 4 94<143.16 328 426.062 518.964> 554 20G<232 247>
VStem: 30 98.597<71 168.884> 200 88<460.012 558.082> 328 98<-160.996 4> 336 104<99.4375 219.474> 362 78<149.75 291.88>
LayerCount: 2
Fore
SplineSet
544 62 m 256
 544 50.3503659877 538.464748788 8 426 8 c 257
 426 -106 456 -206 464 -216 c 256
 474 -228 478 -242 478 -254 c 256
 478 -268 464 -302 448 -302 c 256
 442 -302 436 -300 426 -298 c 256
 378 -288 364 -232 340 -118 c 256
 336 -100 330 -42 328 4 c 257
 277 4 l 258xbe
 238 4 187 -2 141 -2 c 256
 112 -2 85 1 64 8 c 256
 36 18 30 50 30 92 c 256
 30 132 50 166 58 182 c 256
 84 236 94 272 120 330 c 256
 128 346 148 378 200 510 c 256
 212 538 224 574 240 574 c 256
 254 574 288 554 288 540 c 256
 288 481 226 348 198 288 c 256
 176 238 144 192 130 128 c 256
 129.05 123.927 128.597 120.314 128.597 117.113 c 256
 128.597 96.7344 146.938 93 172 93 c 256xde
 218.685722765 93 222.814277235 98 278 98 c 256
 299 98 317 97 336 96 c 257xbd
 338 136 360 220 362 246 c 256
 364 276 384 304 416 304 c 256
 428 304 440 300 440 292 c 256
 440 284 440 250 434 190 c 258
 424 98 l 257
 435 95 446 94 456 94 c 256
 476 94 493 98 512 98 c 256
 520 98 544 72 544 62 c 256
EndSplineSet
Validated: 1
Substitution2: "lnumLiningFigureslookup8 subtable" uniE079
EndChar

StartChar: fraction
Encoding: 8260 8260 254
GlifName: fraction
Width: 659
VWidth: 0
Flags: W
HStem: 790 57<579.311 632.878>
VStem: 30 72<0.011322 80.6875>
LayerCount: 2
Fore
SplineSet
581 847 m 256
 604 847 635 836 635 821 c 256
 635 809 623 795 611 790 c 256
 584 779 560 751 535 719 c 256
 378.648209793 514.201176208 285.036359947 333.552959053 216 233 c 257
 191 193 179 176 156 140 c 256
 142 117 111 61 104 33 c 256
 104 31 102 24 102 19 c 256
 102 -4 130 9 130 -14 c 256
 130 -24 115 -30 98 -30 c 256
 67 -30 30 -8 30 25 c 256
 30 49 37 75 50 99 c 257
 74 149 66 148 126 243 c 256
 224 398 289 498 362 613 c 256
 420 704 388 667 450 756 c 256
 475 792 514 825 532 837 c 256
 540 842 565 847 581 847 c 256
EndSplineSet
Validated: 1
EndChar

StartChar: g
Encoding: 103 103 255
GlifName: g
Width: 521
VWidth: 0
Flags: W
HStem: -267 93<249.841 361.078> 194 90<134.408 230.336> 326 1<430.375 453.625> 475 88<223.806 311.536>
VStem: 46 87<284.622 365.702> 229 95<164.664 208.775> 376 85<-158.759 -3.4753>
AnchorPoint: "bottom" 270 -213 basemark 0
AnchorPoint: "top" 262 625 basemark 0
LayerCount: 2
Fore
SplineSet
416 333 m 257
 394.395656578 299.050317479 324 248.958781742 324 194 c 256
 324 169.351211272 461 90.1597376334 461 -98 c 256
 461 -194 399 -267 323 -267 c 256
 258 -267 212 -246 157 -201 c 256
 81 -139 63 -112 63 -53 c 256
 63 -15 182 70 241 70 c 256
 268 70 286 54 286 33 c 256
 286 17 275 2 257 -8 c 257
 238 -17 167 -53 159 -68 c 257
 172 -116 272 -174 318 -174 c 256
 346 -174 376 -155 376 -96 c 256
 376 -60 363 0 311 70 c 256
 260 138 229 157 229 187 c 256
 229 194 230 201 231 209 c 257
 207 199 181 194 150 194 c 256
 71 194 46 243 46 298 c 256
 46 337 57 379 106 443 c 256
 184 546 217 563 261 563 c 256
 306 563 350 530 396 495 c 256
 442 461 477 409 477 343 c 256
 477 329 467 326 454 326 c 256
 446 326 438 327 430 327 c 256
 425 327 420 329 416 333 c 257
356 421 m 257
 328 449 274 475 261 475 c 256
 246 475 220 457 178 400 c 256
 140 348 133 324 133 303 c 256
 133 291 137 284 151 284 c 256
 224 284 269 326 356 421 c 257
EndSplineSet
Validated: 1
Substitution2: "cv02cursivegandcyrlde subtable" uniE06E
EndChar

